STARTFONT 2.3
FONT -FontForge-Lobster-Book-R-Normal--36-360-72-72-P-212-ISO10646-1
SIZE 36 72 72  2
FONTBOUNDINGBOX 73 54 -17 -18
COMMENT "Generated by fontforge, http://fontforge.sourceforge.net"
COMMENT "Copyright 2010 The Lobster Project Authors (https://github.com/impallari/The-Lobster-Font), with Reserved Font Name "Lobster"."
STARTPROPERTIES 41
FOUNDRY "FontForge"
FAMILY_NAME "Lobster"
WEIGHT_NAME "Book"
SLANT "R"
SETWIDTH_NAME "Normal"
ADD_STYLE_NAME ""
PIXEL_SIZE 36
POINT_SIZE 360
RESOLUTION_X 72
RESOLUTION_Y 72
SPACING "P"
AVERAGE_WIDTH 212
CHARSET_REGISTRY "ISO10646"
CHARSET_ENCODING "1"
FONTNAME_REGISTRY ""
CHARSET_COLLECTIONS "ISO8859-2 ISO8859-5 ISO8859-9 ISO8859-4 ISO10646-1"
BITS_PER_PIXEL 2
FONT_NAME "Lobster-Regular"
FACE_NAME "Lobster Regular"
COPYRIGHT "Copyright 2010 The Lobster Project Authors (https://github.com/impallari/The-Lobster-Font), with Reserved Font Name "Lobster"."
FONT_VERSION "2.100"
FONT_ASCENT 29
FONT_DESCENT 7
UNDERLINE_POSITION -4
UNDERLINE_THICKNESS 2
X_HEIGHT 19
CAP_HEIGHT 26
DEFAULT_CHAR 1
RAW_ASCENT 800
RAW_DESCENT 200
NORM_SPACE 8
RELATIVE_WEIGHT 40
RELATIVE_SETWIDTH 50
SUPERSCRIPT_X 0
SUPERSCRIPT_Y 12
SUPERSCRIPT_SIZE 21
SUBSCRIPT_X 0
SUBSCRIPT_Y 2
SUBSCRIPT_SIZE 21
AVG_LOWERCASE_WIDTH 170
AVG_UPPERCASE_WIDTH 224
ENDPROPERTIES
CHARS 1148
STARTCHAR NULL.dup1
ENCODING 0
SWIDTH 600 0
DWIDTH 22 0
BBX 1 1 0 0
BITMAP
00
ENDCHAR
STARTCHAR nonmarkingreturn
ENCODING 13
SWIDTH 600 0
DWIDTH 22 0
BBX 1 1 0 0
BITMAP
00
ENDCHAR
STARTCHAR space
ENCODING 32
SWIDTH 217 0
DWIDTH 8 0
BBX 1 1 0 0
BITMAP
00
ENDCHAR
STARTCHAR exclam
ENCODING 33
SWIDTH 257 0
DWIDTH 9 0
BBX 11 27 1 0
BITMAP
0005A8
003FF4
003FF0
003FF0
007FE0
007FD0
00BFC0
00BF80
00FF40
00FF00
01FF00
01FE00
02FD00
02FC00
03F800
03F400
03F000
07F000
069000
000000
000000
1F8000
7FD000
BFE000
BFE000
7FD000
1F8000
ENDCHAR
STARTCHAR quotedbl
ENCODING 34
SWIDTH 353 0
DWIDTH 13 0
BBX 12 8 3 19
BITMAP
0BF0FE
0FE1FD
1FC2F8
2F83F4
3F07E0
7E0BD0
BC0F80
F81F40
ENDCHAR
STARTCHAR numbersign
ENCODING 35
SWIDTH 659 0
DWIDTH 24 0
BBX 20 23 2 2
BITMAP
0002A00680
0003E00BC0
0007D00F80
0007D00F80
000BC01F40
000BC01F00
000F802F00
0FFFFFFFFD
0FFFFFFFFC
056F55BD50
003E00BC00
003E00BC00
007D00F800
15BD55F940
7FFFFFFFE0
BFFFFFFFD0
00F403E000
01F403E000
02F007D000
02F00BC000
03E00BC000
07D00F8000
06900A4000
ENDCHAR
STARTCHAR dollar
ENCODING 36
SWIDTH 548 0
DWIDTH 20 0
BBX 19 36 0 -5
BITMAP
0000001D00
0000002D00
0000002C00
0000003800
00001BFD00
0001FFFFD0
0007F8B6F4
001FF0F1FC
002FE1E1FC
003FE1D2FC
003FE2D7F8
003FF3C6E0
002FFB8000
001FFF4000
000FFF4000
0007FFD000
0001FFF400
0000BFFC00
00002FFE00
00002FFF40
00003FFFC0
07E43AFFD0
2FFD74FFD0
3FE4B4BFD0
7F80F07FD0
7F40E07FC0
7F41D0BF80
3F82D1FF00
2FD2C7FD00
0BFFFFF400
01FFFF8000
001B940000
000B000000
000E000000
001E000000
001D000000
ENDCHAR
STARTCHAR percent
ENCODING 37
SWIDTH 796 0
DWIDTH 29 0
BBX 28 27 1 0
BITMAP
001BE40001F400
00BDBD0002E000
02F03F0007D000
0BE03F000F8000
1FC03F401F4000
2F803F403E0000
3F807F00BC0000
3F407F00F40000
3F40BE02F00000
7F00FD07D00000
3F01F80B800000
3F42F01F400000
1F8BC03E006F90
07FE007D02F6F4
000000F80BD0FC
000002F01F80FC
000003D03F40FD
00000BC07F00FD
00001F40BE00FD
00002E00FD01FC
00007D00FD01F8
0000F800FD02F8
0001F400FC03F0
0003E000FC07E0
000BC000BD0F80
000F80007E6E00
002F00001BE400
ENDCHAR
STARTCHAR ampersand
ENCODING 38
SWIDTH 682 0
DWIDTH 25 0
BBX 24 28 0 -1
BITMAP
00001BFA0000
0000BFFFC000
0002FF5BF000
000BFC03F400
001FF403F800
002FF003F800
002FE00BF400
003FE00FE000
002FE0014000
002FF0000000
001FF8000000
000BFE000004
0007FF80001E
007FF80056FE
01FFD01BFFFE
07FF807FFFFC
0FFF00BFFFF4
2FFD00FFBE40
3FFC00F43800
7FFC00507800
7FF80000B400
7FFC0001F000
7FFD0007D000
3FFE001F8000
2FFFEAFE0000
0BFFFFF40000
02FFFF800000
001554000000
ENDCHAR
STARTCHAR quotesingle
ENCODING 39
SWIDTH 196 0
DWIDTH 7 0
BBX 6 8 3 19
BITMAP
0BF0
0FE0
1FC0
2F80
3F00
7E00
BC00
F800
ENDCHAR
STARTCHAR parenleft
ENCODING 40
SWIDTH 437 0
DWIDTH 16 0
BBX 14 37 5 -9
BITMAP
00000010
000001B0
00000BD0
00002F40
0000FC00
0003F400
000FD000
002F8000
007F4000
00FE0000
02FD0000
03F80000
0BF40000
0FF00000
1FE00000
2FE00000
3FD00000
3FC00000
7FC00000
7F800000
BF800000
BF800000
BF800000
BF800000
7F800000
7F800000
3F800000
3F800000
2FC00000
1FC00000
0FD00000
0BE00000
03F00000
01F40000
00B80000
003C0000
00040000
ENDCHAR
STARTCHAR parenright
ENCODING 41
SWIDTH 413 0
DWIDTH 15 0
BBX 15 37 -3 -9
BITMAP
00004000
0001E000
0000F400
0000BC00
00007E00
00003F00
00002F80
00001FC0
00001FD0
00000FE0
00000FE0
00000FF0
00000FF0
00000BF4
00000FF4
00000FF4
00000FF4
00000FF0
00001FF0
00001FE0
00002FE0
00002FD0
00003FC0
00007F80
0000BF40
0000FE00
0002FD00
0003F800
000BF000
000FD000
002F8000
007E0000
01F80000
07E00000
2F400000
78000000
10000000
ENDCHAR
STARTCHAR asterisk
ENCODING 42
SWIDTH 515 0
DWIDTH 19 0
BBX 13 14 3 13
BITMAP
002F0000
007F0000
107E0000
7C7E2E00
BF7DBF40
7FFFFF40
0AFFA400
06FFA400
BFFFFE00
BF7EBF00
693E2F00
007E0500
007E0000
007D0000
ENDCHAR
STARTCHAR plus
ENCODING 43
SWIDTH 442 0
DWIDTH 16 0
BBX 15 13 0 6
BITMAP
0001A000
0003F000
0003E000
0007E000
000BD000
2FFFFFF4
3FFFFFF0
7FFFFFF0
001F4000
002F4000
003F0000
003E0000
007E0000
ENDCHAR
STARTCHAR comma
ENCODING 44
SWIDTH 216 0
DWIDTH 8 0
BBX 5 10 1 -5
BITMAP
2E40
BFC0
FFC0
FFC0
BF80
1F40
0F00
2D00
7400
9000
ENDCHAR
STARTCHAR hyphen
ENCODING 45
SWIDTH 290 0
DWIDTH 10 0
BBX 9 3 0 8
BITMAP
2FFF40
3FFF40
7FFF00
ENDCHAR
STARTCHAR period
ENCODING 46
SWIDTH 263 0
DWIDTH 9 0
BBX 6 6 1 0
BITMAP
2F40
7FD0
BFE0
BFE0
7FD0
2F40
ENDCHAR
STARTCHAR slash
ENCODING 47
SWIDTH 311 0
DWIDTH 11 0
BBX 11 36 0 -9
BITMAP
0000F8
0001F4
0002F0
0002F0
0003E0
0003D0
0007D0
000BC0
000B80
000F80
001F40
001F40
002F00
003E00
003E00
007D00
007C00
00BC00
00F800
00F400
01F400
02F000
02F000
03E000
07D000
07D000
0BC000
0B8000
0F8000
1F4000
1F0000
2F0000
3E0000
3E0000
7D0000
BC0000
ENDCHAR
STARTCHAR zero
ENCODING 48
SWIDTH 546 0
DWIDTH 20 0
BBX 20 27 0 0
BITMAP
00001BFE00
0001BFFFD0
0007FE5FF4
001FF80BFC
007FF007FD
00FFD003FE
01FF8003FE
03FF4003FF
07FF0003FF
0BFE0003FF
0FFD0003FF
1FFC0007FE
2FFC0007FE
3FF8000BFD
3FF8000BFD
3FF4000FFC
7FF4000FF8
7FF4001FF4
7FF4002FF0
7FF0003FE0
3FF0007FD0
3FF400FF80
2FF401FF00
1FF807FD00
0BFE5FF400
02FFFF9000
006FF90000
ENDCHAR
STARTCHAR one
ENCODING 49
SWIDTH 317 0
DWIDTH 11 0
BBX 11 27 1 0
BITMAP
000004
0001B4
006BF4
2FFFF0
2FFFE0
05BFE0
00BFD0
00FFC0
01FFC0
01FF80
02FF40
03FF40
03FF00
07FE00
0BFE00
0BFD00
0FFD00
1FFC00
1FF800
2FF800
3FF400
3FF000
7FF000
7FE000
BFD000
FFD000
FFC000
ENDCHAR
STARTCHAR two
ENCODING 50
SWIDTH 492 0
DWIDTH 18 0
BBX 18 28 -1 -1
BITMAP
0001BFE400
000BFFFE00
003F96FF80
00BE00FFD0
01FC00BFE0
01FC00BFF0
02FD007FF0
01FE00BFF0
00FF80BFE0
006E00FFD0
000001FF80
000003FF00
00000BFD00
00002FF000
0000BF8000
0002FE0000
000BF40000
002FC00000
00BE000000
02F8000000
07E0000000
0FD5400180
2FFFFEABC0
3FFFFFFFC0
7FFFFFFF80
7FFFFFFF40
6405BFFD00
0000055000
ENDCHAR
STARTCHAR three
ENCODING 51
SWIDTH 514 0
DWIDTH 19 0
BBX 18 27 0 0
BITMAP
0001BFE400
000BFFFF40
003FD5FFC0
00BF003FE0
00FE002FE0
01FE002FF0
00FF003FE0
00BF807FD0
001900FFC0
000002FF40
00000BFD00
0001BFE000
0000BFE400
00001FFE00
000007FF80
000002FFC0
0BF801FFD0
2FFD00FFE0
7FE000FFD0
BF8000FFD0
BF4001FFC0
BF4002FF80
BF4003FF00
7F800BFD00
2FE57FF400
0BFFFF8000
01AFE90000
ENDCHAR
STARTCHAR four
ENCODING 52
SWIDTH 476 0
DWIDTH 17 0
BBX 17 27 0 0
BITMAP
0001F90000
0001FF4000
0001FF8000
0001FF8000
0001FF8000
0002FF4000
0003FE0000
0007FC2F00
000BF43E00
001FE07D00
003F80BD00
00BF00FC00
01FC01FC00
03F002F800
0BC003F5C0
1FAFEBFBC0
7FFFFFFFC0
FFFFFFFF80
B95AFFFE00
00002FE400
00003FC000
00007FC000
0000BF8000
0000FF4000
0001FF4000
0002FF0000
0003FF0000
ENDCHAR
STARTCHAR five
ENCODING 53
SWIDTH 517 0
DWIDTH 19 0
BBX 18 26 0 0
BITMAP
00054005B0
002FFFFFF0
002FFFFFF0
003FFFFFD0
007F5AFE40
007E000000
00BD000000
00BC000000
00FC000000
01F9AF9000
01FFFFFC00
02FFFFFF00
03E41BFF80
010003FFC0
000001FFC0
000000FFD0
06FD00FFD0
1FFE00FFD0
3FE000FFC0
7FC001FF80
7F8002FF40
7F8003FF00
7FC00FFD00
2FF9BFF400
0BFFFF8000
01BFE90000
ENDCHAR
STARTCHAR six
ENCODING 54
SWIDTH 500 0
DWIDTH 18 0
BBX 19 27 0 0
BITMAP
00001BFE00
0001BFFFD0
0007FE5BF0
001FF803F4
007FE003F4
00FFC007F0
02FF400FE0
07FF000240
0BFE000000
0FFD000000
1FFC000000
2FF86FF800
3FF6FFFE00
3FFA42FF80
7FFC00BFC0
7FF4007FD0
7FF0007FD0
7FF0007FD0
7FF0007FD0
7FF0007FC0
7FF000BF80
3FF000FF40
2FF402FE00
1FF807FC00
0BFE5FE000
02FFFF8000
006FF90000
ENDCHAR
STARTCHAR seven
ENCODING 55
SWIDTH 464 0
DWIDTH 17 0
BBX 17 27 2 0
BITMAP
0BF9000000
3FFFD41680
BFFFFFFF40
FFFFFFFE00
F416ABFC00
900003F400
00000BE000
00002FC000
00007F4000
0001FE0000
0003FD0000
000BF80000
002FF00000
007FD00000
00FF800000
02FF400000
07FE000000
0FFD000000
1FFC000000
2FF8000000
3FF4000000
7FF4000000
7FF4000000
7FF4000000
3FF4000000
1FF8000000
0BE4000000
ENDCHAR
STARTCHAR eight
ENCODING 56
SWIDTH 499 0
DWIDTH 18 0
BBX 18 27 0 0
BITMAP
00006FE400
000BFFFF40
002FF96FD0
00BFD00FE0
00FFC00FF0
01FF800FF0
01FF800FF0
01FFC01FD0
00FFE03F80
00BFF4BF00
007FFFF800
001FFFD000
000BFFE000
002FFFF800
01FFBFFE00
0BF82FFF40
2FF00BFF80
7FD003FFC0
BFC001FFD0
FF8000FFD0
FF8000FFD0
FF8000FFC0
BFC001FF40
7FE003FE00
1FF95FF800
07FFFFD000
006FF90000
ENDCHAR
STARTCHAR nine
ENCODING 57
SWIDTH 489 0
DWIDTH 18 0
BBX 18 27 0 0
BITMAP
0001BFE000
001FFFFD00
007F96FF00
01FE00FF80
07FC00BFC0
0FF400BFD0
1FF0007FD0
2FF0007FE0
3FE000BFE0
3FE000BFE0
3FE000FFE0
3FE001FFE0
2FF003FFE0
0FF95EFFD0
07FFFDFFD0
01BF91FFC0
000001FF80
000002FF40
000003FF00
050007FE00
2F800FFC00
7F401FF400
7E007FE000
7F01FFC000
7F9BFE0000
1FFFF80000
06FE800000
ENDCHAR
STARTCHAR colon
ENCODING 58
SWIDTH 267 0
DWIDTH 10 0
BBX 8 14 1 2
BITMAP
01F8
07FE
0BFF
0BFF
07FE
01F8
0000
0000
1B80
3FE0
7FF0
7FF0
3FE0
1B80
ENDCHAR
STARTCHAR semicolon
ENCODING 59
SWIDTH 276 0
DWIDTH 10 0
BBX 8 19 1 -4
BITMAP
01F8
07FE
0BFF
0BFF
07FE
01F8
0000
0000
0000
1B80
3FE0
7FF0
7FF0
2FE0
0BD0
0780
0B00
2D00
2000
ENDCHAR
STARTCHAR less
ENCODING 60
SWIDTH 358 0
DWIDTH 13 0
BBX 13 13 0 3
BITMAP
00000280
00002F80
0002FF40
002FF900
02FF9000
2FF90000
BFD00000
7FE00000
0BFE0000
01BFD000
001FFC00
0002F800
00002400
ENDCHAR
STARTCHAR equal
ENCODING 61
SWIDTH 515 0
DWIDTH 19 0
BBX 16 12 1 4
BITMAP
0BFFFFFE
0BFFFFFE
0FFFFFFD
0FFFFFFC
00000000
00000000
00000000
00000000
3FFFFFF0
7FFFFFF0
BFFFFFE0
BFFFFFE0
ENDCHAR
STARTCHAR greater
ENCODING 62
SWIDTH 362 0
DWIDTH 13 0
BBX 13 13 0 3
BITMAP
06400000
0BE00000
0FFD0000
01FFD000
001FF900
0002FF40
0001FF40
001FFD00
01FFD000
1BFD0000
7FD00000
BD000000
90000000
ENDCHAR
STARTCHAR question
ENCODING 63
SWIDTH 441 0
DWIDTH 16 0
BBX 15 27 1 0
BITMAP
006BF900
02FFFFD0
0BE5BFF0
2F802FF4
3F402FF8
3F401FF4
3FC02FF4
2FE03FE0
0B907FC0
0001FF40
0003FC00
000FE000
002F8000
00BE0000
01F80000
02F00000
03E00000
03D00000
01400000
00000000
00000000
0B900000
3FF00000
7FF40000
7FF40000
3FF00000
0B900000
ENDCHAR
STARTCHAR at
ENCODING 64
SWIDTH 688 0
DWIDTH 25 0
BBX 25 25 -1 -4
BITMAP
000001AFF90000
00002FFFFFD000
0001FFA55BF400
000BF90001FD00
002FE00000BE00
00BF4000003F00
01FD02FAF43F40
03F80FFFF42F40
0BF02FD3F02F40
0FD0BF47E03F40
1FC0FE0BE03F00
2F81FC0BD07F00
3F42F80FC0BD00
3F03F41F81FC00
7F03F42F83F400
7F03F87F8BE000
7F02FFDFFF8000
7F00FE47F90000
3F400000400000
3F800000A00000
2FD00002F00000
0FF9006FE00000
07FFFFFFD00000
01FFFFFE000000
001AFF90000000
ENDCHAR
STARTCHAR A
ENCODING 65
SWIDTH 668 0
DWIDTH 24 0
BBX 25 31 0 -4
BITMAP
0000000001BF80
000000001FFF80
00000000BFFF40
00000002F7FF40
0000000BD3FF00
0000002F47FF00
0000007E0BFE00
000000FC0BFD00
000002F40FFD00
00000BE00FFC00
00001FD01FF800
01BFFFD42FF800
1FFFFFFFBFF400
3FD4FE16FFF000
BF41FD007FF000
BF43FC007FE000
7F4BF800BFE000
040FF000FFD000
001FE000FFC000
003FD001FFC000
007FC002FF8000
00BF8002FF4000
00FF4003FF4000
01FF4003FF0000
02FF0007FE0000
02FE000BFE0000
03FE000BFD0000
03FD0000000000
02FD0000000000
01FD0000000000
006E0000000000
ENDCHAR
STARTCHAR B
ENCODING 66
SWIDTH 641 0
DWIDTH 23 0
BBX 22 28 0 -1
BITMAP
00005BFE9000
0006FFFFF900
006FE556FF00
01FE00007F80
07F46BE02FC0
1FD0BFD02FC0
2F80FFC02FC0
7F41FFC03F80
7F01FF80BF40
BF02FF41FD00
7E02FF5BF400
3F03FFFFF900
0607FFFFFF40
0007FE06FFC0
000BFD00FFD0
000FFD007FE0
000FFC007FE0
001FF8007FE0
002FF8007FE0
002FF4007FE0
003FF000BFD0
007FF000BFC0
007FE000FF80
00BFE502FF00
00FFDBAFFD00
00FFCBFFF800
01FFC7FFD000
000000550000
ENDCHAR
STARTCHAR C
ENCODING 67
SWIDTH 497 0
DWIDTH 18 0
BBX 20 28 0 -1
BITMAP
00001BFE40
0001BFFFE0
0007FF96F8
001FFE00FC
003FF800BD
00BFF000FD
01FFE001FC
03FFC003F8
07FF800190
0BFF400000
0FFF000000
1FFE000000
2FFD000000
2FFD000000
3FFC000000
3FFC000000
7FF8000000
7FF8000000
7FF8000000
7FF8000000
7FF8000000
3FFC000028
3FFD0000B0
2FFF0006D0
0FFFEABF40
07FFFFFD00
01BFFF9000
0005540000
ENDCHAR
STARTCHAR D
ENCODING 68
SWIDTH 663 0
DWIDTH 24 0
BBX 24 28 0 -1
BITMAP
00005BFF9000
0006FFFFFD00
007FE556FF40
01FE00007FD0
0BF46AD02FF0
1FD0FFD01FF4
3F80FFC00FF8
7F41FF800BFC
BF02FF800BFC
BE02FF400BFC
BE03FF400FFD
7E07FF000FFC
2E07FE000FFC
000BFE000FFC
000FFD001FFC
000FFC001FF8
001FFC002FF4
002FF8003FF0
002FF4007FE0
003FF400BFD0
007FF000FFC0
007FE002FF80
00BFE007FF00
00FFD01FFD00
00FFFABFF800
01FFFFFFE000
02FF9BFF4000
000001540000
ENDCHAR
STARTCHAR E
ENCODING 69
SWIDTH 459 0
DWIDTH 17 0
BBX 18 28 0 -1
BITMAP
00001BF900
0000BFFF80
0003FE5BD0
000BF807E0
001FF003E0
003FE007E0
003FD00BD0
007FD01F80
007FD00500
003FE00000
002FF40000
000FFD0000
000BFE4000
00BFF40000
02FFD00000
0BFF400000
1FFE000000
3FFD000000
7FFC000000
BFF8000000
BFF8000000
BFF8000090
BFF8000280
7FFD001E00
3FFFAAF800
1FFFFFE000
06FFFE0000
0055500000
ENDCHAR
STARTCHAR F
ENCODING 70
SWIDTH 459 0
DWIDTH 17 0
BBX 22 27 0 0
BITMAP
0001AFFFFFE0
002FFFFFFFD0
01FEFFFFFF80
07E0BFEAFE00
1FC0FFC00000
2F41FFC00000
7F01FF800000
7F02FF800000
BE03FF400000
BE03FF000000
BE07FF000000
7E0BFFFFC000
1B0BFFFF8000
000FFEAA4000
000FFC000000
001FFC000000
002FF8000000
002FF4000000
003FF4000000
007FF0000000
007FE0000000
00BFE0000000
00FFD0000000
00FFC0000000
01FFC0000000
02FF80000000
02FF40000000
ENDCHAR
STARTCHAR G
ENCODING 71
SWIDTH 578 0
DWIDTH 21 0
BBX 21 34 0 -7
BITMAP
00001AFF9000
0001FFFFF800
000BFF95FE00
003FFD007F40
00FFF0003F40
02FFD0007F40
07FF8000BF40
0FFF0001FE00
1FFD00006400
2FFC00000000
3FF800000000
3FF800000000
7FF40001A900
7FF40003FD00
7FF40007FC00
7FF4000BFC00
3FF4000FF800
3FF8002FF400
2FFC007FF400
0FFE42FFF000
07FFFFBFE000
01FFFE7FE000
006FE47FD000
000000BFC000
000540FFC000
007FE0FF8000
01FFF5FF4000
03FEB6FF0000
07F003FE0000
07E007FC0000
07E00BF80000
03F96FE00000
01FFFF800000
002BF9000000
ENDCHAR
STARTCHAR H
ENCODING 72
SWIDTH 665 0
DWIDTH 24 0
BBX 25 27 0 0
BITMAP
00001BF401FFC0
0006FFF402FF80
002FFFF002FF40
01FD7FE003FF40
07F4BFE003FF00
0FD0BFD007FE00
2F80FFC00BFE00
7F41FFC00BFD00
7F01FF800FFD00
BF02FF801FFC00
7E03FF401FF800
3F03FFFFFFF800
1B07FFFFFFF400
000BFFAABFF000
000BFD007FF000
000FFD007FE000
000FFC00BFD000
001FF800FFD000
002FF800FFC000
002FF401FFC000
003FF402FF8000
007FF002FF4000
007FE003FF4000
00BFE007FF0000
00FFD007FE0000
00FFC00BFE0000
01FFC00BFD0000
ENDCHAR
STARTCHAR I
ENCODING 73
SWIDTH 375 0
DWIDTH 14 0
BBX 15 27 0 0
BITMAP
00006BF4
0007FFF0
007FFFE0
01F9BFE0
0BE0BFD0
1FC0FFC0
3F41FFC0
7F01FF80
BE02FF80
BE03FF40
BE03FF00
7E07FF00
1A0BFE00
000BFD00
000FFD00
000FFC00
001FF800
002FF800
002FF400
003FF000
007FF000
007FE000
00BFE000
00FFD000
00FFC000
01FFC000
02FF8000
ENDCHAR
STARTCHAR J
ENCODING 74
SWIDTH 536 0
DWIDTH 19 0
BBX 21 34 0 -7
BITMAP
00000001BF80
0000002FFF40
000002FFFF40
00000BE3FF00
00003F47FF00
0000BE0BFE00
0001FC0BFD00
0003F80FFD00
0007F41FFC00
0007F01FF800
0003F02FF800
0002F03FF400
0000643FF000
0000007FF000
000000BFE000
000000BFD000
000000FFD000
000001FFC000
000001FFC000
000002FF8000
000003FF4000
000003FF4000
000007FF0000
00000BFE0000
00540BFE0000
0BFF0FFD0000
2FFF5FFC0000
3FEA6FF80000
7F002FF40000
7E003FF00000
7E00BFD00000
3F96FF800000
1FFFFD000000
02FF90000000
ENDCHAR
STARTCHAR K
ENCODING 75
SWIDTH 601 0
DWIDTH 22 0
BBX 24 28 0 -1
BITMAP
00006BF401FD
0007FFF003F8
006FFFE00BE0
01FDBFE01FC0
07F0BFD03F40
1FC0FFD0BD00
3F41FFC2F400
7F01FF87E000
BE02FF8F8000
BE03FF6F0000
BE03FFBD0000
7E07FFF40000
1E07FFFFE000
000BFEAFFC00
000FFD0BFD00
000FFC07FE00
001FFC07FE00
002FF807FD00
002FF40BFD00
003FF40FFC00
007FF00FF800
007FE01FF400
00BFE02FF400
00FFD03FF000
00FFC03FF000
01FFC03FF000
02FF802FF800
000000055000
ENDCHAR
STARTCHAR L
ENCODING 76
SWIDTH 379 0
DWIDTH 14 0
BBX 24 36 0 -9
BITMAP
00006BF40000
0007FFF00000
007FFFE00000
01F9BFE00000
0BE0BFD00000
1FC0FFC00000
3F41FFC00000
7F01FF800000
BE02FF400000
BE03FF400000
BE03FF000000
7E07FF000000
1A0BFE000000
000BFD000000
000FFD000000
001FFC000000
001FF8000000
002FF8000000
002FF4000000
003FF0000000
007FF0000000
007FE0000000
00BFD0000000
00FFD0000000
00FFC0000000
01FFC0000000
02FFE4000000
01AFFF400000
0001BFE40000
00001FFE0000
000007FFE405
000000BFFFFE
0000002FFFFD
00000007FFFC
00000000BFF8
000000001BE0
ENDCHAR
STARTCHAR M
ENCODING 77
SWIDTH 787 0
DWIDTH 28 0
BBX 27 27 2 0
BITMAP
00006FE0000000
0007FFF8001FFC
002FFFF8003FF8
01FE2FF8007FF8
07F43FF800BFF4
0FD0BFF400FFF4
2F80FFF402FFF0
3F41FFF403FFF0
7F02FFF407FFF0
7F03FFF40FFFE0
7F07FFF41FFFE0
3F0BFFF42FFFD0
1B0FAFF03EFFD0
002F6FF0BDFFC0
003F3FF0FDFFC0
007E3FF1F5FF80
00BD3FF2F1FF80
00FC3FF7E2FF80
01F83FFBC2FF40
02F03FFF83FF40
03E03FFF43FF00
0BD07FFF07FF00
0FC07FFD07FE00
1F807FFC0BFE00
2F407FF80BFE00
3F007FF00BFD00
7D007FE00FFD00
ENDCHAR
STARTCHAR N
ENCODING 78
SWIDTH 668 0
DWIDTH 24 0
BBX 26 27 0 0
BITMAP
0001BFE0000BE0
002FFFF4000FE0
01FFBFF4000FD0
07F87FF8001FC0
0FE0BFFC002FC0
2F80FFFC002F80
7F40FFFD003F40
BF01FFFE007F40
BE02FFFE007F00
BE02FFFF00BE00
BF03FBFF40BE00
7F07F6FF40FD00
1F47F1FF81FC00
010BF0FFC1FC00
000FE0FFC2F800
000FD0BFD2F400
001FD07FE3F400
002FC07FE7F000
002F803FF7E000
003F402FFFE000
007F402FFFD000
007F001FFFD000
00BE000FFFC000
00FE000BFF8000
00FD000BFF8000
01FC0007FF4000
02FC0003FF0000
ENDCHAR
STARTCHAR O
ENCODING 79
SWIDTH 665 0
DWIDTH 24 0
BBX 24 27 0 0
BITMAP
000006BFE800
0001BFFFFF80
001FF955BFE0
00BF80541FF4
02FD0BF80BF8
0BF42FE007FC
1FD0BFC007FD
3F81FF8007FE
7F43FF0007FE
7F0BFE0007FE
7F0FFD0007FE
3F1FFC0007FD
1B2FF8000BFD
003FF4000BFC
007FF0000FFC
00BFE0001FF8
00BFE0002FF4
00FFD0003FF0
00FFD0007FE0
00FFD000FFC0
00FFD001FF80
00FFD003FF00
00BFE00BFD00
00BFF06FF400
003FFFFFD000
001FFFFE0000
0002BFA40000
ENDCHAR
STARTCHAR P
ENCODING 80
SWIDTH 573 0
DWIDTH 21 0
BBX 22 27 0 0
BITMAP
00006BFE4000
0007FFFFF400
006FE557FE00
01FD0000BF40
07F05AD07F80
1FD0FFD02FC0
3F80FFC02FD0
7F01FFC02FD0
BE02FF802FD0
BE02FF403FC0
BE03FF407F80
7E07FF00BF40
1E07FE01FE00
000BFE07F800
000FFD1FE000
000FFEBF4000
001FFFA40000
002FF8000000
002FF4000000
003FF4000000
007FF0000000
007FE0000000
00BFE0000000
00FFD0000000
00FFC0000000
01FFC0000000
02FF80000000
ENDCHAR
STARTCHAR Q
ENCODING 81
SWIDTH 665 0
DWIDTH 24 0
BBX 24 31 0 -4
BITMAP
000006BFE800
0001BFFFFF80
001FF955BFE0
00BF80541FF4
02FD0BF80BF8
0BF02FE007FC
1FD0BFC007FD
3F81FF4007FE
7F43FF0007FE
7F0BFE0007FE
7F0FFC0007FE
3F1FF80007FD
0A2FF8000BFD
003FF4000FFC
007FF0000FFC
00BFE0001FF8
00BFE0002FF4
00FFD0003FF0
00FFD000BFE0
00FFD000FFC0
00FFD002FF80
00FFFFE7FF00
00BFE5FFFD00
00BFF4BFF400
003FFFFFD000
001FFFFFD000
0002BFAFF000
0000000FFD40
0000000BFFE0
00000003FFD0
00000000BE40
ENDCHAR
STARTCHAR R
ENCODING 82
SWIDTH 601 0
DWIDTH 22 0
BBX 21 28 0 -1
BITMAP
00006BFE4000
0006FFFFF800
006FE556FE00
01FE0000BF40
07F45AD03F80
1FD0FFD02FC0
3F80FFC02FC0
7F41FFC03F80
BF02FF807F40
BE02FF40FF00
BE03FF42FD00
7E07FF1BF400
2E07FFFFE000
010BFFFFFC00
000FFD0BFD00
000FFC07FE00
001FFC07FE00
002FF807FD00
002FF40BFD00
003FF40BFC00
007FF00FF800
007FE01FF400
00BFE02FF400
00FFD03FF000
00FFC03FF000
01FFC03FF000
02FF802FF800
000000055000
ENDCHAR
STARTCHAR S
ENCODING 83
SWIDTH 570 0
DWIDTH 21 0
BBX 19 28 1 -1
BITMAP
00006BF900
0002FFFFD0
000BFE5BF0
002FF402F8
007FF002FC
007FE002FC
00BFE003F8
007FF00BF4
007FF80290
002FFD0000
001FFF4000
000BFFD000
0002FFF000
0000BFFC00
00003FFE00
00001FFF40
06FD07FFC0
1FFF02FFD0
3FF901FFD0
7FC000FFD0
BF8000FFD0
BF4000FFD0
BF4001FF80
7F8003FF40
2FE41FFD00
0FFFFFF400
02FFFF8000
0015540000
ENDCHAR
STARTCHAR T
ENCODING 84
SWIDTH 481 0
DWIDTH 17 0
BBX 26 27 0 0
BITMAP
0001AFFA400010
002FFFFFF901A0
01FFFFFFFFFFE0
07FD47FFFFFFD0
1FE00BFFFFFF80
2F800BFE6BFE00
7F400FFE000000
7F001FFD000000
BE001FFC000000
BE002FF8000000
BE003FF8000000
BE003FF4000000
3E007FF0000000
06007FF0000000
0000BFE0000000
0000FFD0000000
0000FFD0000000
0001FFC0000000
0002FF80000000
0002FF80000000
0003FF40000000
0007FF00000000
0007FF00000000
000BFE00000000
000BFD00000000
000FFD00000000
001FFC00000000
ENDCHAR
STARTCHAR U
ENCODING 85
SWIDTH 716 0
DWIDTH 26 0
BBX 28 27 0 0
BITMAP
00006BFD000BFD
000BFFFC000FFC
00BFAFF8001FFC
03F82FF8001FF8
0FE03FF4002FF4
3F803FF0003FF4
BF007FE0003FF0
FE00BFD0007FF0
FD00FFD0007FE0
FD00FFC000BFD0
FD01FF8000FFD0
7E02FF4000FFC0
1A03FF0001FF80
0003FF0002FF80
0007FE0002FF40
000BFD0003FF00
000FFC0007FF00
000FF80007FE00
001FF8000BFD00
001FF4000FFC00
001FF4001FF800
001FF4003FF000
000FF800BFD000
000BFE06FF8000
0007FFFFFE0000
0001FFFFF40000
00001BFE400000
ENDCHAR
STARTCHAR V
ENCODING 86
SWIDTH 615 0
DWIDTH 22 0
BBX 25 27 0 0
BITMAP
00006BF4000F80
0007FFF4001F00
007FBFF4002E00
01F93FF4003D00
0BE03FF4007C00
1FC03FF400B800
3F403FF400F400
7F003FF401F000
BE003FF402E000
BE003FF403D000
BE003FF4078000
7E003FF40B4000
1A003FF40F0000
00002FF41E0000
00002FF42D0000
00002FF83C0000
00002FF8780000
00002FF8B40000
00002FF8F00000
00002FF9D00000
00002FFAC00000
00002FFB800000
00002FFF400000
00002FFF000000
00002FFE000000
00002FFD000000
00002FFC000000
ENDCHAR
STARTCHAR W
ENCODING 87
SWIDTH 962 0
DWIDTH 35 0
BBX 37 27 0 0
BITMAP
00006BF4000FF8000BC0
0007FFF4001FF8000F80
007FBFF4002FF8001F40
01F93FF4003FF8002F00
0BE03FF4007FF8003D00
1FC03FF400BFF8007C00
3F403FF400FFFC00B800
7F003FF401FFFC00F400
BE003FF402FFFC01F000
BE003FF403EFFC02E000
BE003FF407DFFC03D000
7E003FF40B5FFC07C000
1A003FF40F1FFC0B8000
00002FF41E1FFC0F0000
00002FF42D1FFC1E0000
00002FF83C1FFC2D0000
00002FF8781FFC3C0000
00002FF8B41FFC780000
00002FF8F01FFCB40000
00002FF9D01FFCF00000
00002FFAC01FFDE00000
00002FFB801FFED00000
00002FFF400FFF800000
00002FFF000FFF400000
00002FFE000FFF000000
00002FFD000FFE000000
00002FFC000FFD000000
ENDCHAR
STARTCHAR X
ENCODING 88
SWIDTH 620 0
DWIDTH 22 0
BBX 23 27 0 0
BITMAP
00006BF401F4
0007FFF802E0
007FBFF807C0
01F93FFC0F80
0BE02FFD1F00
1FC01FFD3D00
3F401FFEB800
7F000FFFF400
BE000BFFE000
BE000BFFC000
BE0007FF8000
7E0003FF8000
1A0003FFC000
000002FFC000
000002FFD000
000002FFD000
000007FFE000
00000BFFF000
00001FBFF000
00003D7FF400
0000787FF800
0000F43FF800
0002E02FFC00
0007C02FFC00
000B401FFD00
001F001FFE00
003D000FFE00
ENDCHAR
STARTCHAR Y
ENCODING 89
SWIDTH 620 0
DWIDTH 22 0
BBX 25 27 0 0
BITMAP
00006BF40007C0
0007FFF8000F40
007FBFFC001F00
01F92FFC002E00
0BE02FFD003C00
1FC01FFE00B800
3F400FFF00F400
7F000BFF01E000
BE000BFF42D000
BE0007FF83C000
BE0003FF8B4000
7E0002FFCF0000
1A0001FFEE0000
000001FFFD0000
000000FFF80000
000000BFF40000
000000BFF00000
000000FFE00000
000000FFE00000
000001FFD00000
000002FFC00000
000002FFC00000
000003FF800000
000007FF800000
000007FF400000
00000BFF000000
00000FFF000000
ENDCHAR
STARTCHAR Z
ENCODING 90
SWIDTH 542 0
DWIDTH 20 0
BBX 20 27 0 0
BITMAP
002FFFFFFE
00FFFFFFFC
02F9557FF8
03FC00BFF0
02FC01FFE0
01F402FFC0
000007FF80
00000BFF00
00001FFE00
00002FFC00
00007FF800
0000BFF000
0001FFE000
0002FFC000
0007FF8000
000BFF0000
001FFE0000
002FFC0000
007FF80000
00BFF00000
01FFE00000
02FFC007D0
07FF800FF0
0BFF000FF0
1FFE555BE0
3FFFFFFF80
7FFFFFFD00
ENDCHAR
STARTCHAR bracketleft
ENCODING 91
SWIDTH 400 0
DWIDTH 14 0
BBX 15 36 0 -9
BITMAP
0002FFFC
0003FFF8
0007F950
0007F400
000BF000
000FF000
000FE000
001FD000
001FD000
002FC000
003F8000
003F8000
007F4000
00BF4000
00BF0000
00FE0000
00FE0000
01FD0000
02FC0000
02FC0000
03F80000
07F40000
07F40000
0BF00000
0FF00000
0FE00000
1FD00000
1FD00000
2FC00000
3F800000
3F800000
7F400000
BF000000
BF540000
FFFE0000
FFFE0000
ENDCHAR
STARTCHAR backslash
ENCODING 92
SWIDTH 362 0
DWIDTH 13 0
BBX 11 36 1 -9
BITMAP
7D0000
7D0000
3E0000
2F0000
2F0000
1F4000
0F4000
0F8000
0BC000
07C000
07D000
03E000
03E000
02F000
01F400
01F400
00F800
00B800
00BC00
007D00
003D00
003E00
002F00
002F00
001F40
000F80
000F80
000BC0
0007C0
0007D0
0003E0
0002E0
0002F0
0001F4
0001F4
0000F8
ENDCHAR
STARTCHAR bracketright
ENCODING 93
SWIDTH 400 0
DWIDTH 14 0
BBX 15 36 -2 -9
BITMAP
0002FFFC
0003FFF8
000157F8
000007F4
000007F0
00000BF0
00000FE0
00000FE0
00001FD0
00002FC0
00002FC0
00003F80
00007F40
00007F40
0000BF00
0000FF00
0000FE00
0001FD00
0001FD00
0002FC00
0003F800
0003F800
0007F400
000BF400
000BF000
000FE000
001FE000
001FD000
002FC000
002FC000
003F8000
007F4000
007F4000
15BF0000
FFFF0000
FFFE0000
ENDCHAR
STARTCHAR asciicircum
ENCODING 94
SWIDTH 421 0
DWIDTH 15 0
BBX 11 7 2 20
BITMAP
000100
000B80
002FC0
01FFD0
07FAE0
1F40F0
B40074
ENDCHAR
STARTCHAR underscore
ENCODING 95
SWIDTH 444 0
DWIDTH 16 0
BBX 14 3 1 0
BITMAP
3FFFFFD0
7FFFFFD0
BFFFFFC0
ENDCHAR
STARTCHAR grave
ENCODING 96
SWIDTH 201 0
DWIDTH 7 0
BBX 5 7 1 20
BITMAP
FE00
BF00
3F00
2F00
1F40
0F40
0B80
ENDCHAR
STARTCHAR a
ENCODING 97
SWIDTH 526 0
DWIDTH 19 0
BBX 21 18 -1 0
BITMAP
0006FE3FF400
002FFFBFF000
00BFE5FFE000
02FF80BFE000
07FF00BFD000
0BFD00FFC000
1FFC01FFC000
2FF801FF8000
3FF402FF4000
3FF003FF4000
7FF003FF0000
7FF007FF0040
7FF00BFE01C0
7FF00FFE0380
7FF47FFF0B00
3FFFF7FFFD00
1FFFD2FFF400
02FE00BF8000
ENDCHAR
STARTCHAR b
ENCODING 98
SWIDTH 444 0
DWIDTH 16 0
BBX 16 25 -1 0
BITMAP
0016B000
007FF000
00BFE000
00BFD000
00FFD000
01FFC000
01FF8000
02FFAFD0
03FFFFF8
03FF97FC
07FF01FD
07FE00FE
0BFD00FE
0FFD00FE
0FFC00FE
1FF801FD
2FF801FD
2FF402FC
3FF403F8
3FF00BF4
7FF00FE0
3FF47FC0
3FFFFF00
1FFFF800
02FF9000
ENDCHAR
STARTCHAR c
ENCODING 99
SWIDTH 384 0
DWIDTH 14 0
BBX 16 18 -1 0
BITMAP
0002BF80
002FFFE0
00BFE7F0
02FF82F4
07FF02F0
0BFD02D0
1FFC0000
2FF80000
3FF40000
3FF40000
7FF00000
7FF00001
7FF0001D
7FF00078
7FF806E0
2FFFFF80
1FFFFD00
02BF9000
ENDCHAR
STARTCHAR d
ENCODING 100
SWIDTH 525 0
DWIDTH 19 0
BBX 21 25 -1 0
BITMAP
000000016A00
0000000BFD00
0000000FFD00
0000000FFC00
0000001FFC00
0000002FF800
0000002FF400
0006FE3FF400
002FFFBFF000
00BFE5FFE000
02FF80BFE000
07FF00FFD000
0BFD00FFC000
1FFC01FFC000
2FF801FF8000
3FF402FF8000
3FF003FF4000
7FF003FF0000
7FF007FF0040
7FF00BFE01C0
7FF00FFE0380
7FF47FFE0B00
3FFFFBFFFD00
1FFFD2FFF400
02FE00BF8000
ENDCHAR
STARTCHAR e
ENCODING 101
SWIDTH 384 0
DWIDTH 14 0
BBX 16 18 -1 0
BITMAP
0002BF80
002FFFE0
00BFE6F0
02FF82F4
07FF02F0
0BFD03F0
1FFC0BD0
2FF82F80
3FF5BF00
3FFFF800
7FFF9000
7FF00001
7FF0000E
7FF00078
7FF806E0
2FFFFF80
1FFFFD00
02BF9000
ENDCHAR
STARTCHAR f
ENCODING 102
SWIDTH 267 0
DWIDTH 10 0
BBX 22 36 -8 -9
BITMAP
00000006FE00
0000002FFFC0
0000007FFFE0
000000FFE1E0
000001FF80E0
000002FF4050
000003FF0000
000007FF0000
000007FE0000
00000BFFF000
00000FFD0000
00000FFC0000
00001FFC0000
00002FF80000
00002FF40000
00003FF40000
00003FF00000
00007FE00000
0000BFE00000
0000BFD00000
0000FFC00000
0001FFC00000
0001FF800000
0002FF800000
0003FF400000
0003FF000000
0007FF000000
00BFFE000000
0BDBFD000000
2E0FFD000000
780FFC000000
781FF8000000
787FF4000000
7FFFE0000000
2FFF80000000
06F900000000
ENDCHAR
STARTCHAR g
ENCODING 103
SWIDTH 507 0
DWIDTH 18 0
BBX 21 27 -1 -9
BITMAP
0006FE3FF400
002FFFBFF000
00BFE5FFE000
02FF80BFE000
07FF00FFD000
0BFD00FFC000
1FFC01FFC000
2FF801FF8000
3FF402FF4000
3FF003FF4000
7FF003FF0000
7FF007FE0000
7FF00BFE0380
7FF00FFD0700
7FF47FFD0E00
3FFFFFFC7C00
1FFFEFFEF000
02FE2FFF8000
00007FF80000
000BFFF00000
007E7FF00000
00F47FE00000
02E0BFD00000
02D0FFC00000
02E6FF400000
00FFFE000000
002FE4000000
ENDCHAR
STARTCHAR h
ENCODING 104
SWIDTH 505 0
DWIDTH 18 0
BBX 22 25 -2 0
BITMAP
0005AC000000
001FFC000000
002FF8000000
002FF4000000
003FF4000000
003FF0000000
007FE0000000
00BFE2FE0000
00BFEFFF8000
00FFFFFFD000
01FFE0FFD000
01FFC0BFD000
02FF80BFD000
03FF40FFC000
03FF00FFC000
07FE01FF8000
0BFE01FF4000
0BFD02FF4000
0FFD03FF0040
1FFC03FE00D0
1FF807FE02C0
2FF807FF0B40
3FF403FFFE00
3FF001FFF800
7FF0006F9000
ENDCHAR
STARTCHAR i
ENCODING 105
SWIDTH 267 0
DWIDTH 10 0
BBX 12 25 -1 0
BITMAP
001F40
007FD0
00BFE0
00BFE0
007FD0
001F80
000000
02FF80
03FF40
03FF00
07FF00
0BFE00
0BFD00
0FFD00
0FFC00
1FF800
2FF800
2FF400
3FF406
7FF00E
7FF02D
7FFAB8
3FFFF0
2FFF80
07F900
ENDCHAR
STARTCHAR j
ENCODING 106
SWIDTH 240 0
DWIDTH 9 0
BBX 18 34 -8 -9
BITMAP
000000BD00
000002FF40
000003FF80
000003FF80
000002FF40
000000BD00
0000000000
00000BFE00
00000FFD00
00000FFC00
00001FFC00
00001FF800
00002FF800
00003FF400
00003FF000
00007FF000
0000BFE000
0000BFE000
0000FFD000
0001FFC0B0
0001FFC0E0
0002FF81C0
0002FF4740
0003FF5D00
0007FFE400
001FFF4000
01FFFE0000
0BFFFD0000
2F4FFC0000
3D1FF80000
782FF40000
3D7FE00000
2FFFC00000
06F9000000
ENDCHAR
STARTCHAR k
ENCODING 107
SWIDTH 518 0
DWIDTH 19 0
BBX 22 25 -2 0
BITMAP
0006BC000000
001FFC000000
002FF8000000
002FF4000000
003FF4000000
007FF0000000
007FE0000000
00BFE007F400
00BFD01F8000
00FFC0BD0000
01FFC2F40000
01FF9F800000
02FFFFF90000
03FFFFFF0000
03FFFFFF8000
07FF82FFC000
0BFE01FFC000
0BFD01FF8000
0FFD02FF8010
1FFC02FF40B0
1FF803FF41D0
2FF803FF87C0
3FF402FFFF40
3FF001FFFD00
7FF0006FE000
ENDCHAR
STARTCHAR l
ENCODING 108
SWIDTH 267 0
DWIDTH 10 0
BBX 12 25 -1 0
BITMAP
0016B0
007FF0
00BFE0
00BFD0
00FFD0
01FFC0
01FF80
02FF80
02FF40
03FF00
07FF00
07FE00
0BFD00
0FFD00
0FFC00
1FF800
2FF800
2FF400
3FF405
7FF00A
7FF02D
7FFAB8
3FFFF0
2FFF80
07F900
ENDCHAR
STARTCHAR m
ENCODING 109
SWIDTH 752 0
DWIDTH 27 0
BBX 31 18 -2 0
BITMAP
00BFE2FE01BF4000
00FFEFFF87FFE000
00FFFFFFEFFFF000
01FFE4FFF87FF400
02FFC0BFF02FF400
02FF80FFD02FF400
03FF40FFC03FF000
03FF01FFC03FF000
07FE01FF807FE000
0BFE02FF40BFD000
0BFD03FF40BFC000
0FFD03FF00FFC010
1FFC07FF01FF8074
1FF80BFE01FF80B0
2FF80BFD01FFC2D0
3FF40FFD00FFFF80
3FF00FFC00BFFE00
7FF01FF8001FE400
ENDCHAR
STARTCHAR n
ENCODING 110
SWIDTH 505 0
DWIDTH 18 0
BBX 22 18 -2 0
BITMAP
00BFE6FE0000
00FFEFFF8000
00FFFFFFD000
01FFE0FFD000
02FFC0BFD000
02FF80BFD000
03FF40FFC000
03FF00FFC000
07FE01FF8000
0BFE01FF4000
0BFD02FF4000
0FFD03FF0040
1FFC03FE00D0
1FF807FE02C0
2FF807FF0B40
3FF403FFFE00
3FF001FFF800
7FF0006F9000
ENDCHAR
STARTCHAR o
ENCODING 111
SWIDTH 439 0
DWIDTH 16 0
BBX 21 18 -1 0
BITMAP
0002BF800000
001FFFE00000
00BFE6F40000
01FF80F80000
07FF01FC02C0
0BFD03FD6F40
1FFC03FFE400
2FF801FD0000
3FF401F80000
3FF401F80000
7FF002F40000
7FF003F00000
7FF00BE00000
7FF01FC00000
7FF47F400000
2FFFFE000000
1FFFF8000000
02BF90000000
ENDCHAR
STARTCHAR p
ENCODING 112
SWIDTH 468 0
DWIDTH 17 0
BBX 19 28 -3 -9
BITMAP
001FF80000
002FF9BF80
002FFFFFE0
003FFD6FF4
007FF01FF8
007FE00FFC
00BFD00FFC
00FFD00FFC
00FFC00FF8
01FF801FF8
02FF802FF4
02FF403FF4
03FF007FF0
07FF00BFE0
07FE01FFD0
0BFF07FF80
0FFFFFFE00
0FFFFFF800
1FFDBF9000
2FF8000000
2FF4000000
3FF4000000
3FF0000000
7FE0000000
BFE0000000
BFD0000000
FE80000000
5000000000
ENDCHAR
STARTCHAR q
ENCODING 113
SWIDTH 486 0
DWIDTH 18 0
BBX 18 27 -1 -9
BITMAP
0006FE3FF0
002FFFFFF0
00BFE5FFE0
02FF80BFD0
07FF00FFD0
0BFD00FFC0
1FFC01FFC0
2FF801FF80
3FF402FF40
3FF003FF40
7FF003FF00
7FF007FE00
7FF00BFE00
7FF00FFD00
7FF47FFC00
3FFFFFFC00
1FFFEFF800
02FE2FF400
00003FF400
00003FF000
00007FE000
0000BFE000
0000BFD000
0000FFC000
0001FFC000
0001FE4000
0001400000
ENDCHAR
STARTCHAR r
ENCODING 114
SWIDTH 376 0
DWIDTH 14 0
BBX 16 18 -2 0
BITMAP
00BFE1F8
00FFDFFE
00FFFFFF
01FFD0FE
02FF80B8
02FF4000
03FF4000
03FF0000
07FE0000
0BFE0000
0BFD0000
0FFD0000
1FFC0000
1FF80000
2FF80000
3FF40000
3FF00000
7FF00000
ENDCHAR
STARTCHAR s
ENCODING 115
SWIDTH 382 0
DWIDTH 14 0
BBX 16 19 -1 0
BITMAP
0005A900
000FFE00
001FFE00
002FFE00
003FFE00
00BBFE00
00E7FF00
01D7FF00
0287FF00
0743FF00
0F03FF40
2E03FF40
BF43FF45
FE03FF6D
F007FFF4
F41FFF80
BFFFFD00
2FFFF000
06FE4000
ENDCHAR
STARTCHAR t
ENCODING 116
SWIDTH 267 0
DWIDTH 10 0
BBX 12 24 -1 0
BITMAP
000150
00BFE0
00BFD0
00FFD0
01FFC0
01FF80
0FFFF8
03FF40
03FF00
07FF00
0BFE00
0BFD00
0FFD00
1FFC00
1FF800
2FF800
2FF400
3FF006
7FF00E
7FF02D
7FFAB8
3FFFF0
2FFF80
07F900
ENDCHAR
STARTCHAR u
ENCODING 117
SWIDTH 505 0
DWIDTH 18 0
BBX 21 18 -1 0
BITMAP
02FF80BFD000
03FF40FFD000
03FF01FFC000
07FF01FF8000
0BFE02FF8000
0BFD03FF4000
0FFD03FF0000
0FFC07FF0000
1FF807FE0000
2FF80BFD0000
2FF40FFD0000
3FF40FFC0240
7FF02FFC0740
7FF07FFC0E00
7FFAFFFEBD00
3FFFDFFFF800
2FFF47FFE000
07F901FE4000
ENDCHAR
STARTCHAR v
ENCODING 118
SWIDTH 414 0
DWIDTH 15 0
BBX 16 18 -1 0
BITMAP
02FF81F4
03FF43FC
03FF03FD
07FF02FD
0BFE002D
0BFD003C
0FFD003C
0FFC0078
1FFC00B8
2FF800F4
2FF401F0
3FF403D0
7FF00BC0
7FF01F40
7FF07E00
3FFFF800
2FFFE000
06FE4000
ENDCHAR
STARTCHAR w
ENCODING 119
SWIDTH 661 0
DWIDTH 24 0
BBX 25 18 -1 0
BITMAP
02FF80BFD07D00
03FF40FFD0FF00
03FF01FFC1FF40
07FF01FF80BF40
0BFE02FF800F40
0BFD02FF400F00
0FFD03FF401F00
0FFC07FF001E00
1FFC07FE002D00
2FF80BFE003C00
2FF40FFD00B800
3FF40FFC00F400
7FF01FFC02F000
7FF03FF807D000
7FF4BFFC1F8000
3FFFEFFFFE0000
2FFF8BFFF80000
07F902FF900000
ENDCHAR
STARTCHAR x
ENCODING 120
SWIDTH 522 0
DWIDTH 19 0
BBX 20 20 0 0
BITMAP
0000000BC0
0000001FE0
000BF41FF0
007FFD0BF0
01FFFF01F0
03D3FF42E0
0742FF47C0
0E01FF8F40
1C01FFAD00
2800FFF800
3400FFE000
7000BFC000
B001FFC000
A003FFD001
000FBFD007
002D3FE00E
00B83FF47C
02E01FFFF4
0B800BFFD0
2F0002F900
ENDCHAR
STARTCHAR y
ENCODING 121
SWIDTH 486 0
DWIDTH 18 0
BBX 20 27 -1 -9
BITMAP
02FF80BFD0
03FF40FFD0
03FF01FFC0
07FF01FF80
0BFE02FF80
0BFD03FF40
0FFD03FF00
0FFC07FF00
1FF80BFE00
2FF80BFD00
2FF40FFD00
3FF41FFC06
7FF02FF80E
7FF07FF81D
7FFAFFF438
3FFFFFF5F0
2FFFBFFB80
07F97FFD00
0006FFE000
002FFFD000
01F8FFC000
03D1FFC000
0782FF8000
0787FF4000
07FFFE0000
02FFF80000
007F900000
ENDCHAR
STARTCHAR z
ENCODING 122
SWIDTH 428 0
DWIDTH 15 0
BBX 15 18 0 0
BITMAP
00BFFFFC
03FFFFF8
0BE57FF0
0FE0BFD0
0FD1FFC0
0142FF40
0007FE00
000FFD00
001FF800
003FF000
00BFD000
01FFC000
02FF4000
07FE07E0
0FFD0BF0
2FFD57E0
3FFFFFC0
BFFFFE00
ENDCHAR
STARTCHAR braceleft
ENCODING 123
SWIDTH 352 0
DWIDTH 13 0
BBX 14 36 1 -9
BITMAP
00006FD0
0002FFD0
0007FD40
000FF000
001FE000
002FD000
002FC000
003FC000
003FC000
007F8000
007F8000
007F8000
007F4000
007F4000
00BF4000
00BF0000
02FD0000
3FE40000
7FE00000
17F40000
02F80000
03F80000
03F80000
07F40000
0BF00000
0FF00000
1FE00000
1FD00000
2FD00000
3FC00000
7FC00000
7FC00000
7FC00000
3FE00000
1FF80000
06FC0000
ENDCHAR
STARTCHAR bar
ENCODING 124
SWIDTH 532 0
DWIDTH 19 0
BBX 4 36 8 -9
BITMAP
FD
FD
FD
FD
FD
FD
FD
FD
FD
FD
FD
FD
FD
FD
FD
FD
FD
FD
FD
FD
FD
FD
FD
FD
FD
FD
FD
FD
FD
FD
FD
FD
FD
FD
FD
FD
ENDCHAR
STARTCHAR braceright
ENCODING 125
SWIDTH 352 0
DWIDTH 13 0
BBX 14 36 -3 -9
BITMAP
0003F900
0003FF40
0000BFC0
00003FD0
00003FD0
00003FD0
00003FC0
00003F80
00007F80
0000BF40
0000BF00
0000FE00
0001FD00
0002FC00
0002FC00
0002FC00
0001FD40
00007FD0
0000BFC0
0007F800
000FF000
000FE000
001FD000
001FD000
001FD000
002FD000
002FD000
002FC000
003FC000
003FC000
007F8000
00BF4000
00FF0000
17FD0000
3FF80000
7F900000
ENDCHAR
STARTCHAR asciitilde
ENCODING 126
SWIDTH 431 0
DWIDTH 16 0
BBX 14 4 2 20
BITMAP
06FE9010
2FFFFFE0
AAFFFF80
001BF900
ENDCHAR
STARTCHAR uni00A0
ENCODING 160
SWIDTH 217 0
DWIDTH 8 0
BBX 1 1 0 0
BITMAP
00
ENDCHAR
STARTCHAR exclamdown
ENCODING 161
SWIDTH 219 0
DWIDTH 8 0
BBX 11 28 -2 -10
BITMAP
000B90
003FF0
007FF4
007FF4
003FF0
001B90
000000
000000
000000
007F00
007E00
00BE00
00FD00
01FD00
02FC00
03FC00
07FC00
07F800
0BF800
0FF400
1FF400
2FF000
3FF000
3FE000
7FE000
BFD000
FF9000
500000
ENDCHAR
STARTCHAR cent
ENCODING 162
SWIDTH 384 0
DWIDTH 14 0
BBX 15 27 0 -2
BITMAP
00000E00
00001D00
00002D00
00003C00
0002FF90
002FFFF4
00BFF5FC
02FDB1FC
0BF4F1FC
1FF1E2F4
2FD1D040
3FC2C000
7F83C000
BF838000
BF874000
BF8B4000
BF8F0000
7FDE0100
3FFE0B40
1FFFFF00
07FFFE00
01BFE400
00780000
00740000
00B00000
00F00000
00500000
ENDCHAR
STARTCHAR sterling
ENCODING 163
SWIDTH 455 0
DWIDTH 16 0
BBX 19 27 0 0
BITMAP
000002BE40
00002FFFE0
0000BFD7F4
0001FF43F8
0003FE07F4
0007FD0BF0
000BFC0280
000FFC0000
001FF80000
001FF40000
002FF40000
057FF55400
1FFFFFFC00
2FFFFFF800
007FD00000
00BFC00000
00FFC00000
00FF800000
01FF400000
02FF400000
02FE000000
03F8000050
07FFF901E0
0FFFFFFFE0
2FFFFFFFD0
7FFFFFFF80
64016BF900
ENDCHAR
STARTCHAR currency
ENCODING 164
SWIDTH 500 0
DWIDTH 18 0
BBX 14 13 2 6
BITMAP
24000180
7D6F97D0
2FFFFF80
0BE57F00
0F400F40
1E000780
2E000780
1E000780
1F000F40
0BD07F00
1FFFFF40
7D7FE7D0
24000180
ENDCHAR
STARTCHAR yen
ENCODING 165
SWIDTH 558 0
DWIDTH 20 0
BBX 18 27 3 0
BITMAP
3FFC0003D0
2FFC0007C0
2FFD000B80
1FFE000F40
0FFE002E00
0BFF003D00
0BFF407C00
07FF80B400
03FF80F000
02FFC2E000
02FFD3C000
01FFE78000
00FFEB4000
00BFFE0000
00BFFD0000
007FFC0000
2ABFFEA900
3FFFFFFC00
00BFF00000
00FFF00000
BFFFFFF400
BFFFFFF000
16FFD54000
02FFC00000
03FF800000
03FF800000
07FF400000
ENDCHAR
STARTCHAR brokenbar
ENCODING 166
SWIDTH 532 0
DWIDTH 19 0
BBX 4 36 8 -9
BITMAP
FD
FD
FD
FD
FD
FD
FD
FD
FD
FD
FD
FD
FD
FD
FD
FD
00
00
00
FD
FD
FD
FD
FD
FD
FD
FD
FD
FD
FD
FD
FD
FD
FD
FD
FD
ENDCHAR
STARTCHAR section
ENCODING 167
SWIDTH 542 0
DWIDTH 20 0
BBX 19 28 0 -1
BITMAP
000006BF90
00002F95F4
0000FF00B8
0002FD00BC
0007FC00F8
0007FC01E0
0007FD0000
0007FF4000
003FFFD000
00FCFFF400
02FC3FFE00
03FD0BFF80
03FF42FFD0
02FFD07FF0
01FFF42FF0
007FFD0FF4
001FFF4BF0
0007FFCBF0
0001FFDBE0
0B90BFEFC0
2FF43FFE00
7F802FF400
BF002FF000
BE002FE000
BE002FD000
7F407F8000
2FFBFE0000
06BFA00000
ENDCHAR
STARTCHAR dieresis
ENCODING 168
SWIDTH 392 0
DWIDTH 14 0
BBX 11 4 2 20
BITMAP
7E02E4
FF47F8
FF47F8
7E02E4
ENDCHAR
STARTCHAR copyright
ENCODING 169
SWIDTH 587 0
DWIDTH 21 0
BBX 18 18 2 3
BITMAP
001BF90000
01FFFFD000
07E402F800
1F4BF92D00
3C3FFF4F00
74B907C780
B1F00282C0
E1E00001C0
E2E00001D0
E1E00001D0
E0F40101C0
B0BD0BC2C0
742FFF4780
3C0BF90F00
1F40002D00
07E402F800
01FFFFD000
001BF90000
ENDCHAR
STARTCHAR ordfeminine
ENCODING 170
SWIDTH 345 0
DWIDTH 12 0
BBX 11 9 1 16
BITMAP
01BEF4
0BD3F0
1F43F0
3E07E0
3E0BD0
7D0FC0
7E1FC0
7FEFF0
2F87D0
ENDCHAR
STARTCHAR guillemotleft
ENCODING 171
SWIDTH 589 0
DWIDTH 21 0
BBX 19 11 1 4
BITMAP
00006C0074
0006F807F4
006F807F40
06F807F400
6F807F4000
F802F40000
FD01F90000
1FD02F9000
02FD06F900
002FC07F40
0006800740
ENDCHAR
STARTCHAR logicalnot
ENCODING 172
SWIDTH 444 0
DWIDTH 16 0
BBX 15 9 0 2
BITMAP
2FFFFFF4
3FFFFFF0
7FFFFFF0
00001FE0
00002FD0
00002FD0
00003FC0
00007FC0
00007F80
ENDCHAR
STARTCHAR uni00AD
ENCODING 173
SWIDTH 290 0
DWIDTH 10 0
BBX 9 3 0 8
BITMAP
2FFF40
3FFF40
7FFF00
ENDCHAR
STARTCHAR registered
ENCODING 174
SWIDTH 553 0
DWIDTH 20 0
BBX 18 18 1 3
BITMAP
001BFE4000
00BFFFE000
03E401B800
0F40002E00
2D2FF90B40
382D5B82C0
742C02C1D0
B02C0780E0
B02FFE00E0
B02D6D00E0
B02C0E00E0
742C0741D0
382C0382C0
2D18018B40
0B40002E00
03E401B800
00BFFFE000
001BFE4000
ENDCHAR
STARTCHAR macron
ENCODING 175
SWIDTH 446 0
DWIDTH 16 0
BBX 13 3 2 21
BITMAP
05555500
3FFFFF40
7FFFFF40
ENDCHAR
STARTCHAR degree
ENCODING 176
SWIDTH 314 0
DWIDTH 11 0
BBX 9 11 1 13
BITMAP
01BE00
07D780
1F43C0
3E03C0
7D03C0
7C07C0
BC0780
BC0B40
BC0E00
7D2C00
2FE000
ENDCHAR
STARTCHAR plusminus
ENCODING 177
SWIDTH 479 0
DWIDTH 17 0
BBX 15 18 1 4
BITMAP
0000A400
0001F800
0001F400
0002F000
0003F000
1AABFAA8
2FFFFFF8
2FFFFFF8
000FC000
000F8000
001F8000
002F4000
002F0000
00150000
00000000
BFFFFF80
FFFFFF80
FFFFFF80
ENDCHAR
STARTCHAR uni00B2
ENCODING 178
SWIDTH 328 0
DWIDTH 12 0
BBX 10 15 2 12
BITMAP
02FE00
1E1FC0
2D0FD0
3E0FD0
1E0FD0
001F80
003F00
00B800
02E000
0B8000
2E0000
780000
FF9580
FFFF80
95BE00
ENDCHAR
STARTCHAR uni00B3
ENCODING 179
SWIDTH 336 0
DWIDTH 12 0
BBX 11 16 1 11
BITMAP
006F80
02D2F4
07C1F8
07D1F8
02E2F4
0007E0
002E40
001F80
0507F0
1F43F4
3E03F4
7D03F4
3D07F0
2E1FC0
0BFE00
005000
ENDCHAR
STARTCHAR acute
ENCODING 180
SWIDTH 316 0
DWIDTH 11 0
BBX 7 7 4 20
BITMAP
01A4
03F8
07E0
0FC0
1F40
3D00
7800
ENDCHAR
STARTCHAR uni00B5
ENCODING 181
SWIDTH 505 0
DWIDTH 18 0
BBX 23 24 -3 -6
BITMAP
002FF80BFD00
003FF40FFD00
003FF01FFC00
007FF01FF800
00BFE02FF800
00BFD02FF400
00FFD03FF400
00FFC07FF000
01FFC07FE000
02FF80BFE000
02FF40FFD000
03FF40FFC010
07FF01FFC034
07FF03FF80B0
0BFF4BFFC1D0
0FFFFEFFFF80
0FFFF8BFFE00
1FFF902FE400
1FF800000000
2FF400000000
3FF400000000
3FF000000000
7FE000000000
640000000000
ENDCHAR
STARTCHAR paragraph
ENCODING 182
SWIDTH 542 0
DWIDTH 20 0
BBX 17 29 2 -2
BITMAP
000AFE8000
007FFFF400
02FFFFFD00
0BFFFF3F00
1FFFFF3F00
2FFFFE3F40
3FFFFD3F40
7FFFFD7F00
7FFFFCBF00
7FFFF8BE00
7FFFF8FD00
3FFFF5FD00
2FFFF1FC00
0FFFF2F800
07FFFFF800
00BFFBF400
000FD7F000
001FC7F000
002FCBE000
002F8FD000
003F4FD000
007F5FC000
007F2F8000
00BE2F8000
00BE3F4000
00FD7F0000
01FC7F0000
01FCBE0000
02F8FE0000
ENDCHAR
STARTCHAR periodcentered
ENCODING 183
SWIDTH 434 0
DWIDTH 16 0
BBX 8 7 4 6
BITMAP
0BE0
3FF8
BFFC
BFFD
BFFC
3FF8
1BE0
ENDCHAR
STARTCHAR cedilla
ENCODING 184
SWIDTH 227 0
DWIDTH 8 0
BBX 9 9 0 -8
BITMAP
01D000
028000
074000
0BB900
0FFF40
047F40
503F40
7FFE00
1BE400
ENDCHAR
STARTCHAR uni00B9
ENCODING 185
SWIDTH 229 0
DWIDTH 8 0
BBX 7 16 1 11
BITMAP
0004
01B8
7FF4
3FF4
03F0
07F0
07E0
0BD0
0FD0
0FC0
1F80
1F80
2F40
3F00
3F00
6900
ENDCHAR
STARTCHAR ordmasculine
ENCODING 186
SWIDTH 329 0
DWIDTH 12 0
BBX 10 10 1 16
BITMAP
01BE00
0BD7A0
1F4BC0
3E0740
7E0740
7D0700
7D0A00
7E1D00
7FF800
1FE000
ENDCHAR
STARTCHAR guillemotright
ENCODING 187
SWIDTH 586 0
DWIDTH 21 0
BBX 20 11 0 4
BITMAP
0380038000
03F407F400
00BE00BE00
001FD01FD0
0002FD02FD
00002E002E
0001BE01BE
001FE41FE4
06FE06FE00
3F903F9000
7800780000
ENDCHAR
STARTCHAR onequarter
ENCODING 188
SWIDTH 749 0
DWIDTH 27 0
BBX 26 27 1 0
BITMAP
000400001F4000
01B800003E0000
7FF400007C0000
3FF40000F80000
03F00002F00000
07F00003D00000
07E0000BC00000
0BD0001F400000
0FD0002E000000
0FC0007D000000
1F8000F8000000
1F8001F0000000
2F4003E01F0690
3F000BC01F8BD0
3F000F401F8FC0
69002F001F5FC0
00007D002F1F80
0000B8003E2F40
0001F4007C3F40
0003E000B03F00
0007C001FFFFC0
000F8001AAFE80
002F000000BD00
003D000000FC00
00BC000000FC00
01F4000001F800
02E0000002F800
ENDCHAR
STARTCHAR onehalf
ENCODING 189
SWIDTH 745 0
DWIDTH 27 0
BBX 26 27 1 0
BITMAP
000400001F4000
01B800003E0000
7FF400007C0000
3FF40000F80000
03F00002F00000
07F00003D00000
07E0000BC00000
0BD0001F400000
0FD0002E000000
0FC0007D000000
1F8000F8000000
1F8001F0000000
2F4003E002FE00
3F000BC01E1FC0
3F000F402D0FD0
69002F003E0FD0
00007D001E0FD0
0000B800001F80
0001F400003E00
0003E00000B800
0007C00002E000
000F80000B4000
002F00002D0000
003D0000780040
00BC0000FFFF80
01F40000FFFF80
02E0000095BE00
ENDCHAR
STARTCHAR threequarters
ENCODING 190
SWIDTH 836 0
DWIDTH 30 0
BBX 29 27 1 0
BITMAP
006F8000007D0000
02D2F40000B80000
07C1F80001F40000
07D1F80003E00000
02E2F40007C00000
0007E0000F800000
002E40002F000000
001F80003D000000
0507F000BC000000
1F43F401F4000000
3E03F402E0000000
7D03F407D0000000
3D07F00F807D1640
2E1FC01F003E2F40
0BFE003E003E3F40
005000BC007E3F00
000000F4007D7E00
000002F000B8BE00
000007D001F0BD00
00000B8002D0FC00
00001F4007FFFF40
00003E0006AAFE00
00007C000002F800
0000F8000002F400
0002F0000003F000
0003D0000007F000
000BC0000007E000
ENDCHAR
STARTCHAR questiondown
ENCODING 191
SWIDTH 439 0
DWIDTH 16 0
BBX 15 27 -1 -9
BITMAP
00000B90
00003FF0
00007FF4
00007FF4
00003FF0
00000B90
00000000
00000000
00000600
00000F40
00001F00
00002E00
00007D00
0001F800
000BE000
002F8000
01FF0000
07FD0000
1FF41B90
2FF02FF0
7FE00BF4
7FE007F4
7FE007F0
7FF00BE0
2FF96F80
0FFFFE00
01BFA400
ENDCHAR
STARTCHAR Agrave
ENCODING 192
SWIDTH 668 0
DWIDTH 24 0
BBX 25 40 0 -4
BITMAP
000000001FD000
000000000FE000
000000000BE000
0000000007E000
0000000003F000
0000000003F000
0000000002F400
00000000000000
00000000000000
0000000001BF80
000000001FFF80
00000000BFFF40
00000002F7FF40
0000000BD3FF00
0000002F47FF00
0000007E0BFE00
000000FC0BFD00
000002F40FFD00
00000BE00FFC00
00001FD01FF800
01BFFFD42FF800
1FFFFFFFBFF400
3FD4FE16FFF000
BF41FD007FF000
BF43FC007FE000
7F4BF800BFE000
040FF000FFD000
001FE000FFC000
003FD001FFC000
007FC002FF8000
00BF8002FF4000
00FF4003FF4000
01FF4003FF0000
02FF0007FE0000
02FE000BFE0000
03FE000BFD0000
03FD0000000000
02FD0000000000
01FD0000000000
006E0000000000
ENDCHAR
STARTCHAR Aacute
ENCODING 193
SWIDTH 668 0
DWIDTH 24 0
BBX 28 40 0 -4
BITMAP
000000000000A9
000000000002FC
000000000003F4
000000000007E0
00000000000FD0
00000000001F80
00000000003F00
00000000002900
00000000000000
0000000001BF80
000000001FFF80
00000000BFFF40
00000002F7FF40
0000000BD3FF00
0000002F47FF00
0000007E0BFE00
000000FC0BFD00
000002F40FFD00
00000BE00FFC00
00001FD01FF800
01BFFFD42FF800
1FFFFFFFBFF400
3FD4FE16FFF000
BF41FD007FF000
BF43FC007FE000
7F4BF800BFE000
040FF000FFD000
001FE000FFC000
003FD001FFC000
007FC002FF8000
00BF8002FF4000
00FF4003FF4000
01FF4003FF0000
02FF0007FE0000
02FE000BFE0000
03FE000BFD0000
03FD0000000000
02FD0000000000
01FD0000000000
006E0000000000
ENDCHAR
STARTCHAR Acircumflex
ENCODING 194
SWIDTH 668 0
DWIDTH 24 0
BBX 28 40 0 -4
BITMAP
00000000000050
000000000001E0
00000000000BF0
00000000002FF4
0000000000BFF8
0000000002F47C
000000000F401D
00000000140005
00000000000000
0000000001BF80
000000001FFF80
00000000BFFF40
00000002F7FF40
0000000BD3FF00
0000002F47FF00
0000007E0BFE00
000000FC0BFD00
000002F40FFD00
00000BE00FFC00
00001FD01FF800
01BFFFD42FF800
1FFFFFFFBFF400
3FD4FE16FFF000
BF41FD007FF000
BF43FC007FE000
7F4BF800BFE000
040FF000FFD000
001FE000FFC000
003FD001FFC000
007FC002FF8000
00BF8002FF4000
00FF4003FF4000
01FF4003FF0000
02FF0007FE0000
02FE000BFE0000
03FE000BFD0000
03FD0000000000
02FD0000000000
01FD0000000000
006E0000000000
ENDCHAR
STARTCHAR Atilde
ENCODING 195
SWIDTH 668 0
DWIDTH 24 0
BBX 29 37 0 -4
BITMAP
000000001BF90040
00000000BFFFEA80
00000002ABFFFE00
00000000006FE400
0000000000000000
0000000000000000
0000000001BF8000
000000001FFF8000
00000000BFFF4000
00000002F7FF4000
0000000BD3FF0000
0000002F47FF0000
0000007E0BFE0000
000000FC0BFD0000
000002F40FFD0000
00000BE00FFC0000
00001FD01FF80000
01BFFFD42FF80000
1FFFFFFFBFF40000
3FD4FE16FFF00000
BF41FD007FF00000
BF43FC007FE00000
7F4BF800BFE00000
040FF000FFD00000
001FE000FFC00000
003FD001FFC00000
007FC002FF800000
00BF8002FF400000
00FF4003FF400000
01FF4003FF000000
02FF0007FE000000
02FE000BFE000000
03FE000BFD000000
03FD000000000000
02FD000000000000
01FD000000000000
006E000000000000
ENDCHAR
STARTCHAR Adieresis
ENCODING 196
SWIDTH 668 0
DWIDTH 24 0
BBX 27 37 0 -4
BITMAP
000000002E01F4
00000000BF83FC
00000000BF83FC
000000002E01F4
00000000000000
00000000000000
0000000001BF80
000000001FFF80
00000000BFFF40
00000002F7FF40
0000000BD3FF00
0000002F47FF00
0000007E0BFE00
000000FC0BFD00
000002F40FFD00
00000BE00FFC00
00001FD01FF800
01BFFFD42FF800
1FFFFFFFBFF400
3FD4FE16FFF000
BF41FD007FF000
BF43FC007FE000
7F4BF800BFE000
040FF000FFD000
001FE000FFC000
003FD001FFC000
007FC002FF8000
00BF8002FF4000
00FF4003FF4000
01FF4003FF0000
02FF0007FE0000
02FE000BFE0000
03FE000BFD0000
03FD0000000000
02FD0000000000
01FD0000000000
006E0000000000
ENDCHAR
STARTCHAR Aring
ENCODING 197
SWIDTH 668 0
DWIDTH 24 0
BBX 25 38 0 -4
BITMAP
0000000000BE00
0000000001D340
00000000028280
00000000038280
00000000028740
0000000000BD00
00000000000000
0000000001BF80
000000001FFF80
00000000BFFF40
00000002F7FF40
0000000BD3FF00
0000002F47FF00
0000007E0BFE00
000000FC0BFD00
000002F40FFD00
00000BE00FFC00
00001FD01FF800
01BFFFD42FF800
1FFFFFFFBFF400
3FD4FE16FFF000
BF41FD007FF000
BF43FC007FE000
7F4BF800BFE000
040FF000FFD000
001FE000FFC000
003FD001FFC000
007FC002FF8000
00BF8002FF4000
00FF4003FF4000
01FF4003FF0000
02FF0007FE0000
02FE000BFE0000
03FE000BFD0000
03FD0000000000
02FD0000000000
01FD0000000000
006E0000000000
ENDCHAR
STARTCHAR AE
ENCODING 198
SWIDTH 764 0
DWIDTH 28 0
BBX 33 31 0 -4
BITMAP
0000000001BF940640
000000001FFFFFFF40
00000000BFFFFFFE00
00000002F7FF5BF800
0000000BD3FF000000
0000002F47FF000000
0000007E0BFE000000
000001FC0BFD000000
000003F40FFD000000
00000BE01FFC000000
00001FC01FF8000000
01BFFFE42FF8000000
1FFFFFFFBFFFFF0000
7FD0FE06FFFFFE0000
BF42FD007FFAA90000
BF83FC007FE0000000
2E4BF400BFD0000000
000FF000FFD0000000
001FE000FFC0000000
003FD001FF80000000
007FC002FF80000000
00BF8002FF40000000
00FF4003FF00000000
01FF4007FFFFFF0000
02FF0007FFFFFE0000
02FE000BFFFFFE0000
03FE000BFFFFFD0000
03FD00000000000000
02FD00000000000000
01FD00000000000000
006E00000000000000
ENDCHAR
STARTCHAR Ccedilla
ENCODING 199
SWIDTH 497 0
DWIDTH 18 0
BBX 20 35 0 -8
BITMAP
00001BFE40
0001BFFFE0
0007FF96F8
001FFE00BC
003FF800BD
00BFF000FD
01FFD001FC
02FFC003F8
07FF800050
0BFF400000
0FFF000000
1FFE000000
2FFD000000
2FFC000000
3FFC000000
3FFC000000
7FF8000000
7FF8000000
7FF8000000
7FF8000000
7FF8000004
3FFC000038
3FFE0001F0
2FFF901BD0
1FFFFFFF40
07FFFFFD00
01FFFFD000
0015E50000
0001D00000
0002EA4000
0003FFC000
00011FC000
00000F8000
002E1F4000
001FF90000
ENDCHAR
STARTCHAR Egrave
ENCODING 200
SWIDTH 459 0
DWIDTH 17 0
BBX 18 37 0 -1
BITMAP
00002FC000
00001FC000
00000FD000
00000FD000
00000BE000
000007E000
000003E000
0000000000
0000000000
00001BF900
0000BFFF80
0003FE5BD0
000BF807E0
001FF003E0
003FE007E0
003FD00BD0
007FD01F80
007FD00500
003FE00000
002FF40000
000FFD0000
000BFE4000
00BFF40000
02FFD00000
0BFF400000
1FFE000000
3FFD000000
7FFC000000
BFF8000000
BFF8000000
BFF8000090
BFF8000280
7FFD001E00
3FFFAAF800
1FFFFFE000
06FFFE0000
0055500000
ENDCHAR
STARTCHAR Eacute
ENCODING 201
SWIDTH 459 0
DWIDTH 17 0
BBX 19 37 0 -1
BITMAP
00000001A4
00000007F4
0000000FE0
0000001FC0
0000003F40
0000007E00
000000FC00
0000000000
0000000000
00001BF900
0000BFFF80
0003FE5BD0
000BF807E0
001FF003E0
003FE007E0
003FD00BD0
007FD01F80
007FD00500
003FE00000
002FF40000
000FFD0000
000BFE4000
00BFF40000
02FFD00000
0BFF400000
1FFE000000
3FFD000000
7FFC000000
BFF8000000
BFF8000000
BFF8000090
BFF8000280
7FFD001E00
3FFFAAF800
1FFFFFE000
06FFFE0000
0055500000
ENDCHAR
STARTCHAR Ecircumflex
ENCODING 202
SWIDTH 459 0
DWIDTH 17 0
BBX 18 37 0 -1
BITMAP
0000000500
0000001F00
0000007F40
000002FF80
00000BE7C0
00003E42D0
0001E400A0
0000000000
0000000000
00001BF900
0000BFFF80
0003FE5BD0
000BF807E0
001FF003E0
003FE007E0
003FD00BD0
007FD01F80
007FD00500
003FE00000
002FF40000
000FFD0000
000BFE4000
00BFF40000
02FFD00000
0BFF400000
1FFE000000
3FFD000000
7FFC000000
BFF8000000
BFF8000000
BFF8000090
BFF8000280
7FFD001E00
3FFFAAF800
1FFFFFE000
06FFFE0000
0055500000
ENDCHAR
STARTCHAR Edieresis
ENCODING 203
SWIDTH 459 0
DWIDTH 17 0
BBX 20 34 0 -1
BITMAP
00002E41F8
00007F83FD
00007FC3FD
00002F41F8
0000000000
0000000000
00001BF900
0000BFFF80
0003FE5BD0
000BF807E0
001FF003E0
003FE007E0
003FD00BD0
007FD01F80
007FD00500
003FE00000
002FF40000
000FFD0000
000BFE4000
00BFF40000
02FFD00000
0BFF400000
1FFE000000
3FFD000000
7FFC000000
BFF8000000
BFF8000000
BFF8000090
BFF8000280
7FFD001E00
3FFFAAF800
1FFFFFE000
06FFFE0000
0055500000
ENDCHAR
STARTCHAR Igrave
ENCODING 204
SWIDTH 375 0
DWIDTH 14 0
BBX 15 36 0 0
BITMAP
0000FE00
0000BE00
0000BF00
00007F00
00003F40
00002F40
00001F40
00000000
00000000
00006BF4
0007FFF0
007FFFE0
01F9BFE0
0BE0BFD0
1FC0FFC0
3F41FFC0
7F01FF80
BE02FF80
BE03FF40
BE03FF00
7E07FF00
1A0BFE00
000BFD00
000FFD00
000FFC00
001FF800
002FF800
002FF400
003FF000
007FF000
007FE000
00BFE000
00FFD000
00FFC000
01FFC000
02FF8000
ENDCHAR
STARTCHAR Iacute
ENCODING 205
SWIDTH 375 0
DWIDTH 14 0
BBX 18 36 0 0
BITMAP
0000000A90
0000002FC0
0000003F40
000000BE00
000000FC00
000002F800
000003F000
0000069000
0000000000
00006BF400
0007FFF000
007FFFE000
01F9BFE000
0BE0BFD000
1FC0FFC000
3F41FFC000
7F01FF8000
BE02FF8000
BE03FF4000
BE03FF0000
7E07FF0000
1A0BFE0000
000BFD0000
000FFD0000
000FFC0000
001FF80000
002FF80000
002FF40000
003FF00000
007FF00000
007FE00000
00BFE00000
00FFD00000
00FFC00000
01FFC00000
02FF800000
ENDCHAR
STARTCHAR Icircumflex
ENCODING 206
SWIDTH 375 0
DWIDTH 14 0
BBX 17 36 0 0
BITMAP
0000001400
0000007800
000001FC00
00000BFD00
00002FEE00
0000BE0F00
0002E00740
0005000140
0000000000
00006BF400
0007FFF000
007FFFE000
01F9BFE000
0BE0BFD000
1FC0FFC000
3F41FFC000
7F01FF8000
BE02FF8000
BE03FF4000
BE03FF0000
7E07FF0000
1A0BFE0000
000BFD0000
000FFD0000
000FFC0000
001FF80000
002FF80000
002FF40000
003FF00000
007FF00000
007FE00000
00BFE00000
00FFD00000
00FFC00000
01FFC00000
02FF800000
ENDCHAR
STARTCHAR Idieresis
ENCODING 207
SWIDTH 375 0
DWIDTH 14 0
BBX 18 33 0 0
BITMAP
0001F40B80
0003FC2FD0
0003FC2FD0
0001F40B80
0000000000
0000000000
00006BF400
0007FFF000
007FFFE000
01F9BFE000
0BE0BFD000
1FC0FFC000
3F41FFC000
7F01FF8000
BE02FF8000
BE03FF4000
BE03FF0000
7E07FF0000
1A0BFE0000
000BFD0000
000FFD0000
000FFC0000
001FF80000
002FF80000
002FF40000
003FF00000
007FF00000
007FE00000
00BFE00000
00FFD00000
00FFC00000
01FFC00000
02FF800000
ENDCHAR
STARTCHAR Eth
ENCODING 208
SWIDTH 663 0
DWIDTH 24 0
BBX 24 28 0 -1
BITMAP
00006BFE9000
0006FFFFFD00
002FE556FF80
01FE00007FD0
07F45A901FF0
1FD0FFD00FF8
2F80FFC00FF8
7F41FFC00BFC
BF01FF800BFC
BE02FF400BFD
BE03FF400FFD
BE03FF000FFC
3E07FF500FFC
053FFFF40FFC
007FFFF01FF8
000FFC001FF8
001FFC002FF4
002FF8003FF0
002FF4007FE0
003FF400BFD0
007FF000FFC0
007FE002FF80
00BFE007FF00
00FFD01FFD00
00FFFABFF800
01FFFFFFE000
02FF9BFF4000
000001540000
ENDCHAR
STARTCHAR Ntilde
ENCODING 209
SWIDTH 686 0
DWIDTH 25 0
BBX 26 33 0 0
BITMAP
0000000AFE4050
0000007FFFFF80
000001ABFFFE00
000001001AA000
00000000000000
00000000000000
0001BFE0000BE0
002FFFF4000FE0
01FFBFF4000FD0
07F87FF8001FC0
0FE0BFFC002FC0
2F80FFFC002F80
7F40FFFD003F40
BF01FFFE007F40
BE02FFFE007F00
BE02FFFF00BE00
BF03FBFF40BE00
7F07F6FF40FD00
1F47F1FF81FC00
010BF0FFC1FC00
000FE0FFC2F800
000FD0BFD2F400
001FD07FE3F400
002FC07FE7F000
002F803FF7E000
003F402FFFE000
007F402FFFD000
007F001FFFD000
00BE000FFFC000
00FE000BFF8000
00FD000BFF8000
01FC0007FF4000
02FC0003FF0000
ENDCHAR
STARTCHAR Ograve
ENCODING 210
SWIDTH 665 0
DWIDTH 24 0
BBX 24 36 0 0
BITMAP
000003F80000
000002FC0000
000001FC0000
000000FD0000
000000BD0000
0000007D0000
0000003E0000
000000000000
000000000000
000006BFE800
0001BFFFFF80
001FF955BFE0
00BF80541FF4
02FD0BF80BF8
0BF42FE007FC
1FD0BFC007FD
3F81FF8007FE
7F43FF0007FE
7F0BFE0007FE
7F0FFD0007FE
3F1FFC0007FD
1B2FF8000BFD
003FF4000BFC
007FF0000FFC
00BFE0001FF8
00BFE0002FF4
00FFD0003FF0
00FFD0007FE0
00FFD000FFC0
00FFD001FF80
00FFD003FF00
00BFE00BFD00
00BFF06FF400
003FFFFFD000
001FFFFE0000
0002BFA40000
ENDCHAR
STARTCHAR Oacute
ENCODING 211
SWIDTH 665 0
DWIDTH 24 0
BBX 24 36 0 0
BITMAP
000000001A80
000000003F80
000000007F00
00000000FD00
00000001F800
00000003F000
00000007D000
000000000000
000000000000
000006BFE800
0001BFFFFF80
001FF955BFE0
00BF80541FF4
02FD0BF80BF8
0BF42FE007FC
1FD0BFC007FD
3F81FF8007FE
7F43FF0007FE
7F0BFE0007FE
7F0FFD0007FE
3F1FFC0007FD
1B2FF8000BFD
003FF4000BFC
007FF0000FFC
00BFE0001FF8
00BFE0002FF4
00FFD0003FF0
00FFD0007FE0
00FFD000FFC0
00FFD001FF80
00FFD003FF00
00BFE00BFD00
00BFF06FF400
003FFFFFD000
001FFFFE0000
0002BFA40000
ENDCHAR
STARTCHAR Ocircumflex
ENCODING 212
SWIDTH 665 0
DWIDTH 24 0
BBX 24 36 0 0
BITMAP
000000001000
00000000B800
00000002FC00
0000001FFD00
0000007FAE00
000001F40F00
00000B400740
000000000000
000000000000
000006BFE800
0001BFFFFF80
001FF955BFE0
00BF80541FF4
02FD0BF80BF8
0BF42FE007FC
1FD0BFC007FD
3F81FF8007FE
7F43FF0007FE
7F0BFE0007FE
7F0FFD0007FE
3F1FFC0007FD
1B2FF8000BFD
003FF4000BFC
007FF0000FFC
00BFE0001FF8
00BFE0002FF4
00FFD0003FF0
00FFD0007FE0
00FFD000FFC0
00FFD001FF80
00FFD003FF00
00BFE00BFD00
00BFF06FF400
003FFFFFD000
001FFFFE0000
0002BFA40000
ENDCHAR
STARTCHAR Otilde
ENCODING 213
SWIDTH 665 0
DWIDTH 24 0
BBX 24 33 0 0
BITMAP
0000006FF901
000001FFFFFE
000006AFFFF8
00000401BF90
000000000000
000000000000
000006BFE800
0001BFFFFF80
001FF955BFE0
00BF80541FF4
02FD0BF80BF8
0BF42FE007FC
1FD0BFC007FD
3F81FF8007FE
7F43FF0007FE
7F0BFE0007FE
7F0FFD0007FE
3F1FFC0007FD
1B2FF8000BFD
003FF4000BFC
007FF0000FFC
00BFE0001FF8
00BFE0002FF4
00FFD0003FF0
00FFD0007FE0
00FFD000FFC0
00FFD001FF80
00FFD003FF00
00BFE00BFD00
00BFF06FF400
003FFFFFD000
001FFFFE0000
0002BFA40000
ENDCHAR
STARTCHAR Odieresis
ENCODING 214
SWIDTH 665 0
DWIDTH 24 0
BBX 24 33 0 0
BITMAP
000002E01F40
00000BF83FC0
00000BF83FC0
000002E01F40
000000000000
000000000000
000006BFE800
0001BFFFFF80
001FF955BFE0
00BF80541FF4
02FD0BF80BF8
0BF42FE007FC
1FD0BFC007FD
3F81FF8007FE
7F43FF0007FE
7F0BFE0007FE
7F0FFD0007FE
3F1FFC0007FD
1B2FF8000BFD
003FF4000BFC
007FF0000FFC
00BFE0001FF8
00BFE0002FF4
00FFD0003FF0
00FFD0007FE0
00FFD000FFC0
00FFD001FF80
00FFD003FF00
00BFE00BFD00
00BFF06FF400
003FFFFFD000
001FFFFE0000
0002BFA40000
ENDCHAR
STARTCHAR multiply
ENCODING 215
SWIDTH 414 0
DWIDTH 15 0
BBX 12 12 1 6
BITMAP
080018
2F007D
3FC1FE
0FFBF8
03FFE0
00FF80
01FFC0
07FFF4
1FE7FD
7F81FE
1E0038
040000
ENDCHAR
STARTCHAR Oslash
ENCODING 216
SWIDTH 658 0
DWIDTH 24 0
BBX 23 30 0 -3
BITMAP
00000001E000
00000001D000
00001AFFE400
0002FFFFFE00
002FE403FF80
01FE06F7AFE0
07F42FDB5FF0
1FD0BF8B0FF4
2F82FF0F0FF8
7F47FE1E0FF8
7F0BFC1E0FF8
7E1FF82D0FF8
3E2FF43C0FF8
1A3FF03C1FF8
007FE0782FF4
00BFE0742FF0
00BFD0B43FF0
00FFC0F07FE0
00FFC0E0BFD0
01FFC1E1FFC0
01FFC2D2FF40
01FFC2C7FE00
00FFC3DFFD00
00BFD7FFF400
007FFBFFD000
001FFFFF4000
0006FFF80000
00000F400000
00001E000000
00001E000000
ENDCHAR
STARTCHAR Ugrave
ENCODING 217
SWIDTH 716 0
DWIDTH 26 0
BBX 27 36 0 0
BITMAP
00000007F40000
00000003F80000
00000002F80000
00000001FC0000
00000000FC0000
00000000BD0000
000000007D0000
00000000000000
00000000000000
00006BF8000FFC
000BFFFC001FFC
007FAFF8001FF8
02F82FF4002FF4
0BE03FF0002FF4
2F807FE0003FF0
7F00BFD0007FF0
BE00BFD0007FE0
FD00FFC000BFD0
FD01FF8000FFD0
FD02FF4000FFC0
BD02FF0001FF80
2D03FF0002FF80
0007FE0002FF40
000BFD0003FF00
000BFC0007FE00
000FFC000BFE00
001FF8000BFD00
001FF8000FFC00
001FF4001FF800
002FF4002FF400
002FF4007FE000
002FF800BFD000
001FFD06FF4000
000FFFFFFE0000
0003FFFFF40000
00006FFE400000
ENDCHAR
STARTCHAR Uacute
ENCODING 218
SWIDTH 716 0
DWIDTH 26 0
BBX 27 36 0 0
BITMAP
0000000001A400
0000000007F400
000000000BE000
000000001FC000
000000002F4000
000000007E0000
00000000BC0000
00000000000000
00000000000000
00006BF8000FFC
000BFFFC001FFC
007FAFF8001FF8
02F82FF4002FF4
0BE03FF0002FF4
2F807FE0003FF0
7F00BFD0007FF0
BE00BFD0007FE0
FD00FFC000BFD0
FD01FF8000FFD0
FD02FF4000FFC0
BD02FF0001FF80
2D03FF0002FF80
0007FE0002FF40
000BFD0003FF00
000BFC0007FE00
000FFC000BFE00
001FF8000BFD00
001FF8000FFC00
001FF4001FF800
002FF4002FF400
002FF4007FE000
002FF800BFD000
001FFD06FF4000
000FFFFFFE0000
0003FFFFF40000
00006FFE400000
ENDCHAR
STARTCHAR Ucircumflex
ENCODING 219
SWIDTH 716 0
DWIDTH 26 0
BBX 27 36 0 0
BITMAP
00000000005000
0000000002E000
000000000BF000
000000003FF400
00000001FEB800
00000007E03C00
0000002E000D00
00000000000000
00000000000000
00006BF8000FFC
000BFFFC001FFC
007FAFF8001FF8
02F82FF4002FF4
0BE03FF0002FF4
2F807FE0003FF0
7F00BFD0007FF0
BE00BFD0007FE0
FD00FFC000BFD0
FD01FF8000FFD0
FD02FF4000FFC0
BD02FF0001FF80
2D03FF0002FF80
0007FE0002FF40
000BFD0003FF00
000BFC0007FE00
000FFC000BFE00
001FF8000BFD00
001FF8000FFC00
001FF4001FF800
002FF4002FF400
002FF4007FE000
002FF800BFD000
001FFD06FF4000
000FFFFFFE0000
0003FFFFF40000
00006FFE400000
ENDCHAR
STARTCHAR Udieresis
ENCODING 220
SWIDTH 716 0
DWIDTH 26 0
BBX 27 34 0 0
BITMAP
0000000BD06E00
0000001FF0BF40
0000001FF0BF40
0000000BD07E00
00000000000000
00000000000000
00000000000000
00006BF8000FFC
000BFFFC001FFC
007FAFF8001FF8
02F82FF4002FF4
0BE03FF0002FF4
2F807FE0003FF0
7F00BFD0007FF0
BE00BFD0007FE0
FD00FFC000BFD0
FD01FF8000FFD0
FD02FF4000FFC0
BD02FF0001FF80
2D03FF0002FF80
0007FE0002FF40
000BFD0003FF00
000BFC0007FE00
000FFC000BFE00
001FF8000BFD00
001FF8000FFC00
001FF4001FF800
002FF4002FF400
002FF4007FE000
002FF800BFD000
001FFD06FF4000
000FFFFFFE0000
0003FFFFF40000
00006FFE400000
ENDCHAR
STARTCHAR Yacute
ENCODING 221
SWIDTH 620 0
DWIDTH 22 0
BBX 25 36 0 0
BITMAP
00000000002A40
00000000007F00
0000000000FE00
0000000001FC00
0000000003F400
0000000007E000
000000000BC000
000000000A4000
00000000000000
00006BF40007C0
0007FFF8000F40
007FBFFC001F00
01F92FFC002E00
0BE02FFD003C00
1FC01FFE00B800
3F400FFF00F400
7F000BFF01E000
BE000BFF42D000
BE0007FF83C000
BE0003FF8B4000
7E0002FFCF0000
1A0001FFEE0000
000001FFFD0000
000000FFF80000
000000BFF40000
000000BFF00000
000000FFE00000
000000FFE00000
000001FFD00000
000002FFC00000
000002FFC00000
000003FF800000
000007FF800000
000007FF400000
00000BFF000000
00000FFF000000
ENDCHAR
STARTCHAR Thorn
ENCODING 222
SWIDTH 583 0
DWIDTH 21 0
BBX 22 27 0 0
BITMAP
000016B40000
00003FF00000
00007FE00000
0000BFE00000
0000BFFE9000
0006FFFFF800
002FFFD6FE00
01FEFFC0BF40
07F6FF803FC0
1FD2FF402FC0
2F83FF402FD0
7F07FF002FD0
BF07FE002FD0
BE0BFE003FC0
BE0FFD007F80
7E0FFC00BF40
2E1FFC01FE00
052FF803FC00
002FF80BF000
003FF47F8000
007FFFF90000
007FF4000000
00BFE0000000
00FFD0000000
00FFC0000000
01FFC0000000
02FF80000000
ENDCHAR
STARTCHAR germandbls
ENCODING 223
SWIDTH 480 0
DWIDTH 17 0
BBX 19 34 -3 -9
BITMAP
000006FE40
00002FFFD0
0000BF9BF0
0002FF03F0
0003FE03F0
000BFD07E0
000FFC07D0
001FF80BC0
002FF80F80
002FF42F00
003FF03D00
007FF0BC00
007FE0FE00
00BFD03F80
00FFD01FD0
00FFC00FF0
01FF800BF4
02FF800BF8
02FF400BF8
03FF400BF8
07FF000FF4
07FE001FF0
0BFE257FD0
0FFD3FFF40
0FFC1FE800
1FFC000000
2FF8000000
2FF4000000
3FF4000000
7FF0000000
7FE0000000
BFE0000000
BE80000000
5000000000
ENDCHAR
STARTCHAR agrave
ENCODING 224
SWIDTH 526 0
DWIDTH 19 0
BBX 21 27 -1 0
BITMAP
00003F800000
00002F800000
00001FC00000
00000FC00000
00000FD00000
00000BD00000
000007E00000
000000000000
000000000000
0006FE3FF400
002FFFBFF000
00BFE5FFE000
02FF80BFE000
07FF00BFD000
0BFD00FFC000
1FFC01FFC000
2FF801FF8000
3FF402FF4000
3FF003FF4000
7FF003FF0000
7FF007FF0040
7FF00BFE01C0
7FF00FFE0380
7FF47FFF0B00
3FFFF7FFFD00
1FFFD2FFF400
02FE00BF8000
ENDCHAR
STARTCHAR aacute
ENCODING 225
SWIDTH 526 0
DWIDTH 19 0
BBX 21 27 -1 0
BITMAP
0000003F8000
000000BF0000
000000FD0000
000002F80000
000003F00000
00000BD00000
00000F800000
000000000000
000000000000
0006FE3FF400
002FFFBFF000
00BFE5FFE000
02FF80BFE000
07FF00BFD000
0BFD00FFC000
1FFC01FFC000
2FF801FF8000
3FF402FF4000
3FF003FF4000
7FF003FF0000
7FF007FF0040
7FF00BFE01C0
7FF00FFE0380
7FF47FFF0B00
3FFFF7FFFD00
1FFFD2FFF400
02FE00BF8000
ENDCHAR
STARTCHAR acircumflex
ENCODING 226
SWIDTH 526 0
DWIDTH 19 0
BBX 21 27 -1 0
BITMAP
0000001C0000
0000007D0000
000001FE0000
00000BFF0000
00002F9B4000
0000B9038000
00029001C000
000000000000
000000000000
0006FE3FF400
002FFFBFF000
00BFE5FFE000
02FF80BFE000
07FF00BFD000
0BFD00FFC000
1FFC01FFC000
2FF801FF8000
3FF402FF4000
3FF003FF4000
7FF003FF0000
7FF007FF0040
7FF00BFE01C0
7FF00FFE0380
7FF47FFF0B00
3FFFF7FFFD00
1FFFD2FFF400
02FE00BF8000
ENDCHAR
STARTCHAR atilde
ENCODING 227
SWIDTH 526 0
DWIDTH 19 0
BBX 21 25 -1 0
BITMAP
000015400000
0001FFF90500
0007FFFFF800
001AAFFFE000
000000550000
000000000000
000000000000
0006FE3FF400
002FFFBFF000
00BFE5FFE000
02FF80BFE000
07FF00BFD000
0BFD00FFC000
1FFC01FFC000
2FF801FF8000
3FF402FF4000
3FF003FF4000
7FF003FF0000
7FF007FF0040
7FF00BFE01C0
7FF00FFE0380
7FF47FFF0B00
3FFFF7FFFD00
1FFFD2FFF400
02FE00BF8000
ENDCHAR
STARTCHAR adieresis
ENCODING 228
SWIDTH 526 0
DWIDTH 19 0
BBX 21 25 -1 0
BITMAP
0000B807E000
0001FE0FF400
0001FE0FF400
0000B907E000
000000000000
000000000000
000000000000
0006FE3FF400
002FFFBFF000
00BFE5FFE000
02FF80BFE000
07FF00BFD000
0BFD00FFC000
1FFC01FFC000
2FF801FF8000
3FF402FF4000
3FF003FF4000
7FF003FF0000
7FF007FF0040
7FF00BFE01C0
7FF00FFE0380
7FF47FFF0B00
3FFFF7FFFD00
1FFFD2FFF400
02FE00BF8000
ENDCHAR
STARTCHAR aring
ENCODING 229
SWIDTH 526 0
DWIDTH 19 0
BBX 21 25 -1 0
BITMAP
000006E40000
00001D2C0000
00002C1C0000
00001C280000
00000BE00000
000000000000
000000000000
0006FE3FF400
002FFFBFF000
00BFE5FFE000
02FF80BFE000
07FF00BFD000
0BFD00FFC000
1FFC01FFC000
2FF801FF8000
3FF402FF4000
3FF003FF4000
7FF003FF0000
7FF007FF0040
7FF00BFE01C0
7FF00FFE0380
7FF47FFF0B00
3FFFF7FFFD00
1FFFD2FFF400
02FE00BF8000
ENDCHAR
STARTCHAR ae
ENCODING 230
SWIDTH 650 0
DWIDTH 23 0
BBX 26 18 -1 0
BITMAP
0006FF906FE400
002FFFFAFFFD00
00B95BFFFD7E00
009003FFF03E00
000002FFD03E00
000002FFC07D00
000003FF80FC00
000007FF43F400
00BFFFFF6FE000
0BFFFFFFFF4000
1FFE4BFFE40000
3FF40FFD000000
7FF01FFD0001D0
7FF02FFE000740
7FF47FFF406E00
3FFFF7FFFFF400
1FFFD2FFFF9000
06FE006FE90000
ENDCHAR
STARTCHAR ccedilla
ENCODING 231
SWIDTH 384 0
DWIDTH 14 0
BBX 16 25 -1 -7
BITMAP
0002BF80
002FFFE0
00BFE7F0
02FF82F4
07FF02F0
0BFD02D0
1FFC0000
2FF80000
3FF40000
3FF40000
7FF00000
7FF00001
7FF0001D
7FF00078
7FF806E0
2FFFFF80
1FFFFE00
02BFE000
00038000
00074000
000BBD00
000FFF00
00007F00
00647D00
007FE400
ENDCHAR
STARTCHAR egrave
ENCODING 232
SWIDTH 384 0
DWIDTH 14 0
BBX 16 27 -1 0
BITMAP
0003F800
0003F800
0002FC00
0001FC00
0000FC00
0000BD00
00007D00
00000000
00000000
0002BF80
002FFFE0
00BFE6F0
02FF82F4
07FF02F0
0BFD03F0
1FFC0BD0
2FF82F80
3FF5BF00
3FFFF800
7FFF9000
7FF00001
7FF0000E
7FF00078
7FF806E0
2FFFFF80
1FFFFD00
02BF9000
ENDCHAR
STARTCHAR eacute
ENCODING 233
SWIDTH 384 0
DWIDTH 14 0
BBX 16 27 -1 0
BITMAP
000000FE
000001FD
000003F8
000007F0
00000BD0
00001F80
00002F00
00000000
00000000
0002BF80
002FFFE0
00BFE6F0
02FF82F4
07FF02F0
0BFD03F0
1FFC0BD0
2FF82F80
3FF5BF00
3FFFF800
7FFF9000
7FF00001
7FF0000E
7FF00078
7FF806E0
2FFFFF80
1FFFFD00
02BF9000
ENDCHAR
STARTCHAR ecircumflex
ENCODING 234
SWIDTH 384 0
DWIDTH 14 0
BBX 16 27 -1 0
BITMAP
000001D0
000007E0
00001FF0
00007FF4
0001FDB8
000BD03C
002D001C
00000000
00000000
0002BF80
002FFFE0
00BFE6F0
02FF82F4
07FF02F0
0BFD03F0
1FFC0BD0
2FF82F80
3FF5BF00
3FFFF800
7FFF9000
7FF00001
7FF0000E
7FF00078
7FF806E0
2FFFFF80
1FFFFD00
02BF9000
ENDCHAR
STARTCHAR edieresis
ENCODING 235
SWIDTH 384 0
DWIDTH 14 0
BBX 16 25 -1 0
BITMAP
000B807D
002FE0FF
002FE0FF
000B807D
00000000
00000000
00000000
0002BF80
002FFFE0
00BFE6F0
02FF82F4
07FF02F0
0BFD03F0
1FFC0BD0
2FF82F80
3FF5BF00
3FFFF800
7FFF9000
7FF00001
7FF0000E
7FF00078
7FF806E0
2FFFFF80
1FFFFD00
02BF9000
ENDCHAR
STARTCHAR igrave
ENCODING 236
SWIDTH 267 0
DWIDTH 10 0
BBX 12 27 -1 0
BITMAP
03FC00
02FC00
01FD00
00FD00
00BD00
007E00
003E00
000000
000000
02FF80
03FF40
03FF00
07FF00
0BFE00
0BFD00
0FFD00
0FFC00
1FF800
2FF800
2FF400
3FF406
7FF00E
7FF02D
7FFAB8
3FFFF0
2FFF80
07F900
ENDCHAR
STARTCHAR iacute
ENCODING 237
SWIDTH 267 0
DWIDTH 10 0
BBX 12 27 -1 0
BITMAP
0000FE
0001FC
0003F4
0007E0
000FD0
001F80
002A00
000000
000000
02FF80
03FF40
03FF00
07FF00
0BFE00
0BFD00
0FFD00
0FFC00
1FF800
2FF800
2FF400
3FF406
7FF00E
7FF02D
7FFAB8
3FFFF0
2FFF80
07F900
ENDCHAR
STARTCHAR icircumflex
ENCODING 238
SWIDTH 267 0
DWIDTH 10 0
BBX 12 27 -1 0
BITMAP
0000A0
0003F0
001FF4
007FF8
01F97C
07D02C
190009
000000
000000
02FF80
03FF40
03FF00
07FF00
0BFE00
0BFD00
0FFD00
0FFC00
1FF800
2FF800
2FF400
3FF406
7FF00E
7FF02D
7FFAB8
3FFFF0
2FFF80
07F900
ENDCHAR
STARTCHAR idieresis
ENCODING 239
SWIDTH 267 0
DWIDTH 10 0
BBX 12 25 -1 0
BITMAP
0BD07D
1FF0FF
1FF0FF
0BD07D
000000
000000
000000
02FF80
03FF40
03FF00
07FF00
0BFE00
0BFD00
0FFD00
0FFC00
1FF800
2FF800
2FF400
3FF406
7FF00E
7FF02D
7FFAB8
3FFFF0
2FFF80
07F900
ENDCHAR
STARTCHAR eth
ENCODING 240
SWIDTH 526 0
DWIDTH 19 0
BBX 22 27 -1 0
BITMAP
000000600000
000002FC0000
000002FE5B40
000000FFFF40
00001AFFE400
0000BFFFD000
0000A53FE000
0000003FE000
0000003FF000
0006FE3FF000
002FFFBFF000
00BFE5FFE000
02FF80BFE000
07FF00BFD000
0BFD00FFD000
1FFC01FFC000
2FF801FF8000
3FF402FF8000
3FF003FF4000
7FF003FF0000
7FF007FF0040
7FF00BFE01D0
7FF00FFE0280
7FF47FFE0B40
3FFFFBFFFD00
1FFFD2FFF400
02FE00BF9000
ENDCHAR
STARTCHAR ntilde
ENCODING 241
SWIDTH 505 0
DWIDTH 18 0
BBX 22 24 -2 0
BITMAP
00006FE50500
0007FFFFFC00
001ABFFFE000
001006BE4000
000000000000
000000000000
00BFE6FE0000
00FFEFFF8000
00FFFFFFD000
01FFE0FFD000
02FFC0BFD000
02FF80BFD000
03FF40FFC000
03FF00FFC000
07FE01FF8000
0BFE01FF4000
0BFD02FF4000
0FFD03FF0040
1FFC03FE00D0
1FF807FE02C0
2FF807FF0B40
3FF403FFFE00
3FF001FFF800
7FF0006F9000
ENDCHAR
STARTCHAR ograve
ENCODING 242
SWIDTH 433 0
DWIDTH 16 0
BBX 21 27 -1 0
BITMAP
0001FD000000
0000FD000000
0000BE000000
0000BE000000
00007F000000
00003F000000
00002F400000
000000000000
000000000000
0006FE400000
002FFFE00000
00BFD6F40000
02FF41F80000
07FE02F802C0
0FFD07F96E00
1FFC07FFE400
2FF402F90000
3FF402F40000
7FF002F40000
BFE003F00000
BFE007E00000
BFE00BD00000
BFE01FC00000
7FF47F400000
3FFFFD000000
1FFFF4000000
02FE80000000
ENDCHAR
STARTCHAR oacute
ENCODING 243
SWIDTH 439 0
DWIDTH 16 0
BBX 21 27 -1 0
BITMAP
000000FE0000
000001FD0000
000002F80000
000007F00000
00000BD00000
00001F800000
00002F400000
000000000000
000000000000
0002BF800000
001FFFE00000
00BFE6F40000
01FF80F80000
07FF01FC02C0
0BFD03FD6F40
1FFC03FFE400
2FF801FD0000
3FF401F80000
3FF401F80000
7FF002F40000
7FF003F00000
7FF00BE00000
7FF01FC00000
7FF47F400000
2FFFFE000000
1FFFF8000000
02BF90000000
ENDCHAR
STARTCHAR ocircumflex
ENCODING 244
SWIDTH 433 0
DWIDTH 16 0
BBX 21 27 -1 0
BITMAP
000001C00000
00000BD00000
00002FE00000
0000BFF00000
0002F9F40000
000B90740000
003900280000
000000000000
000000000000
0006FE400000
002FFFE00000
00BFD6F40000
02FF41F80000
07FE02F802C0
0FFD07F96E00
1FFC07FFE400
2FF402F90000
3FF402F40000
7FF002F40000
BFE003F00000
BFE007E00000
BFE00BD00000
BFE01FC00000
7FF47F400000
3FFFFD000000
1FFFF4000000
02FE80000000
ENDCHAR
STARTCHAR otilde
ENCODING 245
SWIDTH 433 0
DWIDTH 16 0
BBX 21 24 -1 0
BITMAP
001BFA414000
01FFFFFF4000
02ABFFF80000
000015400000
000000000000
000000000000
0006FE400000
002FFFE00000
00BFD6F40000
02FF41F80000
07FE02F802C0
0FFD07F96E00
1FFC07FFE400
2FF402F90000
3FF402F40000
7FF002F40000
BFE003F00000
BFE007E00000
BFE00BD00000
BFE01FC00000
7FF47F400000
3FFFFD000000
1FFFF4000000
02FE80000000
ENDCHAR
STARTCHAR odieresis
ENCODING 246
SWIDTH 433 0
DWIDTH 16 0
BBX 21 25 -1 0
BITMAP
001F40B80000
003FC2FE0000
003FC2FE0000
001F40B80000
000000000000
000000000000
000000000000
0006FE400000
002FFFE00000
00BFD6F40000
02FF41F80000
07FE02F802C0
0FFD07F96E00
1FFC07FFE400
2FF402F90000
3FF402F40000
7FF002F40000
BFE003F00000
BFE007E00000
BFE00BD00000
BFE01FC00000
7FF47F400000
3FFFFD000000
1FFFF4000000
02FE80000000
ENDCHAR
STARTCHAR divide
ENCODING 247
SWIDTH 415 0
DWIDTH 15 0
BBX 14 18 1 3
BITMAP
0007E000
001FF800
002FFC00
002FFC00
001FF800
0007E000
00000000
3FFFFFD0
7FFFFFD0
7FFFFFC0
00000000
00000000
007E0000
01FF4000
02FFC000
02FFC000
01FF8000
007E0000
ENDCHAR
STARTCHAR oslash
ENCODING 248
SWIDTH 428 0
DWIDTH 15 0
BBX 20 20 -3 -2
BITMAP
00001BF81E
0001FFFE78
000BFE6FF0
002FF80FC0
007FF00FC0
00FFD02FC0
01FFC07FC0
02FF81FFC0
03FF47DF80
07FF1F6F80
07FF3D3F40
07FFB47F00
07FFD0BE00
07FF81FC00
03FF47F400
02FFFFD000
01FFFF4000
07AFE40000
1F00000000
7C00000000
ENDCHAR
STARTCHAR ugrave
ENCODING 249
SWIDTH 505 0
DWIDTH 18 0
BBX 21 27 -1 0
BITMAP
0001FE000000
0000FE000000
0000BE000000
00007F000000
00003F000000
00002F400000
00001F400000
000000000000
000000000000
02FF80BFD000
03FF40FFD000
03FF01FFC000
07FF01FF8000
0BFE02FF8000
0BFD03FF4000
0FFD03FF0000
0FFC07FF0000
1FF807FE0000
2FF80BFD0000
2FF40FFD0000
3FF40FFC0240
7FF02FFC0740
7FF07FFC0E00
7FFAFFFEBD00
3FFFDFFFF800
2FFF47FFE000
07F901FE4000
ENDCHAR
STARTCHAR uacute
ENCODING 250
SWIDTH 505 0
DWIDTH 18 0
BBX 21 27 -1 0
BITMAP
0000007F4000
000000FE0000
000001FC0000
000002F40000
000007E00000
00000BC00000
00000A400000
000000000000
000000000000
02FF80BFD000
03FF40FFD000
03FF01FFC000
07FF01FF8000
0BFE02FF8000
0BFD03FF4000
0FFD03FF0000
0FFC07FF0000
1FF807FE0000
2FF80BFD0000
2FF40FFD0000
3FF40FFC0240
7FF02FFC0740
7FF07FFC0E00
7FFAFFFEBD00
3FFFDFFFF800
2FFF47FFE000
07F901FE4000
ENDCHAR
STARTCHAR ucircumflex
ENCODING 251
SWIDTH 505 0
DWIDTH 18 0
BBX 21 27 -1 0
BITMAP
000000700000
000002F40000
00000BF80000
00002FFC0000
0000BE2D0000
0003E00E0000
000A00060000
000000000000
000000000000
02FF80BFD000
03FF40FFD000
03FF01FFC000
07FF01FF8000
0BFE02FF8000
0BFD03FF4000
0FFD03FF0000
0FFC07FF0000
1FF807FE0000
2FF80BFD0000
2FF40FFD0000
3FF40FFC0240
7FF02FFC0740
7FF07FFC0E00
7FFAFFFEBD00
3FFFDFFFF800
2FFF47FFE000
07F901FE4000
ENDCHAR
STARTCHAR udieresis
ENCODING 252
SWIDTH 505 0
DWIDTH 18 0
BBX 21 25 -1 0
BITMAP
0007D02E0000
000FF0BF8000
000FF0BF8000
0007D02E0000
000000000000
000000000000
000000000000
02FF80BFD000
03FF40FFD000
03FF01FFC000
07FF01FF8000
0BFE02FF8000
0BFD03FF4000
0FFD03FF0000
0FFC07FF0000
1FF807FE0000
2FF80BFD0000
2FF40FFD0000
3FF40FFC0240
7FF02FFC0740
7FF07FFC0E00
7FFAFFFEBD00
3FFFDFFFF800
2FFF47FFE000
07F901FE4000
ENDCHAR
STARTCHAR yacute
ENCODING 253
SWIDTH 505 0
DWIDTH 18 0
BBX 20 36 -1 -9
BITMAP
0000007F40
000000FE00
000001FC00
000003F400
000007E000
00000BC000
00001A4000
0000000000
0000000000
02FF80BFD0
03FF40FFD0
03FF01FFC0
07FF01FF80
0BFE02FF80
0BFD03FF40
0FFD03FF00
0FFC07FF00
1FF80BFE00
2FF80BFD00
2FF40FFD00
3FF41FFC06
7FF02FF80E
7FF07FF81D
7FFAFFF438
3FFFFFF5F0
2FFFBFFB80
07F97FFD00
0006FFE000
002FFFD000
01F8FFC000
03D1FFC000
0782FF8000
0787FF4000
07FFFE0000
02FFF80000
007F900000
ENDCHAR
STARTCHAR thorn
ENCODING 254
SWIDTH 473 0
DWIDTH 17 0
BBX 19 36 -3 -9
BITMAP
0000564000
0003FF4000
0003FF0000
0007FE0000
000BFE0000
000BFD0000
000FFC0000
001FFC0000
001FF80000
002FF5BF80
002FFFFFF0
003FFD6FF4
007FF01FF8
007FE00FFC
00BFD00FFC
00FFD00FFC
00FFC00FFC
01FF801FF8
02FF802FF8
02FF402FF4
03FF003FF0
07FF00BFE0
07FE01FFC0
0BFE02FF40
0FFE5BFE00
0FFFFFF400
1FFDBF8000
2FF8000000
2FF4000000
3FF4000000
3FF0000000
7FE0000000
BFE0000000
BFD0000000
FE80000000
5000000000
ENDCHAR
STARTCHAR ydieresis
ENCODING 255
SWIDTH 505 0
DWIDTH 18 0
BBX 20 34 -1 -9
BITMAP
000B807D00
001FE0FF40
001FE0FF40
000B807D00
0000000000
0000000000
0000000000
02FF80BFD0
03FF40FFD0
03FF01FFC0
07FF01FF80
0BFE02FF80
0BFD03FF40
0FFD03FF00
0FFC07FF00
1FF80BFE00
2FF80BFD00
2FF40FFD00
3FF41FFC06
7FF02FF80E
7FF07FF81D
7FFAFFF438
3FFFFFF5F0
2FFFBFFB80
07F97FFD00
0006FFE000
002FFFD000
01F8FFC000
03D1FFC000
0782FF8000
0787FF4000
07FFFE0000
02FFF80000
007F900000
ENDCHAR
STARTCHAR Amacron
ENCODING 256
SWIDTH 668 0
DWIDTH 24 0
BBX 28 37 0 -4
BITMAP
00000000155555
00000000BFFFFF
00000000BFFFFE
00000000000000
00000000000000
00000000000000
0000000001BF80
000000001FFF80
00000000BFFF40
00000002F7FF40
0000000BD3FF00
0000002F47FF00
0000007E0BFE00
000000FC0BFD00
000002F40FFD00
00000BE00FFC00
00001FD01FF800
01BFFFD42FF800
1FFFFFFFBFF400
3FD4FE16FFF000
BF41FD007FF000
BF43FC007FE000
7F4BF800BFE000
040FF000FFD000
001FE000FFC000
003FD001FFC000
007FC002FF8000
00BF8002FF4000
00FF4003FF4000
01FF4003FF0000
02FF0007FE0000
02FE000BFE0000
03FE000BFD0000
03FD0000000000
02FD0000000000
01FD0000000000
006E0000000000
ENDCHAR
STARTCHAR amacron
ENCODING 257
SWIDTH 526 0
DWIDTH 19 0
BBX 21 24 -1 0
BITMAP
0002FFFFFC00
0003FFFFF800
000155555000
000000000000
000000000000
000000000000
0006FE3FF400
002FFFBFF000
00BFE5FFE000
02FF80BFE000
07FF00BFD000
0BFD00FFC000
1FFC01FFC000
2FF801FF8000
3FF402FF4000
3FF003FF4000
7FF003FF0000
7FF007FF0040
7FF00BFE01C0
7FF00FFE0380
7FF47FFF0B00
3FFFF7FFFD00
1FFFD2FFF400
02FE00BF8000
ENDCHAR
STARTCHAR Abreve
ENCODING 258
SWIDTH 668 0
DWIDTH 24 0
BBX 30 38 0 -4
BITMAP
0000000069000690
000000007F000FD0
000000003F907F80
000000001FFFFD00
0000000006FF9000
0000000000000000
0000000000000000
0000000001BF8000
000000001FFF8000
00000000BFFF4000
00000002F7FF4000
0000000BD3FF0000
0000002F47FF0000
0000007E0BFE0000
000000FC0BFD0000
000002F40FFD0000
00000BE00FFC0000
00001FD01FF80000
01BFFFD42FF80000
1FFFFFFFBFF40000
3FD4FE16FFF00000
BF41FD007FF00000
BF43FC007FE00000
7F4BF800BFE00000
040FF000FFD00000
001FE000FFC00000
003FD001FFC00000
007FC002FF800000
00BF8002FF400000
00FF4003FF400000
01FF4003FF000000
02FF0007FE000000
02FE000BFE000000
03FE000BFD000000
03FD000000000000
02FD000000000000
01FD000000000000
006E000000000000
ENDCHAR
STARTCHAR abreve
ENCODING 259
SWIDTH 526 0
DWIDTH 19 0
BBX 21 26 -1 0
BITMAP
000BE000BD00
0007F001FC00
0003F90BF400
0001FFFF9000
00006FF90000
000000000000
000000000000
000000000000
0006FE3FF400
002FFFBFF000
00BFE5FFE000
02FF80BFE000
07FF00BFD000
0BFD00FFC000
1FFC01FFC000
2FF801FF8000
3FF402FF4000
3FF003FF4000
7FF003FF0000
7FF007FF0040
7FF00BFE01C0
7FF00FFE0380
7FF47FFF0B00
3FFFF7FFFD00
1FFFD2FFF400
02FE00BF8000
ENDCHAR
STARTCHAR Aogonek
ENCODING 260
SWIDTH 668 0
DWIDTH 24 0
BBX 25 34 0 -7
BITMAP
0000000001BF80
000000001FFF80
00000000BFFF40
00000002F7FF40
0000000BD3FF00
0000002F47FF00
0000007E0BFE00
000000FC0BFD00
000002F40FFD00
00000BE00FFC00
00001FD01FF800
01BFFFD42FF800
1FFFFFFFBFF400
3FD4FE16FFF000
BF41FD007FF000
BF43FC007FE000
7F4BF800BFE000
040FF000FFD000
001FE000FFC000
003FD001FFC000
007FC002FF8000
00BF8002FF4000
00FF4003FF4000
01FF4003FF0000
02FF0007FE0000
02FE000BFE0000
03FE000BFD0000
03FD0003D00000
02FD000F400000
01FD002F000000
007E003F000000
0000003F9A0000
0000002FFC0000
0000000BE00000
ENDCHAR
STARTCHAR aogonek
ENCODING 261
SWIDTH 526 0
DWIDTH 19 0
BBX 21 25 -1 -7
BITMAP
0006FE3FF400
002FFFBFF000
00BFE5FFE000
02FF80BFE000
07FF00BFD000
0BFD00FFC000
1FFC01FFC000
2FF801FF8000
3FF402FF4000
3FF003FF4000
7FF003FF0000
7FF007FF0040
7FF00BFE01C0
7FF00FFE0380
7FF47FFF0B00
3FFFF7FFFD00
1FFFD2FFF400
02FE00BFD000
0000002E0000
000000BC0000
000001F40000
000002F40000
000002FD6000
000001FFD000
0000007E4000
ENDCHAR
STARTCHAR Cacute
ENCODING 262
SWIDTH 497 0
DWIDTH 18 0
BBX 20 37 0 -1
BITMAP
00000001A4
00000003F8
0000000BE0
0000000FD0
0000002F80
0000003E00
000000BD00
0000000000
0000000000
00001BFE40
0001BFFFE0
0007FF96F8
001FFE00FC
003FF800BD
00BFF000FD
01FFE001FC
03FFC003F8
07FF800190
0BFF400000
0FFF000000
1FFE000000
2FFD000000
2FFD000000
3FFC000000
3FFC000000
7FF8000000
7FF8000000
7FF8000000
7FF8000000
7FF8000000
3FFC000028
3FFD0000B0
2FFF0006D0
0FFFEABF40
07FFFFFD00
01BFFF9000
0005540000
ENDCHAR
STARTCHAR cacute
ENCODING 263
SWIDTH 384 0
DWIDTH 14 0
BBX 17 27 -1 0
BITMAP
0000007F80
000000BF00
000000FD00
000002F800
000003F000
000007D000
00000F8000
0000000000
0000000000
0002BF8000
002FFFE000
00BFE7F000
02FF82F400
07FF02F000
0BFD02D000
1FFC000000
2FF8000000
3FF4000000
3FF4000000
7FF0000000
7FF0000100
7FF0001D00
7FF0007800
7FF806E000
2FFFFF8000
1FFFFD0000
02BF900000
ENDCHAR
STARTCHAR Ccircumflex
ENCODING 264
SWIDTH 497 0
DWIDTH 18 0
BBX 20 37 0 -1
BITMAP
0000000500
0000001F00
0000007F40
000002FF80
00000BE7C0
00003E42D0
0001E400A0
0000000000
0000000000
00001BFE40
0001BFFFE0
0007FF96F8
001FFE00FC
003FF800BD
00BFF000FD
01FFE001FC
03FFC003F8
07FF800190
0BFF400000
0FFF000000
1FFE000000
2FFD000000
2FFD000000
3FFC000000
3FFC000000
7FF8000000
7FF8000000
7FF8000000
7FF8000000
7FF8000000
3FFC000028
3FFD0000B0
2FFF0006D0
0FFFEABF40
07FFFFFD00
01BFFF9000
0005540000
ENDCHAR
STARTCHAR ccircumflex
ENCODING 265
SWIDTH 384 0
DWIDTH 14 0
BBX 16 27 -1 0
BITMAP
000000D0
000007E0
00001FF0
00007FF4
0001FDB8
0007D03C
002E001D
00000000
00000000
0002BF80
002FFFE0
00BFE7F0
02FF82F4
07FF02F0
0BFD02D0
1FFC0000
2FF80000
3FF40000
3FF40000
7FF00000
7FF00001
7FF0001D
7FF00078
7FF806E0
2FFFFF80
1FFFFD00
02BF9000
ENDCHAR
STARTCHAR Cdotaccent
ENCODING 266
SWIDTH 497 0
DWIDTH 18 0
BBX 20 36 0 -1
BITMAP
00000007E0
0000001FF4
0000002FF8
0000002FF8
0000001FF4
00000007E0
0000000000
0000000000
00001BFE40
0001BFFFE0
0007FF96F8
001FFE00FC
003FF800BD
00BFF000FD
01FFE001FC
03FFC003F8
07FF800190
0BFF400000
0FFF000000
1FFE000000
2FFD000000
2FFD000000
3FFC000000
3FFC000000
7FF8000000
7FF8000000
7FF8000000
7FF8000000
7FF8000000
3FFC000028
3FFD0000B0
2FFF0006D0
0FFFEABF40
07FFFFFD00
01BFFF9000
0005540000
ENDCHAR
STARTCHAR cdotaccent
ENCODING 267
SWIDTH 384 0
DWIDTH 14 0
BBX 16 27 -1 0
BITMAP
00000B90
00002FF0
00003FF4
00003FF4
00002FF0
00000B90
00000000
00000000
00000000
0002BF80
002FFFE0
00BFE7F0
02FF82F4
07FF02F0
0BFD02D0
1FFC0000
2FF80000
3FF40000
3FF40000
7FF00000
7FF00001
7FF0001D
7FF00078
7FF806E0
2FFFFF80
1FFFFD00
02BF9000
ENDCHAR
STARTCHAR Ccaron
ENCODING 268
SWIDTH 497 0
DWIDTH 18 0
BBX 21 37 0 -1
BITMAP
000005000140
000003402E00
000002D2F800
000001FFE000
000000FF4000
000000BD0000
000000700000
000000000000
000000000000
00001BFE4000
0001BFFFE000
0007FF96F800
001FFE00FC00
003FF800BD00
00BFF000FD00
01FFE001FC00
03FFC003F800
07FF80019000
0BFF40000000
0FFF00000000
1FFE00000000
2FFD00000000
2FFD00000000
3FFC00000000
3FFC00000000
7FF800000000
7FF800000000
7FF800000000
7FF800000000
7FF800000000
3FFC00002800
3FFD0000B000
2FFF0006D000
0FFFEABF4000
07FFFFFD0000
01BFFF900000
000554000000
ENDCHAR
STARTCHAR ccaron
ENCODING 269
SWIDTH 384 0
DWIDTH 14 0
BBX 19 27 -1 0
BITMAP
0000A001B4
0000740BC0
00007DBE00
00003FF800
00002FE000
00001F8000
00000E0000
0000000000
0000000000
0002BF8000
002FFFE000
00BFE7F000
02FF82F400
07FF02F000
0BFD02D000
1FFC000000
2FF8000000
3FF4000000
3FF4000000
7FF0000000
7FF0000100
7FF0001D00
7FF0007800
7FF806E000
2FFFFF8000
1FFFFD0000
02BF900000
ENDCHAR
STARTCHAR Dcaron
ENCODING 270
SWIDTH 663 0
DWIDTH 24 0
BBX 24 37 0 -1
BITMAP
000001000140
000003801F40
000002D1BD00
000001FBF000
000000FFC000
000000BE0000
000000780000
000000100000
000000000000
00005BFF9000
0006FFFFFD00
007FE556FF40
01FE00007FD0
0BF46AD02FF0
1FD0FFD01FF4
3F80FFC00FF8
7F41FF800BFC
BF02FF800BFC
BE02FF400BFC
BE03FF400FFD
7E07FF000FFC
2E07FE000FFC
000BFE000FFC
000FFD001FFC
000FFC001FF8
001FFC002FF4
002FF8003FF0
002FF4007FE0
003FF400BFD0
007FF000FFC0
007FE002FF80
00BFE007FF00
00FFD01FFD00
00FFFABFF800
01FFFFFFE000
02FF9BFF4000
000001540000
ENDCHAR
STARTCHAR dcaron
ENCODING 271
SWIDTH 525 0
DWIDTH 19 0
BBX 26 27 -1 0
BITMAP
00000000001B80
00000000002FD0
000000015A2FD0
0000000BFE0FD0
0000000FFD07C0
0000000FFC0B40
0000001FFC1D00
0000002FF80400
0000002FF40000
0006FE3FF40000
002FFFBFF00000
00BFE5FFE00000
02FF80BFE00000
07FF00FFD00000
0BFD00FFC00000
1FFC01FFC00000
2FF801FF800000
3FF402FF800000
3FF003FF400000
7FF003FF000000
7FF007FF004000
7FF00BFE01C000
7FF00FFE038000
7FF47FFE0B0000
3FFFFBFFFD0000
1FFFD2FFF40000
02FE00BF800000
ENDCHAR
STARTCHAR Dcroat
ENCODING 272
SWIDTH 663 0
DWIDTH 24 0
BBX 24 28 0 -1
BITMAP
00006BFE9000
0006FFFFFD00
002FE556FF80
01FE00007FD0
07F45A901FF0
1FD0FFD00FF8
2F80FFC00FF8
7F41FFC00BFC
BF01FF800BFC
BE02FF400BFD
BE03FF400FFD
BE03FF000FFC
3E07FF500FFC
053FFFF40FFC
007FFFF01FF8
000FFC001FF8
001FFC002FF4
002FF8003FF0
002FF4007FE0
003FF400BFD0
007FF000FFC0
007FE002FF80
00BFE007FF00
00FFD01FFD00
00FFFABFF800
01FFFFFFE000
02FF9BFF4000
000001540000
ENDCHAR
STARTCHAR dcroat
ENCODING 273
SWIDTH 525 0
DWIDTH 19 0
BBX 22 25 -1 0
BITMAP
00000006BE00
0000000BFD00
0000000FFD00
000007FFFFF0
000007FFFFE0
0000016FF940
0000002FF400
0006FE3FF400
002FFFBFF000
00BFE5FFE000
02FF80BFE000
07FF00FFD000
0BFD00FFC000
1FFC01FFC000
2FF801FF8000
3FF402FF8000
3FF003FF4000
7FF003FF0000
7FF007FF0040
7FF00BFE01C0
7FF00FFE0380
7FF47FFE0B00
3FFFFBFFFD00
1FFFD2FFF400
02FE00BF8000
ENDCHAR
STARTCHAR Emacron
ENCODING 274
SWIDTH 459 0
DWIDTH 17 0
BBX 20 34 0 -1
BITMAP
0000155555
0000BFFFFF
0000BFFFFE
0000000000
0000000000
0000000000
00001BF900
0000BFFF80
0003FE5BD0
000BF807E0
001FF003E0
003FE007E0
003FD00BD0
007FD01F80
007FD00500
003FE00000
002FF40000
000FFD0000
000BFE4000
00BFF40000
02FFD00000
0BFF400000
1FFE000000
3FFD000000
7FFC000000
BFF8000000
BFF8000000
BFF8000090
BFF8000280
7FFD001E00
3FFFAAF800
1FFFFFE000
06FFFE0000
0055500000
ENDCHAR
STARTCHAR emacron
ENCODING 275
SWIDTH 384 0
DWIDTH 14 0
BBX 16 24 -1 0
BITMAP
00BFFFFF
00FFFFFE
00555554
00000000
00000000
00000000
0002BF80
002FFFE0
00BFE6F0
02FF82F4
07FF02F0
0BFD03F0
1FFC0BD0
2FF82F80
3FF5BF00
3FFFF800
7FFF9000
7FF00001
7FF0000E
7FF00078
7FF806E0
2FFFFF80
1FFFFD00
02BF9000
ENDCHAR
STARTCHAR Ebreve
ENCODING 276
SWIDTH 459 0
DWIDTH 17 0
BBX 21 35 0 -1
BITMAP
0000FD001FC0
0000FE002F80
00007F41BE00
00002FFFF800
000006FE8000
000000000000
000000000000
00001BF90000
0000BFFF8000
0003FE5BD000
000BF807E000
001FF003E000
003FE007E000
003FD00BD000
007FD01F8000
007FD0050000
003FE0000000
002FF4000000
000FFD000000
000BFE400000
00BFF4000000
02FFD0000000
0BFF40000000
1FFE00000000
3FFD00000000
7FFC00000000
BFF800000000
BFF800000000
BFF800009000
BFF800028000
7FFD001E0000
3FFFAAF80000
1FFFFFE00000
06FFFE000000
005550000000
ENDCHAR
STARTCHAR ebreve
ENCODING 277
SWIDTH 384 0
DWIDTH 14 0
BBX 17 26 -1 0
BITMAP
01FC002F80
01FC007F40
00FE41FD00
007FFFF400
000AFE4000
0000000000
0000000000
0000000000
0002BF8000
002FFFE000
00BFE6F000
02FF82F400
07FF02F000
0BFD03F000
1FFC0BD000
2FF82F8000
3FF5BF0000
3FFFF80000
7FFF900000
7FF0000100
7FF0000E00
7FF0007800
7FF806E000
2FFFFF8000
1FFFFD0000
02BF900000
ENDCHAR
STARTCHAR Edotaccent
ENCODING 278
SWIDTH 459 0
DWIDTH 17 0
BBX 18 36 0 -1
BITMAP
0000006E00
000000FFC0
000001FFD0
000001FFD0
000000FFC0
0000006E00
0000000000
0000000000
00001BF900
0000BFFF80
0003FE5BD0
000BF807E0
001FF003E0
003FE007E0
003FD00BD0
007FD01F80
007FD00500
003FE00000
002FF40000
000FFD0000
000BFE4000
00BFF40000
02FFD00000
0BFF400000
1FFE000000
3FFD000000
7FFC000000
BFF8000000
BFF8000000
BFF8000090
BFF8000280
7FFD001E00
3FFFAAF800
1FFFFFE000
06FFFE0000
0055500000
ENDCHAR
STARTCHAR edotaccent
ENCODING 279
SWIDTH 384 0
DWIDTH 14 0
BBX 16 27 -1 0
BITMAP
00000B80
00003FF0
00007FF4
00007FF4
00003FF0
00001B90
00000000
00000000
00000000
0002BF80
002FFFE0
00BFE6F0
02FF82F4
07FF02F0
0BFD03F0
1FFC0BD0
2FF82F80
3FF5BF00
3FFFF800
7FFF9000
7FF00001
7FF0000E
7FF00078
7FF806E0
2FFFFF80
1FFFFD00
02BF9000
ENDCHAR
STARTCHAR Eogonek
ENCODING 280
SWIDTH 459 0
DWIDTH 17 0
BBX 18 34 0 -7
BITMAP
0001AFE400
000BFFFF40
003FF95FD0
00BFD007E0
01FF8003F0
01FF4007F0
02FF400BE0
02FF401FD0
01FF800540
00FFD00000
007FF40000
001FFE0000
001BFF4000
01BFF40000
07FFD00000
1FFF400000
2FFD000000
3FFC000000
7FF8000000
BFF8000000
BFFC000040
7FFD0001C0
3FFF000780
2FFFD56F00
0FFFFFFC00
02FFFFE000
006FFF8000
00001E0000
00003D0000
0000BC0000
0000FC0000
0000FE2800
0000BFE000
00002F8000
ENDCHAR
STARTCHAR eogonek
ENCODING 281
SWIDTH 384 0
DWIDTH 14 0
BBX 16 25 -1 -7
BITMAP
0002BF80
002FFFE0
00BFE6F0
02FF82F4
07FF02F0
0BFD03F0
1FFC0BD0
2FF82F80
3FF5BF00
3FFFF800
7FFF9000
7FF00001
7FF0000A
7FF0007C
7FF402F0
2FFFFFD0
1FFFFE00
02BFF800
0003D000
000B8000
001F4000
002F4000
002F8700
001FFD00
0007E000
ENDCHAR
STARTCHAR Ecaron
ENCODING 282
SWIDTH 459 0
DWIDTH 17 0
BBX 21 37 0 -1
BITMAP
000001000140
000003801F40
000002D1FC00
000001FFE000
000000FF8000
000000BD0000
000000740000
000000000000
000000000000
00001BF90000
0000BFFF8000
0003FE5BD000
000BF807E000
001FF003E000
003FE007E000
003FD00BD000
007FD01F8000
007FD0050000
003FE0000000
002FF4000000
000FFD000000
000BFE400000
00BFF4000000
02FFD0000000
0BFF40000000
1FFE00000000
3FFD00000000
7FFC00000000
BFF800000000
BFF800000000
BFF800009000
BFF800028000
7FFD001E0000
3FFFAAF80000
1FFFFFE00000
06FFFE000000
005550000000
ENDCHAR
STARTCHAR ecaron
ENCODING 283
SWIDTH 384 0
DWIDTH 14 0
BBX 18 27 -1 0
BITMAP
0000D001B0
0000B41B80
00007CBE00
00003FF800
00002FE000
00001F8000
00000D0000
0000000000
0000000000
0002BF8000
002FFFE000
00BFE6F000
02FF82F400
07FF02F000
0BFD03E000
1FFC0BD000
2FF81F8000
3FF5BE0000
3FFFF40000
7FF9400000
7FF0000500
7FF0001D00
7FF0007800
7FF806E000
2FFFFF8000
1FFFFD0000
02BF900000
ENDCHAR
STARTCHAR Gcircumflex
ENCODING 284
SWIDTH 578 0
DWIDTH 21 0
BBX 21 42 0 -7
BITMAP
00000000E000
00000007F000
0000001FF400
000000BFF800
000002F43C00
00001E401D00
000010000000
000000000000
00001AFF9000
0001FFFFF800
000BFF95FE00
003FFD007F00
00FFF0003F40
02FFD0003F40
07FF8000BF40
0FFF0001FF00
1FFD0000B900
2FFC00000000
3FF800000000
3FF800000000
7FF400015500
7FF40003FD00
7FF40007FD00
7FF4000BFC00
3FF4000FF800
3FF8002FF800
2FFC007FF400
0FFE42FFF000
07FFFFBFF000
01FFFE7FE000
006FE47FD000
000000BFC000
000540FFC000
007FE0FF8000
01FFF5FF4000
03FEB6FF0000
07F003FE0000
07E007FC0000
07E00BF80000
03F96FE00000
01FFFF800000
002BF9000000
ENDCHAR
STARTCHAR gcircumflex
ENCODING 285
SWIDTH 507 0
DWIDTH 18 0
BBX 21 36 -1 -9
BITMAP
0000001C0000
0000007D0000
000001FE0000
00000BFF0000
00002F9B4000
0000B9038000
00029001C000
000000000000
000000000000
0006FE3FF400
002FFFBFF000
00BFE5FFE000
02FF80BFE000
07FF00FFD000
0BFD00FFC000
1FFC01FFC000
2FF801FF8000
3FF402FF4000
3FF003FF4000
7FF003FF0000
7FF007FE0000
7FF00BFE0380
7FF00FFD0700
7FF47FFD0E00
3FFFFFFC7C00
1FFFEFFEF000
02FE2FFF8000
00007FF80000
000BFFF00000
007E7FF00000
00F47FE00000
02E0BFD00000
02D0FFC00000
02E6FF400000
00FFFE000000
002FE4000000
ENDCHAR
STARTCHAR Gbreve
ENCODING 286
SWIDTH 578 0
DWIDTH 21 0
BBX 23 41 0 -7
BITMAP
000006900068
00000BE001F8
00000BF41BF4
000002FFFF80
0000006FE900
000000000000
000000000000
00001AFF9000
0001FFFFF800
000BFF95FE00
003FFD007F40
00FFF0003F40
02FFD0007F40
07FF8000BF40
0FFF0001FE00
1FFD00006400
2FFC00000000
3FF800000000
3FF800000000
7FF40001A900
7FF40003FD00
7FF40007FC00
7FF4000BFC00
3FF4000FF800
3FF8002FF400
2FFC007FF400
0FFE42FFF000
07FFFFBFE000
01FFFE7FE000
006FE47FD000
000000BFC000
000540FFC000
007FE0FF8000
01FFF5FF4000
03FEB6FF0000
07F003FE0000
07E007FC0000
07E00BF80000
03F96FE00000
01FFFF800000
002BF9000000
ENDCHAR
STARTCHAR gbreve
ENCODING 287
SWIDTH 507 0
DWIDTH 18 0
BBX 21 35 -1 -9
BITMAP
000690006900
0007F000FC00
0003F807F400
0001FFFFD000
00006FF90000
000000000000
000000000000
000000000000
0006FE3FF400
002FFFBFF000
00BFE5FFE000
02FF80BFE000
07FF00FFD000
0BFD00FFC000
1FFC01FFC000
2FF801FF8000
3FF402FF4000
3FF003FF4000
7FF003FF0000
7FF007FE0000
7FF00BFE0380
7FF00FFD0700
7FF47FFD0E00
3FFFFFFC7C00
1FFFEFFEF000
02FE2FFF8000
00007FF80000
000BFFF00000
007E7FF00000
00F47FE00000
02E0BFD00000
02D0FFC00000
02E6FF400000
00FFFE000000
002FE4000000
ENDCHAR
STARTCHAR Gdotaccent
ENCODING 288
SWIDTH 578 0
DWIDTH 21 0
BBX 21 42 0 -7
BITMAP
0000002F4000
0000007FD000
000000BFE000
000000BFE000
0000007FD000
0000002F4000
000000000000
000000000000
00001AFF9000
0001FFFFF800
000BFF95FE00
003FFD007F40
00FFF0003F40
02FFD0007F40
07FF8000BF40
0FFF0001FE00
1FFD00006400
2FFC00000000
3FF800000000
3FF800000000
7FF40001A900
7FF40003FD00
7FF40007FC00
7FF4000BFC00
3FF4000FF800
3FF8002FF400
2FFC007FF400
0FFE42FFF000
07FFFFBFE000
01FFFE7FE000
006FE47FD000
000000BFC000
000540FFC000
007FE0FF8000
01FFF5FF4000
03FEB6FF0000
07F003FE0000
07E007FC0000
07E00BF80000
03F96FE00000
01FFFF800000
002BF9000000
ENDCHAR
STARTCHAR gdotaccent
ENCODING 289
SWIDTH 507 0
DWIDTH 18 0
BBX 21 36 -1 -9
BITMAP
000001F80000
000007FE0000
00000BFF0000
00000BFF0000
000007FE0000
000001F80000
000000000000
000000000000
000000000000
0006FE3FF400
002FFFBFF000
00BFE5FFE000
02FF80BFE000
07FF00FFD000
0BFD00FFC000
1FFC01FFC000
2FF801FF8000
3FF402FF4000
3FF003FF4000
7FF003FF0000
7FF007FE0000
7FF00BFE0380
7FF00FFD0700
7FF47FFD0E00
3FFFFFFC7C00
1FFFEFFEF000
02FE2FFF8000
00007FF80000
000BFFF00000
007E7FF00000
00F47FE00000
02E0BFD00000
02D0FFC00000
02E6FF400000
00FFFE000000
002FE4000000
ENDCHAR
STARTCHAR Gcommaaccent
ENCODING 290
SWIDTH 578 0
DWIDTH 21 0
BBX 20 36 0 -9
BITMAP
00001AFE40
0000BFFFD0
0007FF97F4
001FFD02F8
007FF402FC
00FFE002FC
02FFC003F8
07FF800BF4
0BFF000150
1FFE000000
2FFD000000
3FFC000000
7FF8000000
7FF8000000
BFF40003FD
BFF40007FC
BFF4000BF8
BFF4000FF8
BFF4001FF4
BFF4002FF0
BFF4003FE0
7FF800BFE0
3FFC01FFD0
2FFE07FFC0
0FFFFFFFC0
03FFFDFF80
006FE1FF40
0000000000
0000000000
0001F80000
0002FC0000
0001FC0000
0000B80000
0000B40000
0001D00000
0000400000
ENDCHAR
STARTCHAR gcommaaccent
ENCODING 291
SWIDTH 507 0
DWIDTH 18 0
BBX 21 36 -1 -9
BITMAP
000000600000
000000E00000
000002D00000
000007E00000
000007F40000
000007F40000
000001500000
000000000000
000000000000
0006FE3FF400
002FFFBFF000
00BFE5FFE000
02FF80BFE000
07FF00FFD000
0BFD00FFC000
1FFC01FFC000
2FF801FF8000
3FF402FF4000
3FF003FF4000
7FF003FF0000
7FF007FE0000
7FF00BFE0380
7FF00FFD0700
7FF47FFD0E00
3FFFFFFC7C00
1FFFEFFEF000
02FE2FFF8000
00007FF80000
000BFFF00000
007E7FF00000
00F47FE00000
02E0BFD00000
02D0FFC00000
02E6FF400000
00FFFE000000
002FE4000000
ENDCHAR
STARTCHAR Hcircumflex
ENCODING 292
SWIDTH 665 0
DWIDTH 24 0
BBX 25 36 0 0
BITMAP
00000000014000
00000000078000
000000001FC000
00000000BFD000
00000002FEE000
0000000BE0F000
0000002E007400
00000050001400
00000000000000
00001BF401FFC0
0006FFF402FF80
002FFFF002FF40
01FD7FE003FF40
07F4BFE003FF00
0FD0BFD007FE00
2F80FFC00BFE00
7F41FFC00BFD00
7F01FF800FFD00
BF02FF801FFC00
7E03FF401FF800
3F03FFFFFFF800
1B07FFFFFFF400
000BFFAABFF000
000BFD007FF000
000FFD007FE000
000FFC00BFD000
001FF800FFD000
002FF800FFC000
002FF401FFC000
003FF402FF8000
007FF002FF4000
007FE003FF4000
00BFE007FF0000
00FFD007FE0000
00FFC00BFE0000
01FFC00BFD0000
ENDCHAR
STARTCHAR hcircumflex
ENCODING 293
SWIDTH 505 0
DWIDTH 18 0
BBX 22 33 -2 0
BITMAP
000001400000
000007800000
00002FC00000
0000BFD00000
0003FAE00000
001F80B00000
007800340000
000000000000
0005AC000000
001FFC000000
002FF8000000
002FF4000000
003FF4000000
003FF0000000
007FE0000000
00BFE2FE0000
00BFEFFF8000
00FFFFFFD000
01FFE0FFD000
01FFC0BFD000
02FF80BFD000
03FF40FFC000
03FF00FFC000
07FE01FF8000
0BFE01FF4000
0BFD02FF4000
0FFD03FF0040
1FFC03FE00D0
1FF807FE02C0
2FF807FF0B40
3FF403FFFE00
3FF001FFF800
7FF0006F9000
ENDCHAR
STARTCHAR Hbar
ENCODING 294
SWIDTH 665 0
DWIDTH 24 0
BBX 27 27 0 0
BITMAP
00005BF401FFC0
0006FFF402FF80
006FFFF002FF40
01FD7FE003FF40
07F4BFE003FF00
1FD0BFD007FF00
2F80FFD00BFE00
7F4BFFFFFFFFF8
7F0BFFEAAFFEA4
BF02FF800FFC00
7E02FF401FFC00
2F03FFFFFFF800
0607FFFFFFF400
0007FE557FF400
000BFD007FF000
000FFD00BFE000
000FFC00BFE000
001FF800FFD000
002FF800FFC000
002FF401FFC000
003FF002FF8000
007FF002FF4000
007FE003FF4000
00BFE007FF0000
00FFD007FE0000
00FFC00BFE0000
01FFC00BFD0000
ENDCHAR
STARTCHAR hbar
ENCODING 295
SWIDTH 505 0
DWIDTH 18 0
BBX 22 25 -2 0
BITMAP
000AFC000000
001FF8000000
002FF8000000
07FFFFF00000
07FFFFE00000
017FF5400000
007FE0000000
00BFE2FE0000
00BFEFFF8000
00FFFFFFD000
01FFE0FFD000
01FFC0BFD000
02FF80BFD000
03FF40FFC000
03FF00FFC000
07FE01FF8000
0BFE01FF4000
0BFD02FF4000
0FFD03FF0040
1FFC03FE00D0
1FF807FE02C0
2FF807FF0B40
3FF403FFFE00
3FF001FFF800
7FF0006F9000
ENDCHAR
STARTCHAR Itilde
ENCODING 296
SWIDTH 375 0
DWIDTH 14 0
BBX 19 33 0 0
BITMAP
0001BF9000
000BFFFEA8
002ABFFFE0
000006FE40
0000000000
0000000000
00006BF400
0007FFF000
007FFFE000
01F9BFE000
0BE0BFD000
1FC0FFC000
3F41FFC000
7F01FF8000
BE02FF8000
BE03FF4000
BE03FF0000
7E07FF0000
1A0BFE0000
000BFD0000
000FFD0000
000FFC0000
001FF80000
002FF80000
002FF40000
003FF00000
007FF00000
007FE00000
00BFE00000
00FFD00000
00FFC00000
01FFC00000
02FF800000
ENDCHAR
STARTCHAR itilde
ENCODING 297
SWIDTH 267 0
DWIDTH 10 0
BBX 12 25 -1 0
BITMAP
005400
02FF81
0BFFFC
1ABFF4
000540
000000
000000
02FF80
03FF40
03FF00
07FF00
0BFE00
0BFD00
0FFD00
0FFC00
1FF800
2FF800
2FF400
3FF406
7FF00E
7FF02D
7FFAB8
3FFFF0
2FFF80
07F900
ENDCHAR
STARTCHAR Imacron
ENCODING 298
SWIDTH 375 0
DWIDTH 14 0
BBX 18 33 0 0
BITMAP
0001555540
000FFFFFD0
001FFFFFD0
0000000000
0000000000
0000000000
00006BF400
0007FFF000
007FFFE000
01F9BFE000
0BE0BFD000
1FC0FFC000
3F41FFC000
7F01FF8000
BE02FF8000
BE03FF4000
BE03FF0000
7E07FF0000
1A0BFE0000
000BFD0000
000FFD0000
000FFC0000
001FF80000
002FF80000
002FF40000
003FF00000
007FF00000
007FE00000
00BFE00000
00FFD00000
00FFC00000
01FFC00000
02FF800000
ENDCHAR
STARTCHAR imacron
ENCODING 299
SWIDTH 267 0
DWIDTH 10 0
BBX 12 24 -1 0
BITMAP
0BFFFE
0FFFFD
055554
000000
000000
000000
02FF80
03FF40
03FF00
07FF00
0BFE00
0BFD00
0FFD00
0FFC00
1FF800
2FF800
2FF400
3FF406
7FF00E
7FF02D
7FFAB8
3FFFF0
2FFF80
07F900
ENDCHAR
STARTCHAR Ibreve
ENCODING 300
SWIDTH 375 0
DWIDTH 14 0
BBX 19 34 0 0
BITMAP
0006900068
000BE001FC
0007F40BF4
0002FFFFD0
00006FF900
0000000000
0000000000
00006BF400
0007FFF000
007FFFE000
01F9BFE000
0BE0BFD000
1FC0FFC000
3F41FFC000
7F01FF8000
BE02FF8000
BE03FF4000
BE03FF0000
7E07FF0000
1A0BFE0000
000BFD0000
000FFD0000
000FFC0000
001FF80000
002FF80000
002FF40000
003FF00000
007FF00000
007FE00000
00BFE00000
00FFD00000
00FFC00000
01FFC00000
02FF800000
ENDCHAR
STARTCHAR ibreve
ENCODING 301
SWIDTH 267 0
DWIDTH 10 0
BBX 13 26 -1 0
BITMAP
0BC00B80
0BC01F40
07E07E00
02FFF800
00BF9000
00000000
00000000
00000000
02FF8000
03FF4000
03FF0000
07FF0000
0BFE0000
0BFD0000
0FFD0000
0FFC0000
1FF80000
2FF80000
2FF40000
3FF40600
7FF00E00
7FF02D00
7FFAB800
3FFFF000
2FFF8000
07F90000
ENDCHAR
STARTCHAR Iogonek
ENCODING 302
SWIDTH 375 0
DWIDTH 14 0
BBX 15 43 0 -7
BITMAP
000BF000
0007F000
0003F400
0002F400
0001F800
0001F800
0000FC00
00000000
00000000
00006BF4
0007FFF0
007FFFE0
01F8BFE0
0BE0BFD0
1FC0FFC0
3F41FFC0
7F01FF80
BE02FF80
BE03FF40
BE03FF00
7E07FF00
1A0BFE00
000BFD00
000FFD00
000FFC00
001FF800
002FF800
002FF400
003FF000
007FF000
007FE000
00BFE000
00FFD000
00FFC000
01FFC000
02FF8000
00B40000
02D00000
07C00000
0BD00000
0BE07000
07FFD000
01FE4000
ENDCHAR
STARTCHAR iogonek
ENCODING 303
SWIDTH 267 0
DWIDTH 10 0
BBX 13 32 -2 -7
BITMAP
0007D000
001FF400
002FF800
002FF800
001FF400
0007E000
00000000
00BFE000
00FFD000
00FFC000
01FFC000
02FF8000
02FF4000
03FF4000
03FF0000
07FE0000
0BFE0000
0BFD0000
0FFD0180
1FFC0380
1FFC0B40
1FFEAE00
0FFFFC00
0BFFE000
02FE4000
0B400000
2E000000
7D000000
7E000000
7F464000
3FFE0000
1FF40000
ENDCHAR
STARTCHAR Idotaccent
ENCODING 304
SWIDTH 375 0
DWIDTH 14 0
BBX 16 35 0 0
BITMAP
000002F4
00000BFD
00000FFE
00000FFE
00000BFD
000002F4
00000000
00000000
00006BF4
0007FFF0
007FFFE0
01F9BFE0
0BE0BFD0
1FC0FFC0
3F41FFC0
7F01FF80
BE02FF80
BE03FF40
BE03FF00
7E07FF00
1A0BFE00
000BFD00
000FFD00
000FFC00
001FF800
002FF800
002FF400
003FF000
007FF000
007FE000
00BFE000
00FFD000
00FFC000
01FFC000
02FF8000
ENDCHAR
STARTCHAR dotlessi
ENCODING 305
SWIDTH 267 0
DWIDTH 10 0
BBX 12 18 -1 0
BITMAP
02FF80
03FF40
03FF00
07FF00
0BFE00
0BFD00
0FFD00
0FFC00
1FF800
2FF800
2FF400
3FF406
7FF00E
7FF02D
7FFAB8
3FFFF0
2FFF80
07F900
ENDCHAR
STARTCHAR IJ
ENCODING 306
SWIDTH 663 0
DWIDTH 24 0
BBX 24 34 0 -7
BITMAP
00006BF4005B
0007FFF007FF
007FFFE007FE
01F8BFE00BFD
0BE0BFD00FFD
1FC0FFC00FFC
3F41FFC01FFC
7F01FF802FF8
BE02FF802FF4
BE03FF403FF4
BE03FF007FF0
7E07FF007FE0
1A0BFE00BFE0
000BFD00FFD0
000FFD00FFC0
000FFC01FFC0
001FF802FF80
002FF802FF80
002FF403FF40
003FF007FF00
007FF007FF00
007FE00BFE00
00BFE00FFD00
00FFD00FFD00
00FFC01FFC00
01FFF42FF800
02FFFD2FF800
00BFAD3FF400
00FE007FF000
00FC00BFD000
00FD00FF8000
00BE46FF0000
002FFFFD0000
000BFF900000
ENDCHAR
STARTCHAR ij
ENCODING 307
SWIDTH 507 0
DWIDTH 18 0
BBX 21 34 -1 -9
BITMAP
001F4006E000
007FD00FF800
00BFE01FFC00
00BFE01FFC00
007FD00FF800
001F8006E000
000000000000
02FF803FF400
03FF407FF000
03FF007FE000
07FF00BFE000
0BFE00FFD000
0BFD00FFC000
0FFD01FFC000
0FFC01FF8000
1FF802FF4000
2FF803FF4000
2FF403FF0000
3FF407FE0140
7FF00BFE0340
7FF00BFD0B00
7FF94FFC1D00
3FFF5FFC7800
2FFE1FFFE000
07F42FFE4000
0001BFF40000
000BFFF00000
007D7FF00000
00F0BFE00000
01D0FFD00000
02D1FFC00000
02FBFF400000
00FFFE000000
002FE4000000
ENDCHAR
STARTCHAR Jcircumflex
ENCODING 308
SWIDTH 536 0
DWIDTH 19 0
BBX 23 43 0 -7
BITMAP
000000000040
0000000003D0
000000000FD0
000000007FE0
00000001FEF0
00000007E4B4
0000001E4028
000000140004
000000000000
00000001BF80
0000002FFF40
000002FFFF40
00000BE3FF00
00003F47FF00
0000BE0BFE00
0001FC0BFD00
0003F80FFD00
0007F41FFC00
0007F01FF800
0003F02FF800
0002F03FF400
0000643FF000
0000007FF000
000000BFE000
000000BFD000
000000FFD000
000001FFC000
000001FFC000
000002FF8000
000003FF4000
000003FF4000
000007FF0000
00000BFE0000
00540BFE0000
0BFF0FFD0000
2FFF5FFC0000
3FEA6FF80000
7F002FF40000
7E003FF00000
7E00BFD00000
3F96FF800000
1FFFFD000000
02FF90000000
ENDCHAR
STARTCHAR jcircumflex
ENCODING 309
SWIDTH 240 0
DWIDTH 9 0
BBX 18 36 -8 -9
BITMAP
0000000740
0000001F80
000000BF80
000002FFC0
00000BE2D0
00002E00E0
0000A40060
0000000000
0000000000
00000BFE00
00000FFD00
00000FFC00
00001FFC00
00001FF800
00002FF800
00003FF400
00003FF000
00007FF000
0000BFE000
0000BFE000
0000FFD000
0001FFC0B0
0001FFC0E0
0002FF81C0
0002FF4740
0003FF5D00
0007FFE400
001FFF4000
01FFFE0000
0BFFFD0000
2F4FFC0000
3D1FF80000
782FF40000
3D7FE00000
2FFFC00000
06F9000000
ENDCHAR
STARTCHAR Kcommaaccent
ENCODING 310
SWIDTH 601 0
DWIDTH 22 0
BBX 24 36 0 -9
BITMAP
00006BF401FD
0007FFF003F8
006FFFE00BE0
01FDBFE01FC0
07F0BFD03F40
1FC0FFD0BD00
3F41FFC2F400
7F01FF87E000
BE02FF8F8000
BE03FF6F0000
BE03FFBD0000
7E07FFF40000
1E07FFFFE000
000BFEAFFC00
000FFD0BFD00
000FFC07FE00
001FFC07FE00
002FF807FD00
002FF40BFD00
003FF40FFC00
007FF00FF800
007FE01FF400
00BFE02FF400
00FFD03FF000
00FFC03FF000
01FFC03FF000
02FF802FF800
000000055000
000000000000
00001F400000
00003F800000
00002F800000
00000F400000
00000F000000
00002C000000
000010000000
ENDCHAR
STARTCHAR kcommaaccent
ENCODING 311
SWIDTH 518 0
DWIDTH 19 0
BBX 22 34 -2 -9
BITMAP
0006BC000000
001FFC000000
002FF8000000
002FF4000000
003FF4000000
007FF0000000
007FE0000000
00BFE007F400
00BFD01F8000
00FFC0BD0000
01FFC2F40000
01FF9F800000
02FFFFF90000
03FFFFFF0000
03FFFFFF8000
07FF82FFC000
0BFE01FFC000
0BFD01FF8000
0FFD02FF8010
1FFC02FF40B0
1FF803FF41D0
2FF803FF87C0
3FF402FFFF40
3FF001FFFD00
7FF0006FE000
000000000000
000000000000
0001F4000000
0003F8000000
0002F8000000
0000F4000000
0000E0000000
0002C0000000
000100000000
ENDCHAR
STARTCHAR kgreenlandic
ENCODING 312
SWIDTH 518 0
DWIDTH 19 0
BBX 22 18 -2 0
BITMAP
00BFE007F400
00FFD01F8000
00FFC0BD0000
01FFC2F40000
02FF9F800000
02FFFFF90000
03FFFFFF0000
03FFFFFF8000
07FF82FFC000
0BFE01FFC000
0BFD01FF8000
0FFD02FF8010
1FFC02FF40B0
1FF803FF41D0
2FF803FF87C0
3FF402FFFF40
3FF001FFFD00
7FF0006FE000
ENDCHAR
STARTCHAR Lacute
ENCODING 313
SWIDTH 379 0
DWIDTH 14 0
BBX 24 44 0 -9
BITMAP
0000000FE000
0000002FC000
0000003F4000
000000BE0000
000000FC0000
000002F40000
000001900000
000000000000
00006BF40000
0007FFF00000
007FFFE00000
01F9BFE00000
0BE0BFD00000
1FC0FFC00000
3F41FFC00000
7F01FF800000
BE02FF400000
BE03FF400000
BE03FF000000
7E07FF000000
1A0BFE000000
000BFD000000
000FFD000000
001FFC000000
001FF8000000
002FF8000000
002FF4000000
003FF0000000
007FF0000000
007FE0000000
00BFD0000000
00FFD0000000
00FFC0000000
01FFC0000000
02FFE4000000
01AFFF400000
0001BFE40000
00001FFE0000
000007FFE405
000000BFFFFE
0000002FFFFD
00000007FFFC
00000000BFF8
000000001BE0
ENDCHAR
STARTCHAR lacute
ENCODING 314
SWIDTH 267 0
DWIDTH 10 0
BBX 14 34 -1 0
BITMAP
00000A90
00001FD0
00003F80
00007F00
0000FD00
0001F800
0002F000
00029000
00000000
00056000
007FF000
007FE000
00BFD000
00FFD000
00FFC000
01FF8000
02FF8000
02FF4000
03FF0000
07FF0000
07FE0000
0BFE0000
0FFD0000
0FFC0000
1FFC0000
2FF80000
2FF40000
3FF40500
3FF00A00
7FF02D00
7FFAB800
3FFFF000
2FFF8000
07F90000
ENDCHAR
STARTCHAR Lcommaaccent
ENCODING 315
SWIDTH 379 0
DWIDTH 14 0
BBX 24 36 0 -9
BITMAP
00006BF40000
0007FFF00000
007FFFE00000
01F9BFE00000
0BE0BFD00000
1FC0FFC00000
3F41FFC00000
7F01FF800000
BE02FF400000
BE03FF400000
BE03FF000000
7E07FF000000
1A0BFE000000
000BFD000000
000FFD000000
001FFC000000
001FF8000000
002FF8000000
002FF4000000
003FF0000000
007FF0000000
007FE0000000
00BFD0000000
00FFD0000000
00FFC0000000
01FFC0000000
02FFE4000000
01AFFF400000
0001BFE40000
01A01FFE0000
03F807FFE405
03F800BFFFFE
01F4002FFFFD
00F00007FFFC
01D00000BFF8
024000001BE0
ENDCHAR
STARTCHAR lcommaaccent
ENCODING 316
SWIDTH 267 0
DWIDTH 10 0
BBX 12 34 -1 -9
BITMAP
0016B0
007FF0
00BFE0
00BFD0
00FFD0
01FFC0
01FF80
02FF80
02FF40
03FF00
07FF00
07FE00
0BFD00
0FFD00
0FFC00
1FF800
2FF800
2FF400
3FF405
7FF00A
7FF02D
7FFAB8
3FFFF0
2FFF80
07F900
000000
000000
1F4000
3FC000
2F8000
0F8000
0F0000
2D0000
100000
ENDCHAR
STARTCHAR Lcaron
ENCODING 317
SWIDTH 379 0
DWIDTH 14 0
BBX 24 44 0 -9
BITMAP
00000A001B40
00000781BD00
000003DBE000
000002FF8000
000001FE0000
000000F40000
000000500000
000000000000
00006BF40000
0007FFF00000
007FFFE00000
01F9BFE00000
0BE0BFD00000
1FC0FFC00000
3F41FFC00000
7F01FF800000
BE02FF400000
BE03FF400000
BE03FF000000
7E07FF000000
1A0BFE000000
000BFD000000
000FFD000000
001FFC000000
001FF8000000
002FF8000000
002FF4000000
003FF0000000
007FF0000000
007FE0000000
00BFD0000000
00FFD0000000
00FFC0000000
01FFC0000000
02FFE4000000
01AFFF400000
0001BFE40000
00001FFE0000
000007FFE405
000000BFFFFE
0000002FFFFD
00000007FFFC
00000000BFF8
000000001BE0
ENDCHAR
STARTCHAR lcaron
ENCODING 318
SWIDTH 267 0
DWIDTH 10 0
BBX 16 27 -1 0
BITMAP
000001B8
000002FD
000562FD
007FF1FD
007FE0BC
00BFD0B4
00FFD1D0
00FFC140
01FFC000
02FF8000
02FF4000
03FF4000
07FF0000
07FE0000
0BFE0000
0FFD0000
0FFC0000
1FFC0000
2FF80000
2FF40000
3FF40500
3FF00A00
7FF02D00
7FF9B800
3FFFF000
2FFF8000
07F90000
ENDCHAR
STARTCHAR Ldot
ENCODING 319
SWIDTH 605 0
DWIDTH 22 0
BBX 24 36 0 -9
BITMAP
00006BF40000
0007FFF00000
006FFFE00000
01FDBFE00000
07E0BFD00000
1FC0FFC00000
3F41FFC00000
7F01FF800000
BE02FF400000
BE03FF400000
BE03FF000000
7E07FF000000
1E0BFE000000
000BFD000000
000FFD000000
000FFC01B800
001FF803FE00
002FF807FF00
002FF407FF00
003FF003FE00
007FF001F800
007FE0000000
00BFE0000000
00FFD0000000
00FFC0000000
01FFC0000000
02FFE4000000
01AFFE400000
0001BFE00000
00001FFE0000
000007FFE405
000000BFFFFE
0000002FFFFD
00000007FFFC
00000000BFF8
000000001BE0
ENDCHAR
STARTCHAR ldot
ENCODING 320
SWIDTH 353 0
DWIDTH 13 0
BBX 14 26 -1 0
BITMAP
00015000
007FF000
007FE000
00BFE000
00FFD000
00FFC000
01FFC000
01FF8000
02FF4000
03FF4000
03FF0000
07FE1F40
0BFE3FD0
0BFD3FD0
0FFC3FD0
1FFC1F40
1FF80000
2FF40000
3FF40000
3FF00000
7FF00000
7FF40000
7FFF4000
3FFF0000
2FFE0000
07F40000
ENDCHAR
STARTCHAR Lslash
ENCODING 321
SWIDTH 392 0
DWIDTH 14 0
BBX 24 36 0 -9
BITMAP
00006BF40000
0007FFF00000
007FFFE00000
01F9BFE00000
0BE0BFD00000
1FC0FFD00000
3F41FFC00000
7F01FF814000
BE02FF8B4000
BE03FFBE0000
BE03FFF40000
7E07FF800000
1A07FE000000
000BFD000000
002FFD000000
01FFFC000000
02AFF8000000
012FF8000000
002FF4000000
003FF0000000
007FF0000000
007FE0000000
00BFD0000000
00FFD0000000
00FFC0000000
01FFC0000000
02FFE4000000
01AFFF400000
0001BFE40000
00001FFE0000
000007FFE405
000000BFFFFE
0000002FFFFD
00000007FFFC
00000000BFF8
000000001BE0
ENDCHAR
STARTCHAR lslash
ENCODING 322
SWIDTH 286 0
DWIDTH 10 0
BBX 14 25 -2 0
BITMAP
0005AC00
001FFC00
002FF800
002FF400
003FF400
007FF000
007FE060
00BFE6E0
00BFFF80
00FFF900
01FFD000
01FF8000
02FF4000
1FFF4000
7FFF0000
67FE0000
0BFE0000
0BFD0000
0FFD0140
1FFC0280
1FFC0B40
1FFEAE00
0FFFFC00
0BFFE000
01FE4000
ENDCHAR
STARTCHAR Nacute
ENCODING 323
SWIDTH 702 0
DWIDTH 25 0
BBX 26 36 0 0
BITMAP
00000000001A40
00000000007F40
0000000000BE00
0000000001FC00
0000000002F400
0000000007E000
000000000BD000
00000000064000
00000000000000
0001BFE0000BE0
002FFFF4000FE0
01FFBFF4000FD0
07F87FF8001FC0
0FE0BFFC002FC0
2F80FFFC002F80
7F40FFFD003F40
BF01FFFE007F40
BE02FFFE007F00
BE02FFFF00BE00
BF03FBFF40BE00
7F07F6FF40FD00
1F47F1FF81FC00
010BF0FFC1FC00
000FE0FFC2F800
000FD0BFD2F400
001FD07FE3F400
002FC07FE7F000
002F803FF7E000
003F402FFFE000
007F402FFFD000
007F001FFFD000
00BE000FFFC000
00FE000BFF8000
00FD000BFF8000
01FC0007FF4000
02FC0003FF0000
ENDCHAR
STARTCHAR nacute
ENCODING 324
SWIDTH 505 0
DWIDTH 18 0
BBX 22 27 -2 0
BITMAP
00000007F400
0000000FE000
0000001FC000
0000003F4000
0000007E0000
000000FC0000
000001A40000
000000000000
000000000000
00BFE6FE0000
00FFEFFF8000
00FFFFFFD000
01FFE0FFD000
02FFC0BFD000
02FF80BFD000
03FF40FFC000
03FF00FFC000
07FE01FF8000
0BFE01FF4000
0BFD02FF4000
0FFD03FF0040
1FFC03FE00D0
1FF807FE02C0
2FF807FF0B40
3FF403FFFE00
3FF001FFF800
7FF0006F9000
ENDCHAR
STARTCHAR Ncommaaccent
ENCODING 325
SWIDTH 668 0
DWIDTH 24 0
BBX 26 36 0 -9
BITMAP
0001BFE0000BE0
002FFFF4000FE0
01FFBFF4000FD0
07F87FF8001FC0
0FE0BFFC002FC0
2F80FFFC002F80
7F40FFFD003F40
BF01FFFE007F40
BE02FFFE007F00
BE02FFFF00BE00
BF03FBFF40BE00
7F07F6FF40FD00
1F47F1FF81FC00
010BF0FFC1FC00
000FE0FFC2F800
000FD0BFD2F400
001FD07FE3F400
002FC07FE7F000
002F803FF7E000
003F402FFFE000
007F402FFFD000
007F001FFFD000
00BE000FFFC000
00FE000BFF8000
00FD000BFF8000
01FC0007FF4000
02FC0003FF0000
00000000000000
00000000000000
00002F40000000
00003F80000000
00002F80000000
00000F40000000
00000E00000000
00002800000000
00001000000000
ENDCHAR
STARTCHAR ncommaaccent
ENCODING 326
SWIDTH 505 0
DWIDTH 18 0
BBX 22 27 -2 -9
BITMAP
00BFE6FE0000
00FFEFFF8000
00FFFFFFD000
01FFE0FFD000
02FFC0BFD000
02FF80BFD000
03FF40FFC000
03FF00FFC000
07FE01FF8000
0BFE01FF4000
0BFD02FF4000
0FFD03FF0040
1FFC03FE00D0
1FF807FE02C0
2FF807FF0B40
3FF403FFFE00
3FF001FFF800
7FF0006F9000
000000000000
000000000000
0007D0000000
000FE0000000
000BE0000000
0003D0000000
000380000000
000B00000000
000400000000
ENDCHAR
STARTCHAR Ncaron
ENCODING 327
SWIDTH 668 0
DWIDTH 24 0
BBX 26 36 0 0
BITMAP
00000000400050
00000000A006D0
00000000B46F40
000000007EFD00
000000003FF400
000000002FC000
000000001E0000
00000000040000
00000000000000
0001BFE0000BE0
002FFFF4000FE0
01FFBFF4000FD0
07F87FF8001FC0
0FE0BFFC002FC0
2F80FFFC002F80
7F40FFFD003F40
BF01FFFE007F40
BE02FFFE007F00
BE02FFFF00BE00
BF03FBFF40BE00
7F07F6FF40FD00
1F47F1FF81FC00
010BF0FFC1FC00
000FE0FFC2F800
000FD0BFD2F400
001FD07FE3F400
002FC07FE7F000
002F803FF7E000
003F402FFFE000
007F402FFFD000
007F001FFFD000
00BE000FFFC000
00FE000BFF8000
00FD000BFF8000
01FC0007FF4000
02FC0003FF0000
ENDCHAR
STARTCHAR ncaron
ENCODING 328
SWIDTH 505 0
DWIDTH 18 0
BBX 22 27 -2 0
BITMAP
00007000B400
0000380BD000
00002DBF4000
00001FFC0000
00001FE00000
00000F800000
000006000000
000000000000
000000000000
00BFE6FE0000
00FFEFFF8000
00FFFFFFD000
01FFE0FFD000
02FFC0BFD000
02FF80BFD000
03FF40FFC000
03FF00FFC000
07FE01FF8000
0BFE01FF4000
0BFD02FF4000
0FFD03FF0040
1FFC03FE00D0
1FF807FE02C0
2FF807FF0B40
3FF403FFFE00
3FF001FFF800
7FF0006F9000
ENDCHAR
STARTCHAR napostrophe
ENCODING 329
SWIDTH 505 0
DWIDTH 18 0
BBX 22 27 -2 0
BITMAP
00B800000000
02FE00000000
01FE00000000
00BD00000000
007C00000000
00B400000000
01D000000000
004000000000
000000000000
00BFE6FE0000
00FFEFFF8000
00FFFFFFD000
01FFE0FFD000
02FFC0BFD000
02FF80BFD000
03FF40FFC000
03FF00FFC000
07FE01FF8000
0BFE01FF4000
0BFD02FF4000
0FFD03FF0040
1FFC03FE00D0
1FF807FE02C0
2FF807FF0B40
3FF403FFFE00
3FF001FFF800
7FF0006F9000
ENDCHAR
STARTCHAR Eng
ENCODING 330
SWIDTH 723 0
DWIDTH 26 0
BBX 26 34 2 -7
BITMAP
0006BF90000FE0
006FFFF0000FD0
01FFFFF4001FD0
0BF8BFF4002FC0
1FD0FFF8002F80
3F80FFFC003F40
BF01FFFC003F40
FE02FFFD007F00
FD03FFFD00BE00
FD03FFFE00BE00
FD07F7FF00FD00
BE0BF3FF01FC00
2F0BE2FF41FC00
010FD1FF82F800
001FD0FF83F400
001FC0FFC3F400
002F80BFD7F000
003F807FDBE000
003F403FEBE000
007F002FFFD000
00BF002FFFC000
00BE001FFFC000
00FD000FFF8000
01FC000BFF4000
01FC0007FF0000
02F80003FF0000
03F40003FE0000
0001A403FC0000
0007F007F80000
0007E00BF40000
0007E01FE00000
0003F47F800000
0001FFFE000000
00001AA0000000
ENDCHAR
STARTCHAR eng
ENCODING 331
SWIDTH 505 0
DWIDTH 18 0
BBX 17 27 -2 -9
BITMAP
00BFD6FE00
00FFEFFF80
00FFFFFFC0
01FFF5FFC0
02FFC0BFC0
02FF80BFC0
03FF40FFC0
07FF00FFC0
07FE01FF80
0BFE01FF40
0BFD02FF40
0FFC03FF00
1FFC03FF00
1FF807FE00
2FF80BFD00
3FF40BFD00
3FF00FFC00
7FF01FF800
0000BFF800
000BFFF400
002D3FF000
00A03FF000
00D07FE000
01C0FFD000
00D6FF8000
00BFFE0000
001BE40000
ENDCHAR
STARTCHAR Omacron
ENCODING 332
SWIDTH 665 0
DWIDTH 24 0
BBX 24 33 0 0
BITMAP
00000FFFFFE0
00000FFFFFD0
000005555540
000000000000
000000000000
000000000000
000006BFE800
0001BFFFFF80
001FF955BFE0
00BF80541FF4
02FD0BF80BF8
0BF42FE007FC
1FD0BFC007FD
3F81FF8007FE
7F43FF0007FE
7F0BFE0007FE
7F0FFD0007FE
3F1FFC0007FD
1B2FF8000BFD
003FF4000BFC
007FF0000FFC
00BFE0001FF8
00BFE0002FF4
00FFD0003FF0
00FFD0007FE0
00FFD000FFC0
00FFD001FF80
00FFD003FF00
00BFE00BFD00
00BFF06FF400
003FFFFFD000
001FFFFE0000
0002BFA40000
ENDCHAR
STARTCHAR omacron
ENCODING 333
SWIDTH 433 0
DWIDTH 16 0
BBX 21 24 -1 0
BITMAP
003FFFFF4000
007FFFFF0000
001555550000
000000000000
000000000000
000000000000
0006FE400000
002FFFE00000
00BFD6F40000
02FF41F80000
07FE02F802C0
0FFD07F96E00
1FFC07FFE400
2FF402F90000
3FF402F40000
7FF002F40000
BFE003F00000
BFE007E00000
BFE00BD00000
BFE01FC00000
7FF47F400000
3FFFFD000000
1FFFF4000000
02FE80000000
ENDCHAR
STARTCHAR Obreve
ENCODING 334
SWIDTH 665 0
DWIDTH 24 0
BBX 24 34 0 0
BITMAP
000003F4007F
000003F800BE
000001FD06F8
000000BFFFE0
0000001BF900
000000000000
000000000000
000006BFE800
0001BFFFFF80
001FF955BFE0
00BF80541FF4
02FD0BF80BF8
0BF42FE007FC
1FD0BFC007FD
3F81FF8007FE
7F43FF0007FE
7F0BFE0007FE
7F0FFD0007FE
3F1FFC0007FD
1B2FF8000BFD
003FF4000BFC
007FF0000FFC
00BFE0001FF8
00BFE0002FF4
00FFD0003FF0
00FFD0007FE0
00FFD000FFC0
00FFD001FF80
00FFD003FF00
00BFE00BFD00
00BFF06FF400
003FFFFFD000
001FFFFE0000
0002BFA40000
ENDCHAR
STARTCHAR obreve
ENCODING 335
SWIDTH 433 0
DWIDTH 16 0
BBX 21 26 -1 0
BITMAP
003F0007E000
003F400FD000
002FD07F8000
000FFFFD0000
0001BF900000
000000000000
000000000000
000000000000
0006FE400000
002FFFE00000
00BFD6F40000
02FF41F80000
07FE02F802C0
0FFD07F96E00
1FFC07FFE400
2FF402F90000
3FF402F40000
7FF002F40000
BFE003F00000
BFE007E00000
BFE00BD00000
BFE01FC00000
7FF47F400000
3FFFFD000000
1FFFF4000000
02FE80000000
ENDCHAR
STARTCHAR Ohungarumlaut
ENCODING 336
SWIDTH 665 0
DWIDTH 24 0
BBX 26 36 0 0
BITMAP
00000000BF0BF0
00000000FD1FD0
00000002F82F40
00000003F07E00
00000007D0BC00
0000000F40F400
0000001E02E000
00000000000000
00000000000000
000006BFE80000
0001BFFFFF8000
001FF955BFE000
00BF80541FF400
02FD0BF80BF800
0BF42FE007FC00
1FD0BFC007FD00
3F81FF8007FE00
7F43FF0007FE00
7F0BFE0007FE00
7F0FFD0007FE00
3F1FFC0007FD00
1B2FF8000BFD00
003FF4000BFC00
007FF0000FFC00
00BFE0001FF800
00BFE0002FF400
00FFD0003FF000
00FFD0007FE000
00FFD000FFC000
00FFD001FF8000
00FFD003FF0000
00BFE00BFD0000
00BFF06FF40000
003FFFFFD00000
001FFFFE000000
0002BFA4000000
ENDCHAR
STARTCHAR ohungarumlaut
ENCODING 337
SWIDTH 433 0
DWIDTH 16 0
BBX 21 27 -1 0
BITMAP
00003F83F800
00007F07F000
0000BD0FD000
0001F81F4000
0002F03E0000
0007D07C0000
000B40B40000
000000000000
000000000000
0006FE400000
002FFFE00000
00BFD6F40000
02FF41F80000
07FE02F802C0
0FFD07F96E00
1FFC07FFE400
2FF402F90000
3FF402F40000
7FF002F40000
BFE003F00000
BFE007E00000
BFE00BD00000
BFE01FC00000
7FF47F400000
3FFFFD000000
1FFFF4000000
02FE80000000
ENDCHAR
STARTCHAR OE
ENCODING 338
SWIDTH 846 0
DWIDTH 30 0
BBX 33 27 0 0
BITMAP
000006BFEABFFFFF80
0001BFFFFFFFFFFF40
001FF955BFFFFFFF00
00BF81A81FF56BF800
02FD1FF40BF8000000
0BF47FE007FC000000
1FD0FFC007FD000000
3F82FF4007FD000000
7F47FF0007FE000000
7F0BFE0007FE000000
7F1FFC0007FE000000
3F2FFC0007FD000000
0A3FF8000BFFFF0000
007FF4000BFFFE0000
007FF0000FFEA90000
00BFE0001FF8000000
00BFE0002FF4000000
00FFD0003FF0000000
00FFD0007FE0000000
00FFD000BFC0000000
00FFD000FF80000000
00FFD002FF00000000
00BFD007FD00000000
00BFE01FFFFFFD0000
003FF5BFFFFFFD0000
001FFFFFFFFFFC0000
0001BFFFFFFFFC0000
ENDCHAR
STARTCHAR oe
ENCODING 339
SWIDTH 663 0
DWIDTH 24 0
BBX 27 18 -1 0
BITMAP
0006BE401BF800
002FFFD1FFFF00
00FFD6F7FF5F40
02FF01FFFD0B80
07FD02FFF80B80
0FFC07FFF00B40
1FF80BFFE01E00
2FF407FFD03D00
3FF001FFC1F400
3FE001FFEF8000
7FE002FFE40000
7FE003FF400038
7FE007FF4000B0
7FE00BFF8002D0
3FF42FFFC01B40
2FFFFEBFFABD00
0FFFF83FFFE000
02FF800BFE4000
ENDCHAR
STARTCHAR Racute
ENCODING 340
SWIDTH 601 0
DWIDTH 22 0
BBX 21 37 0 -1
BITMAP
000000006A00
00000000FE00
00000001FC00
00000003F400
00000007E000
0000000FC000
0000001F4000
000000000000
000000000000
00006BFE4000
0006FFFFF800
006FE556FE00
01FE0000BF40
07F45AD03F80
1FD0FFD02FC0
3F80FFC02FC0
7F41FFC03F80
BF02FF807F40
BE02FF40FF00
BE03FF42FD00
7E07FF1BF400
2E07FFFFE000
010BFFFFFC00
000FFD0BFD00
000FFC07FE00
001FFC07FE00
002FF807FD00
002FF40BFD00
003FF40BFC00
007FF00FF800
007FE01FF400
00BFE02FF400
00FFD03FF000
00FFC03FF000
01FFC03FF000
02FF802FF800
000000055000
ENDCHAR
STARTCHAR racute
ENCODING 341
SWIDTH 376 0
DWIDTH 14 0
BBX 16 27 -2 0
BITMAP
000000BF
000000FD
000002F8
000003F4
00000BE0
00000FC0
00001A40
00000000
00000000
00BFE1F8
00FFDFFE
00FFFFFF
01FFD0FE
02FF80B8
02FF4000
03FF4000
03FF0000
07FE0000
0BFE0000
0BFD0000
0FFD0000
1FFC0000
1FF80000
2FF80000
3FF40000
3FF00000
7FF00000
ENDCHAR
STARTCHAR Rcommaaccent
ENCODING 342
SWIDTH 601 0
DWIDTH 22 0
BBX 21 36 0 -9
BITMAP
00006BFE4000
0006FFFFF800
006FE556FE00
01FE0000BF40
07F45AD03F80
1FD0FFD02FC0
3F80FFC02FC0
7F41FFC03F80
BF02FF807F40
BE02FF40FF00
BE03FF42FD00
7E07FF1BF400
2E07FFFFE000
010BFFFFFC00
000FFD0BFD00
000FFC07FE00
001FFC07FE00
002FF807FD00
002FF40BFD00
003FF40BFC00
007FF00FF800
007FE01FF400
00BFE02FF400
00FFD03FF000
00FFC03FF000
01FFC03FF000
02FF802FF800
000000055000
000000000000
00007E000000
0000BF000000
00007F000000
00002E000000
00002D000000
000074000000
000010000000
ENDCHAR
STARTCHAR rcommaaccent
ENCODING 343
SWIDTH 376 0
DWIDTH 14 0
BBX 16 27 -2 -9
BITMAP
00BFE1F8
00FFDFFE
00FFFFFF
01FFD0FE
02FF80B8
02FF4000
03FF4000
03FF0000
07FE0000
0BFE0000
0BFD0000
0FFD0000
1FFC0000
1FF80000
2FF80000
3FF40000
3FF00000
7FF00000
00000000
00000000
00B80000
01FD0000
00FD0000
007C0000
00780000
00E00000
00400000
ENDCHAR
STARTCHAR Rcaron
ENCODING 344
SWIDTH 601 0
DWIDTH 22 0
BBX 23 37 0 -1
BITMAP
000000500014
0000007402E0
0000003C2F80
0000002FFD00
0000001FF400
0000000FC000
0000000A0000
000000000000
000000000000
00006BFE4000
0006FFFFF800
006FE556FE00
01FE0000BF40
07F45AD03F80
1FD0FFD02FC0
3F80FFC02FC0
7F41FFC03F80
BF02FF807F40
BE02FF40FF00
BE03FF42FD00
7E07FF1BF400
2E07FFFFE000
010BFFFFFC00
000FFD0BFD00
000FFC07FE00
001FFC07FE00
002FF807FD00
002FF40BFD00
003FF40BFC00
007FF00FF800
007FE01FF400
00BFE02FF400
00FFD03FF000
00FFC03FF000
01FFC03FF000
02FF802FF800
000000055000
ENDCHAR
STARTCHAR rcaron
ENCODING 345
SWIDTH 376 0
DWIDTH 14 0
BBX 17 27 -2 0
BITMAP
0007000B40
0003807D00
0002E7F400
0001FFD000
0000FF0000
0000B80000
0000600000
0000000000
0000000000
00BFE1F800
00FFDFFE00
00FFFFFF00
01FFD0FE00
02FF80B800
02FF400000
03FF400000
03FF000000
07FE000000
0BFE000000
0BFD000000
0FFD000000
1FFC000000
1FF8000000
2FF8000000
3FF4000000
3FF0000000
7FF0000000
ENDCHAR
STARTCHAR Sacute
ENCODING 346
SWIDTH 570 0
DWIDTH 21 0
BBX 19 37 1 -1
BITMAP
00000001A4
00000007F4
0000000FE0
0000001FC0
0000003F40
0000007E00
000000FC00
0000000000
0000000000
00006BF900
0002FFFFD0
000BFE5BF0
002FF402F8
007FF002FC
007FE002FC
00BFE003F8
007FF00BF4
007FF80290
002FFD0000
001FFF4000
000BFFD000
0002FFF000
0000BFFC00
00003FFE00
00001FFF40
06FD07FFC0
1FFF02FFD0
3FF901FFD0
7FC000FFD0
BF8000FFD0
BF4000FFD0
BF4001FF80
7F8003FF40
2FE41FFD00
0FFFFFF400
02FFFF8000
0015540000
ENDCHAR
STARTCHAR sacute
ENCODING 347
SWIDTH 382 0
DWIDTH 14 0
BBX 16 27 -1 0
BITMAP
000001FD
000002F8
000007F0
00000BD0
00001F80
00002F40
00002900
00000000
0006AE00
000FFE00
001FFE00
002FFE00
007FFE00
00BBFE00
00E7FF00
01D7FF00
0387FF00
0743FF00
0E03FF40
2E03FF40
BF43FF46
FE03FF6D
F007FFF4
F41FFF80
BFFFFD00
2FFFE000
06FE4000
ENDCHAR
STARTCHAR Scircumflex
ENCODING 348
SWIDTH 570 0
DWIDTH 21 0
BBX 19 37 1 -1
BITMAP
0000000140
0000000B80
0000002FC0
000000BFD0
000007FAE0
00001F80B0
0000780034
0000000000
0000000000
00006BF900
0002FFFFD0
000BFE5BF0
002FF402F8
007FF002FC
007FE002FC
00BFE003F8
007FF00BF4
007FF80290
002FFD0000
001FFF4000
000BFFD000
0002FFF000
0000BFFC00
00003FFE00
00001FFF40
06FD07FFC0
1FFF02FFD0
3FF901FFD0
7FC000FFD0
BF8000FFD0
BF4000FFD0
BF4001FF80
7F8003FF40
2FE41FFD00
0FFFFFF400
02FFFF8000
0015540000
ENDCHAR
STARTCHAR scircumflex
ENCODING 349
SWIDTH 382 0
DWIDTH 14 0
BBX 16 27 -1 0
BITMAP
00000700
00002F40
0000BF80
0002FFC0
000FE2D0
007E00E0
00A00060
00000000
0006AE00
000FFE00
001FFE00
002FFE00
007FFE00
00BBFE00
00E7FF00
01D7FF00
0387FF00
0743FF00
0E03FF40
2E03FF40
BF43FF46
FE03FF6D
F007FFF4
F41FFF80
BFFFFD00
2FFFE000
06FE4000
ENDCHAR
STARTCHAR Scedilla
ENCODING 350
SWIDTH 570 0
DWIDTH 21 0
BBX 19 35 1 -8
BITMAP
00002BF900
0002FFFFD0
000BFE5BF0
002FF402F8
007FF002FC
007FE002FC
00BFE003F8
007FF00BF4
007FF80690
003FFD0000
001FFF4000
000BFFC000
0002FFF000
0000FFF800
00007FFE00
00001FFF40
02F90BFF80
1FFF03FFC0
3FF901FFD0
7FD000FFD0
BF8000FFD0
BF4000FFD0
BF4001FFC0
7F8002FF40
3FD00BFE00
1FFEBFF400
02FFFF9000
0017940000
0007400000
000BFE0000
000ABF4000
00003F4000
00507F0000
00BFFD0000
001BE40000
ENDCHAR
STARTCHAR scedilla
ENCODING 351
SWIDTH 382 0
DWIDTH 14 0
BBX 16 27 -1 -8
BITMAP
0005A900
000FFE00
001FFE00
002FFE00
003FFE00
00BBFE00
00E7FF00
01D7FF00
0287FF00
0743FF00
0F03FF40
2E03FF40
BF43FF45
FE03FF6D
F007FFF4
F41FFF80
BFFFFD00
2FFFF400
07FE4000
01C00000
03950000
07FF4000
042FC000
001FC000
242F8000
3FFE0000
0BE40000
ENDCHAR
STARTCHAR Scaron
ENCODING 352
SWIDTH 570 0
DWIDTH 21 0
BBX 22 37 1 -1
BITMAP
000001400050
000001D00B80
000000F4BE00
000000BFF800
0000007FD000
0000003F4000
0000002C0000
000000000000
000000000000
00006BF90000
0002FFFFD000
000BFE5BF000
002FF402F800
007FF002FC00
007FE002FC00
00BFE003F800
007FF00BF400
007FF8029000
002FFD000000
001FFF400000
000BFFD00000
0002FFF00000
0000BFFC0000
00003FFE0000
00001FFF4000
06FD07FFC000
1FFF02FFD000
3FF901FFD000
7FC000FFD000
BF8000FFD000
BF4000FFD000
BF4001FF8000
7F8003FF4000
2FE41FFD0000
0FFFFFF40000
02FFFF800000
001554000000
ENDCHAR
STARTCHAR scaron
ENCODING 353
SWIDTH 369 0
DWIDTH 13 0
BBX 16 27 -1 0
BITMAP
000D001B
000B41B8
0007DBE0
0003FF80
0002FD00
0001F400
00009000
00000000
0005AE00
000FFE00
001FFE00
002FFE00
003FFE00
00BBFE00
00E7FF00
01D7FF00
0387FF00
0743FF00
0E03FF40
2E03FF40
BF43FF46
FF03FF6D
F007FFF4
F41FFF80
BFFFFD00
2FFFE000
06FE4000
ENDCHAR
STARTCHAR uni0162
ENCODING 354
SWIDTH 481 0
DWIDTH 17 0
BBX 26 35 0 -8
BITMAP
0001AFFA400010
002FFFFFF901A0
01FFFFFFFFFFE0
07FD47FFFFFFD0
1FE00BFFFFFF80
2F800BFE6BFE00
7F400FFE000000
7F001FFD000000
BE001FFC000000
BE002FF8000000
BE003FF8000000
BE003FF4000000
3E007FF0000000
06007FF0000000
0000BFE0000000
0000FFD0000000
0000FFD0000000
0001FFC0000000
0002FF80000000
0002FF80000000
0003FF40000000
0007FF00000000
0007FF00000000
000BFE00000000
000BFD00000000
000FFD00000000
001FFC00000000
0001D000000000
00028000000000
0007FF40000000
000ABF80000000
00002FC0000000
00202F80000000
003FFE00000000
000BE400000000
ENDCHAR
STARTCHAR uni0163
ENCODING 355
SWIDTH 267 0
DWIDTH 10 0
BBX 12 32 -1 -8
BITMAP
000150
00BFE0
00BFD0
00FFD0
01FFC0
01FF80
0FFFF8
03FF40
03FF00
07FF00
0BFE00
0BFD00
0FFD00
1FFC00
1FF800
2FF800
2FF400
3FF006
7FF00E
7FF02D
7FFAB8
3FFFF0
2FFF80
0BF900
070000
0E1000
1FFD00
2AFE00
007F00
80BE00
FFF800
2F9000
ENDCHAR
STARTCHAR Tcaron
ENCODING 356
SWIDTH 481 0
DWIDTH 17 0
BBX 26 36 0 0
BITMAP
00000140005000
000001D007C000
000000F07E0000
000000BFF80000
0000007FE00000
0000003F800000
0000002D000000
00000014000000
00000000000000
0001AFFA400010
002FFFFFF901A0
01FFFFFFFFFFE0
07FD47FFFFFFD0
1FE00BFFFFFF80
2F800BFE6BFE00
7F400FFE000000
7F001FFD000000
BE001FFC000000
BE002FF8000000
BE003FF8000000
BE003FF4000000
3E007FF0000000
06007FF0000000
0000BFE0000000
0000FFD0000000
0000FFD0000000
0001FFC0000000
0002FF80000000
0002FF80000000
0003FF40000000
0007FF00000000
0007FF00000000
000BFE00000000
000BFD00000000
000FFD00000000
001FFC00000000
ENDCHAR
STARTCHAR tcaron
ENCODING 357
SWIDTH 267 0
DWIDTH 10 0
BBX 16 27 -1 0
BITMAP
000000B9
000001FE
000001FE
000010BE
006FE03C
00BFD074
00FFD1E0
01FFC040
01FF8000
0FFFF800
03FF4000
03FF0000
07FF0000
0BFE0000
0BFD0000
0FFD0000
1FFC0000
1FF80000
2FF80000
2FF40000
3FF00600
7FF00E00
7FF02D00
7FFAB800
3FFFF000
2FFF8000
07F90000
ENDCHAR
STARTCHAR Tbar
ENCODING 358
SWIDTH 481 0
DWIDTH 17 0
BBX 26 27 0 0
BITMAP
0001AFFA400010
002FFFFFF901A0
01FFFFFFFFFFE0
07FD47FFFFFFD0
1FE00BFFBFFF80
2F800BFE06FE00
7F400FFD000000
BF000FFC000000
BE001FFC000000
BE002FF8000000
BE002FF4000000
BE003FF4000000
3E003FF0000000
05007FF0000000
0000BFE0000000
0000BFD0000000
02FFFFFFFC0000
03FFFFFFFC0000
0155FFD5500000
0002FF80000000
0002FF40000000
0003FF00000000
0007FF00000000
000BFE00000000
000BFD00000000
000FFD00000000
001FFC00000000
ENDCHAR
STARTCHAR tbar
ENCODING 359
SWIDTH 267 0
DWIDTH 10 0
BBX 12 24 -1 0
BITMAP
000150
00BFE0
00BFD0
00FFD0
01FFC0
01FF80
0FFFF8
03FF40
03FF00
07FF00
7FFFF4
BFFFF4
1FFD50
0FFD00
1FFC00
1FF800
2FF400
3FF401
3FF00A
7FF01D
7FF5B8
3FFFF0
2FFF80
06F900
ENDCHAR
STARTCHAR Utilde
ENCODING 360
SWIDTH 716 0
DWIDTH 26 0
BBX 27 33 0 0
BITMAP
00000001BF9414
0000001FFFFFF0
0000006AFFFF80
000000401BF900
00000000000000
00000000000000
00006BF8000FFC
000BFFFC001FFC
007FAFF8001FF8
02F82FF4002FF4
0BE03FF0002FF4
2F807FE0003FF0
7F00BFD0007FF0
BE00BFD0007FE0
FD00FFC000BFD0
FD01FF8000FFD0
FD02FF4000FFC0
BD02FF0001FF80
2D03FF0002FF80
0007FE0002FF40
000BFD0003FF00
000BFC0007FE00
000FFC000BFE00
001FF8000BFD00
001FF8000FFC00
001FF4001FF800
002FF4002FF400
002FF4007FE000
002FF800BFD000
001FFD06FF4000
000FFFFFFE0000
0003FFFFF40000
00006FFE400000
ENDCHAR
STARTCHAR utilde
ENCODING 361
SWIDTH 505 0
DWIDTH 18 0
BBX 21 25 -1 0
BITMAP
000055000000
0007FFE41400
002FFFFFE000
006ABFFF4000
000005540000
000000000000
000000000000
02FF80BFD000
03FF40FFD000
03FF01FFC000
07FF01FF8000
0BFE02FF8000
0BFD03FF4000
0FFD03FF0000
0FFC07FF0000
1FF807FE0000
2FF80BFD0000
2FF40FFD0000
3FF40FFC0240
7FF02FFC0740
7FF07FFC0E00
7FFAFFFEBD00
3FFFDFFFF800
2FFF47FFE000
07F901FE4000
ENDCHAR
STARTCHAR Umacron
ENCODING 362
SWIDTH 716 0
DWIDTH 26 0
BBX 27 33 0 0
BITMAP
0000001FFFFFD0
0000002FFFFFC0
00000005555500
00000000000000
00000000000000
00000000000000
00006BF8000FFC
000BFFFC001FFC
007FAFF8001FF8
02F82FF4002FF4
0BE03FF0002FF4
2F807FE0003FF0
7F00BFD0007FF0
BE00BFD0007FE0
FD00FFC000BFD0
FD01FF8000FFD0
FD02FF4000FFC0
BD02FF0001FF80
2D03FF0002FF80
0007FE0002FF40
000BFD0003FF00
000BFC0007FE00
000FFC000BFE00
001FF8000BFD00
001FF8000FFC00
001FF4001FF800
002FF4002FF400
002FF4007FE000
002FF800BFD000
001FFD06FF4000
000FFFFFFE0000
0003FFFFF40000
00006FFE400000
ENDCHAR
STARTCHAR umacron
ENCODING 363
SWIDTH 505 0
DWIDTH 18 0
BBX 21 24 -1 0
BITMAP
001FFFFFC000
002FFFFF8000
000555550000
000000000000
000000000000
000000000000
02FF80BFD000
03FF40FFD000
03FF01FFC000
07FF01FF8000
0BFE02FF8000
0BFD03FF4000
0FFD03FF0000
0FFC07FF0000
1FF807FE0000
2FF80BFD0000
2FF40FFD0000
3FF40FFC0240
7FF02FFC0740
7FF07FFC0E00
7FFAFFFEBD00
3FFFDFFFF800
2FFF47FFE000
07F901FE4000
ENDCHAR
STARTCHAR Ubreve
ENCODING 364
SWIDTH 716 0
DWIDTH 26 0
BBX 27 34 0 0
BITMAP
0000001F8002F4
0000001FC007F0
0000000FE42FD0
00000007FFFE40
00000001BFE400
00000000000000
00000000000000
00006BF8000FFC
000BFFFC001FFC
007FAFF8001FF8
02F82FF4002FF4
0BE03FF0002FF4
2F807FE0003FF0
7F00BFD0007FF0
BE00BFD0007FE0
FD00FFC000BFD0
FD01FF8000FFD0
FD02FF4000FFC0
BD02FF0001FF80
2D03FF0002FF80
0007FE0002FF40
000BFD0003FF00
000BFC0007FE00
000FFC000BFE00
001FF8000BFD00
001FF8000FFC00
001FF4001FF800
002FF4002FF400
002FF4007FE000
002FF800BFD000
001FFD06FF4000
000FFFFFFE0000
0003FFFFF40000
00006FFE400000
ENDCHAR
STARTCHAR ubreve
ENCODING 365
SWIDTH 505 0
DWIDTH 18 0
BBX 21 26 -1 0
BITMAP
002F4003F000
002F800BE000
001FE06FC000
000BFFFE0000
0001BFA40000
000000000000
000000000000
000000000000
02FF80BFD000
03FF40FFD000
03FF01FFC000
07FF01FF8000
0BFE02FF8000
0BFD03FF4000
0FFD03FF0000
0FFC07FF0000
1FF807FE0000
2FF80BFD0000
2FF40FFD0000
3FF40FFC0240
7FF02FFC0740
7FF07FFC0E00
7FFAFFFEBD00
3FFFDFFFF800
2FFF47FFE000
07F901FE4000
ENDCHAR
STARTCHAR Uring
ENCODING 366
SWIDTH 716 0
DWIDTH 26 0
BBX 27 34 0 0
BITMAP
000000001F8000
0000000074A000
00000000A07000
00000000B0A000
000000003F8000
00000000000000
00000000000000
00006BF8000FFC
000BFFFC001FFC
007FAFF8001FF8
02F82FF4002FF4
0BE03FF0002FF4
2F807FE0003FF0
7F00BFD0007FF0
BE00BFD0007FE0
FD00FFC000BFD0
FD01FF8000FFD0
FD02FF4000FFC0
BD02FF0001FF80
2D03FF0002FF80
0007FE0002FF40
000BFD0003FF00
000BFC0007FE00
000FFC000BFE00
001FF8000BFD00
001FF8000FFC00
001FF4001FF800
002FF4002FF400
002FF4007FE000
002FF800BFD000
001FFD06FF4000
000FFFFFFE0000
0003FFFFF40000
00006FFE400000
ENDCHAR
STARTCHAR uring
ENCODING 367
SWIDTH 505 0
DWIDTH 18 0
BBX 21 25 -1 0
BITMAP
00001F800000
000074A00000
0000A0A00000
0000B0A00000
00002F800000
000000000000
000000000000
02FF80BFD000
03FF40FFD000
03FF01FFC000
07FF01FF8000
0BFE02FF8000
0BFD03FF4000
0FFD03FF0000
0FFC07FF0000
1FF807FE0000
2FF80BFD0000
2FF40FFD0000
3FF40FFC0240
7FF02FFC0740
7FF07FFC0E00
7FFAFFFEBD00
3FFFDFFFF800
2FFF47FFE000
07F901FE4000
ENDCHAR
STARTCHAR Uhungarumlaut
ENCODING 368
SWIDTH 716 0
DWIDTH 26 0
BBX 28 36 0 0
BITMAP
000000000FE0FE
000000001FC1FC
000000002F43F4
000000007E07D0
00000000BC0F80
00000001F41F00
00000002D02D00
00000000000000
00000000000000
00006BF8000FFC
000BFFFC001FFC
007FAFF8001FF8
02F82FF4002FF4
0BE03FF0002FF4
2F807FE0003FF0
7F00BFD0007FF0
BE00BFD0007FE0
FD00FFC000BFD0
FD01FF8000FFD0
FD02FF4000FFC0
BD02FF0001FF80
2D03FF0002FF80
0007FE0002FF40
000BFD0003FF00
000BFC0007FE00
000FFC000BFE00
001FF8000BFD00
001FF8000FFC00
001FF4001FF800
002FF4002FF400
002FF4007FE000
002FF800BFD000
001FFD06FF4000
000FFFFFFE0000
0003FFFFF40000
00006FFE400000
ENDCHAR
STARTCHAR uhungarumlaut
ENCODING 369
SWIDTH 505 0
DWIDTH 18 0
BBX 21 27 -1 0
BITMAP
00002FC3F800
00003F47F000
0000BE0BD000
0000F81F8000
0002F02F0000
0003D07D0000
000B80B40000
000000000000
000000000000
02FF80BFD000
03FF40FFD000
03FF01FFC000
07FF01FF8000
0BFE02FF8000
0BFD03FF4000
0FFD03FF0000
0FFC07FF0000
1FF807FE0000
2FF80BFD0000
2FF40FFD0000
3FF40FFC0240
7FF02FFC0740
7FF07FFC0E00
7FFAFFFEBD00
3FFFDFFFF800
2FFF47FFE000
07F901FE4000
ENDCHAR
STARTCHAR Uogonek
ENCODING 370
SWIDTH 716 0
DWIDTH 26 0
BBX 27 43 0 -7
BITMAP
00000007F40000
00000003F80000
00000002F80000
00000001FC0000
00000000FC0000
00000000BD0000
000000007D0000
00000000000000
00000000000000
00006BF8000FFC
000BFFFC001FFC
007FAFF8001FF8
02F82FF4002FF4
0BE03FF0002FF4
2F807FE0003FF0
7F00BFD0007FF0
BE00BFD0007FE0
FD00FFC000BFD0
FD01FF8000FFD0
FD02FF4000FFC0
BD02FF0001FF80
2D03FF0002FF80
0007FE0002FF40
000BFD0003FF00
000BFC0007FF00
000FFC000BFE00
000FF8000BFD00
001FF8000FFC00
001FF4001FF800
002FF4002FF400
002FF4007FE000
002FF800BFD000
001FFD06FF8000
000FFFFFFE0000
0007FFFFF80000
0001BFFE400000
00000780000000
00001F00000000
00003F00000000
00003F00000000
00003F82800000
00002FFF400000
00000BF8000000
ENDCHAR
STARTCHAR uogonek
ENCODING 371
SWIDTH 505 0
DWIDTH 18 0
BBX 21 26 -1 -8
BITMAP
02FF80BFD000
03FF40FFD000
03FF01FFC000
07FF01FF8000
0BFE02FF8000
0BFD03FF4000
0FFD03FF0000
0FFC07FF0000
1FF807FE0000
2FF80BFD0000
2FF40FFD0000
3FF40FFC0240
7FF02FFC0740
7FF07FFC0E00
7FFAFFFEBD00
3FFFDFFFF800
2FFF47FFD000
07F901FE0000
000001E00000
000007C00000
00000FC00000
00000FC00000
00000FE0A000
00000BFFD000
000002FE4000
000000500000
ENDCHAR
STARTCHAR Wcircumflex
ENCODING 372
SWIDTH 962 0
DWIDTH 35 0
BBX 37 36 0 0
BITMAP
00000000000005000000
0000000000001F000000
0000000000007F400000
000000000001FF800000
00000000000BFBC00000
00000000002F82C00000
0000000000B800D00000
00000000014000500000
00000000000000000000
00006BF4000FF8000BC0
0007FFF4001FF8000F80
007FBFF4002FF8001F40
01F93FF4003FF8002F00
0BE03FF4007FF8003D00
1FC03FF400BFF8007C00
3F403FF400FFFC00B800
7F003FF401FFFC00F400
BE003FF402FFFC01F000
BE003FF403EFFC02E000
BE003FF407DFFC03D000
7E003FF40B5FFC07C000
1A003FF40F1FFC0B8000
00002FF41E1FFC0F0000
00002FF42D1FFC1E0000
00002FF83C1FFC2D0000
00002FF8781FFC3C0000
00002FF8B41FFC780000
00002FF8F01FFCB40000
00002FF9D01FFCF00000
00002FFAC01FFDE00000
00002FFB801FFED00000
00002FFF400FFF800000
00002FFF000FFF400000
00002FFE000FFF000000
00002FFD000FFE000000
00002FFC000FFD000000
ENDCHAR
STARTCHAR wcircumflex
ENCODING 373
SWIDTH 661 0
DWIDTH 24 0
BBX 25 27 -1 0
BITMAP
00000001D00000
00000007E00000
0000001FE00000
0000007FF00000
000001FEF40000
000007E0780000
00001E401C0000
00001400040000
00000000000000
02FF80BFD07D00
03FF40FFD0FF00
03FF01FFC1FF40
07FF01FF80BF40
0BFE02FF800F40
0BFD02FF400F00
0FFD03FF401F00
0FFC07FF001E00
1FFC07FE002D00
2FF80BFE003C00
2FF40FFD00B800
3FF40FFC00F400
7FF01FFC02F000
7FF03FF807D000
7FF4BFFC1F8000
3FFFEFFFFE0000
2FFF8BFFF80000
07F902FF900000
ENDCHAR
STARTCHAR Ycircumflex
ENCODING 374
SWIDTH 620 0
DWIDTH 22 0
BBX 25 36 0 0
BITMAP
00000000004000
0000000007C000
000000001FD000
000000007FE000
00000001FEF000
00000007E0B400
0000002E403800
00000054001400
00000000000000
00006BF40007C0
0007FFF8000F40
007FBFFC001F00
01F92FFC002E00
0BE02FFD003C00
1FC01FFE00B800
3F400FFF00F400
7F000BFF01E000
BE000BFF42D000
BE0007FF83C000
BE0003FF8B4000
7E0002FFCF0000
1A0001FFEE0000
000001FFFD0000
000000FFF80000
000000BFF40000
000000BFF00000
000000FFE00000
000000FFE00000
000001FFD00000
000002FFC00000
000002FFC00000
000003FF800000
000007FF800000
000007FF400000
00000BFF000000
00000FFF000000
ENDCHAR
STARTCHAR ycircumflex
ENCODING 375
SWIDTH 505 0
DWIDTH 18 0
BBX 20 36 -1 -9
BITMAP
000000B000
000002F400
00000BF800
00002FFC00
0000FE3D00
0007E01E00
000A000600
0000000000
0000000000
02FF80BFD0
03FF40FFD0
03FF01FFC0
07FF01FF80
0BFE02FF80
0BFD03FF40
0FFD03FF00
0FFC07FF00
1FF80BFE00
2FF80BFD00
2FF40FFD00
3FF41FFC06
7FF02FF80E
7FF07FF81D
7FFAFFF438
3FFFFFF5F0
2FFFBFFB80
07F97FFD00
0006FFE000
002FFFD000
01F8FFC000
03D1FFC000
0782FF8000
0787FF4000
07FFFE0000
02FFF80000
007F900000
ENDCHAR
STARTCHAR Ydieresis
ENCODING 376
SWIDTH 620 0
DWIDTH 22 0
BBX 25 33 0 0
BITMAP
0000000BD06E00
0000001FF0BF40
0000001FF0BF40
0000000BD06E00
00000000000000
00000000000000
00006BF40007C0
0007FFF8000F40
007FBFFC001F00
01F92FFC002E00
0BE02FFD003C00
1FC01FFE00B800
3F400FFF00F400
7F000BFF01E000
BE000BFF42D000
BE0007FF83C000
BE0003FF8B4000
7E0002FFCF0000
1A0001FFEE0000
000001FFFD0000
000000FFF80000
000000BFF40000
000000BFF00000
000000FFE00000
000000FFE00000
000001FFD00000
000002FFC00000
000002FFC00000
000003FF800000
000007FF800000
000007FF400000
00000BFF000000
00000FFF000000
ENDCHAR
STARTCHAR Zacute
ENCODING 377
SWIDTH 542 0
DWIDTH 20 0
BBX 20 36 0 0
BITMAP
0000000069
00000000FE
00000002FC
00000003F4
0000000BE0
0000000FC0
0000001F40
0000001900
0000000000
002FFFFFFE
00FFFFFFFC
02F9557FF8
03FC00BFF0
02FC01FFE0
01F402FFC0
000007FF80
00000BFF00
00001FFE00
00002FFC00
00007FF800
0000BFF000
0001FFE000
0002FFC000
0007FF8000
000BFF0000
001FFE0000
002FFC0000
007FF80000
00BFF00000
01FFE00000
02FFC007D0
07FF800FF0
0BFF000FF0
1FFE555BE0
3FFFFFFF80
7FFFFFFD00
ENDCHAR
STARTCHAR zacute
ENCODING 378
SWIDTH 428 0
DWIDTH 15 0
BBX 15 27 0 0
BITMAP
000002FC
000003F4
00000BE0
00000FD0
00002F80
00003F00
00006900
00000000
00000000
00BFFFFC
03FFFFF8
0BE57FF0
0FE0BFD0
0FD1FFC0
0142FF40
0007FE00
000FFD00
001FF800
003FF000
00BFD000
01FFC000
02FF4000
07FE07E0
0FFD0BF0
2FFD57E0
3FFFFFC0
BFFFFE00
ENDCHAR
STARTCHAR Zdotaccent
ENCODING 379
SWIDTH 530 0
DWIDTH 19 0
BBX 20 33 0 0
BITMAP
000001F400
000003FC00
000003FC00
000001F400
0000000000
0000000000
002FFFFFFE
00FFFFFFFC
02F9557FF8
03FC00BFF0
02FC01FFE0
01F402FFC0
000007FF80
00000BFF00
00001FFE00
00002FFC00
00007FF800
0000BFF000
0001FFE000
0002FFC000
0007FF8000
000BFF0000
001FFE0000
002FFC0000
007FF80000
00BFF00000
01FFE00000
02FFC007D0
07FF800FF0
0BFF000FF0
1FFE555BE0
3FFFFFFF80
7FFFFFFD00
ENDCHAR
STARTCHAR zdotaccent
ENCODING 380
SWIDTH 428 0
DWIDTH 15 0
BBX 15 25 0 0
BITMAP
00007D00
0000FF00
0000FF00
00007D00
00000000
00000000
00000000
00BFFFFC
03FFFFF8
0BE57FF0
0FE0BFD0
0FD1FFC0
0142FF40
0007FE00
000FFD00
001FF800
003FF000
00BFD000
01FFC000
02FF4000
07FE07E0
0FFD0BF0
2FFD57E0
3FFFFFC0
BFFFFE00
ENDCHAR
STARTCHAR Zcaron
ENCODING 381
SWIDTH 542 0
DWIDTH 20 0
BBX 21 36 0 0
BITMAP
000001000140
000002801B40
000001E1BD00
000000FBF400
000000BFD000
000000BF0000
0000007C0000
000000100000
000000000000
002FFFFFFE00
00FFFFFFFC00
02F9557FF800
03FC00BFF000
02FC01FFE000
01F402FFC000
000007FF8000
00000BFF0000
00001FFE0000
00002FFC0000
00007FF80000
0000BFF00000
0001FFE00000
0002FFC00000
0007FF800000
000BFF000000
001FFE000000
002FFC000000
007FF8000000
00BFF0000000
01FFE0000000
02FFC007D000
07FF800FF000
0BFF000FF000
1FFE555BE000
3FFFFFFF8000
7FFFFFFD0000
ENDCHAR
STARTCHAR zcaron
ENCODING 382
SWIDTH 428 0
DWIDTH 15 0
BBX 17 27 0 0
BITMAP
0003400780
0002C07E00
0001E7F400
0000FFD000
0000FF4000
0000BD0000
0000600000
0000000000
0000000000
00BFFFFC00
03FFFFF800
0BE57FF000
0FE0BFD000
0FD1FFC000
0142FF4000
0007FE0000
000FFD0000
001FF80000
003FF00000
00BFD00000
01FFC00000
02FF400000
07FE07E000
0FFD0BF000
2FFD57E000
3FFFFFC000
BFFFFE0000
ENDCHAR
STARTCHAR longs
ENCODING 383
SWIDTH 267 0
DWIDTH 10 0
BBX 22 36 -8 -9
BITMAP
00000006FE00
0000002FFFC0
0000007FFFE0
000000FFE1E0
000001FF80E0
000002FF4050
000003FF0000
000007FF0000
000007FE0000
0000BFFE0000
00000FFD0000
00000FFC0000
00001FFC0000
00002FF80000
00002FF40000
00003FF40000
00007FF00000
00007FE00000
0000BFE00000
0000BFD00000
0000FFD00000
0001FFC00000
0001FF800000
0002FF800000
0003FF400000
0003FF000000
0007FF000000
01BFFE000000
0BEBFD000000
2E0FFD000000
780FFC000000
781FF8000000
787FF4000000
7FFFE0000000
2FFF80000000
06F900000000
ENDCHAR
STARTCHAR uni018F
ENCODING 399
SWIDTH 544 0
DWIDTH 20 0
BBX 20 27 0 0
BITMAP
0001BFE400
002FFFFF40
00BFFFFFD0
01FFFFFFF0
02FD01FFF4
01E0007FF8
0080002FFC
0000002FFD
0000001FFD
0000001FFD
0000002FFD
0000002FFD
00006FFFFC
0006FFFFFC
002FF97FF8
00FF807FF4
03FE00BFF0
0BFC00FFE0
1FF401FFD0
3FE002FF80
3FD003FF00
7FD00BFD00
7FD01FF800
3FD03FE000
2FE5FF8000
0BFFFD0000
01BF900000
ENDCHAR
STARTCHAR florin
ENCODING 402
SWIDTH 267 0
DWIDTH 10 0
BBX 25 36 -9 -9
BITMAP
000000000BF900
000000007FFF40
00000001FF6F80
00000003FD1F80
0000000BFC2F40
0000001FF83E00
0000002FF40400
0000003FF00000
000000BFE00000
00001FFFFFD000
000001FFC00000
000001FF800000
000002FF400000
000003FF000000
000007FF000000
00000BFE000000
00000FFD000000
00000FFC000000
00001FF8000000
00002FF4000000
00003FF4000000
00007FF0000000
0000BFE0000000
0000BFD0000000
0000FFC0000000
0001FF80000000
0002FF40000000
0003FF00000000
0007FE00000000
040BFD00000000
7F0FF800000000
BD1FF400000000
FD2FE000000000
FD7FC000000000
BFFE0000000000
1BE40000000000
ENDCHAR
STARTCHAR Ohorn
ENCODING 416
SWIDTH 665 0
DWIDTH 24 0
BBX 26 32 0 0
BITMAP
00000000000150
000000000007F0
000000000007F0
000000000007F0
000000000007E0
000006BFE40BD0
0001BFFFFE1F80
001FF955BFFE00
00BF80541FF800
02FD0BF80BF800
0BF42FE007FC00
1FD0BFC007FD00
3F81FF8007FD00
7F43FF0007FE00
7F0BFE0007FE00
7F0FFD0007FE00
3F1FFC0007FD00
1B2FF8000BFD00
003FF4000BFD00
007FF0000FFC00
00BFE0001FF800
00BFE0002FF400
00FFD0003FF000
00FFD0007FE000
00FFD000FFD000
00FFD001FF8000
00FFD003FF0000
00BFE00BFD0000
00BFF06FF40000
003FFFFFD00000
001FFFFE400000
0002BFA4000000
ENDCHAR
STARTCHAR ohorn
ENCODING 417
SWIDTH 439 0
DWIDTH 16 0
BBX 19 23 -1 0
BITMAP
00000001F4
00000002F8
00000002F8
00000002F4
00000002F0
0001BF87D0
001FFFEF80
00BFE6FE00
02FF80F800
07FF00FC00
0FFD00FC00
1FFC00FC00
2FF800FC00
3FF401F800
7FF402F800
7FF003F400
7FF007F000
7FF00BE000
7FF01FC000
3FF47F4000
2FFFFE0000
0FFFF40000
02FE400000
ENDCHAR
STARTCHAR Uhorn
ENCODING 431
SWIDTH 716 0
DWIDTH 26 0
BBX 32 33 0 0
BITMAP
00000000000000BC
00000000000000FD
00000000000000FD
00000000000000FC
00000000000001F8
00000000000007F0
00006BF8000FFFD0
000BFFFC001FFF40
007FAFF8001FFC00
02F82FF4002FF800
0BE03FF0002FF400
2F807FE0003FF000
7F00BFD0007FF000
BE00BFD0007FE000
FD00FFC000BFD000
FD01FF8000FFD000
FD02FF4000FFC000
BD02FF0001FF8000
2D03FF0002FF8000
0007FE0002FF4000
000BFD0003FF0000
000BFC0007FF0000
000FFC000BFE0000
001FF8000BFD0000
001FF8000FFC0000
001FF4001FF80000
002FF4002FF40000
002FF4007FE00000
002FF800BFD00000
001FFD06FF800000
000FFFFFFE000000
0003FFFFF4000000
00006FFE40000000
ENDCHAR
STARTCHAR uhorn
ENCODING 432
SWIDTH 505 0
DWIDTH 18 0
BBX 21 24 -1 0
BITMAP
000000001B40
000000002F80
000000001F80
000000001F40
000000002F00
000000007D00
02FF80BFF400
03FF40FFD000
03FF01FFC000
07FF01FF8000
0BFE02FF8000
0BFD03FF4000
0FFD03FF0000
0FFC07FF0000
1FF807FE0000
2FF80BFD0000
2FF40FFD0000
3FF40FFC0240
7FF02FFC0740
7FF07FFC0E00
7FFAFFFEBD00
3FFFDFFFF800
2FFF47FFE000
07F901FE4000
ENDCHAR
STARTCHAR uni01B7
ENCODING 439
SWIDTH 555 0
DWIDTH 20 0
BBX 21 28 0 -1
BITMAP
001BFFFFFF40
007FFFFFFE00
00FE556FF800
01FD007FF000
01FD00FFD000
00BC02FF8000
000007FF0000
00000FFD0000
00002FF40000
0000BFE00000
0001FFC00000
0002FFE40000
0003FFFE0000
00016FFF8000
000003FFD000
000001FFE000
000000FFF000
000000BFF000
000000BFF000
054000BFF000
1FD000FFE000
3F8001FFD000
7F4002FFC000
7F4007FF4000
3FC01FFD0000
1FFAFFF40000
07FFFF400000
005550000000
ENDCHAR
STARTCHAR uni01CD
ENCODING 461
SWIDTH 668 0
DWIDTH 24 0
BBX 31 40 0 -4
BITMAP
0000000000500014
00000000007402E0
00000000003C2F80
00000000002EFE00
00000000002FF400
00000000001FD000
00000000000F4000
0000000000050000
0000000000000000
0000000001BF8000
000000001FFF8000
00000000BFFF4000
00000002F7FF4000
0000000BD3FF0000
0000002F47FF0000
0000007E0BFE0000
000000FC0BFD0000
000002F40FFD0000
00000BE00FFC0000
00001FD01FF80000
01BFFFD42FF80000
1FFFFFFFBFF40000
3FD4FE16FFF00000
BF41FD007FF00000
BF43FC007FE00000
7F4BF800BFE00000
040FF000FFD00000
001FE000FFC00000
003FD001FFC00000
007FC002FF800000
00BF8002FF400000
00FF4003FF400000
01FF4003FF000000
02FF0007FE000000
02FE000BFE000000
03FE000BFD000000
03FD000000000000
02FD000000000000
01FD000000000000
006E000000000000
ENDCHAR
STARTCHAR uni01CE
ENCODING 462
SWIDTH 526 0
DWIDTH 19 0
BBX 21 27 -1 0
BITMAP
00001C002D00
00000E01F400
00000B5FD000
000007FF4000
000003FD0000
000003F00000
000002800000
000000000000
000000000000
0006FE3FF400
002FFFBFF000
00BFE5FFE000
02FF80BFE000
07FF00BFD000
0BFD00FFC000
1FFC01FFC000
2FF801FF8000
3FF402FF4000
3FF003FF4000
7FF003FF0000
7FF007FF0040
7FF00BFE01C0
7FF00FFE0380
7FF47FFF0B00
3FFFF7FFFD00
1FFFD2FFF400
02FE00BF8000
ENDCHAR
STARTCHAR uni01CF
ENCODING 463
SWIDTH 375 0
DWIDTH 14 0
BBX 20 36 0 0
BITMAP
0000140005
00000D007C
00000F47E0
00000BFF80
000007FE00
000003F800
000002E000
0000014000
0000000000
00006BF400
0007FFF000
007FFFE000
01F9BFE000
0BE0BFD000
1FC0FFC000
3F41FFC000
7F01FF8000
BE02FF8000
BE03FF4000
BE03FF0000
7E07FF0000
1A0BFE0000
000BFD0000
000FFD0000
000FFC0000
001FF80000
002FF80000
002FF40000
003FF00000
007FF00000
007FE00000
00BFE00000
00FFD00000
00FFC00000
01FFC00000
02FF800000
ENDCHAR
STARTCHAR uni01D0
ENCODING 464
SWIDTH 267 0
DWIDTH 10 0
BBX 14 27 -1 0
BITMAP
00D001E0
00B01F80
0079FD00
003FF400
003FD000
002F4000
00180000
00000000
00000000
02FF8000
03FF4000
03FF0000
07FF0000
0BFE0000
0BFD0000
0FFD0000
0FFC0000
1FF80000
2FF80000
2FF40000
3FF40600
7FF00E00
7FF02D00
7FFAB800
3FFFF000
2FFF8000
07F90000
ENDCHAR
STARTCHAR uni01D1
ENCODING 465
SWIDTH 665 0
DWIDTH 24 0
BBX 25 36 0 0
BITMAP
00000001000140
00000003801F00
00000002D1F800
00000001FFE000
00000000FF8000
00000000BD0000
00000000740000
00000000000000
00000000000000
000006BFE80000
0001BFFFFF8000
001FF955BFE000
00BF80541FF400
02FD0BF80BF800
0BF42FE007FC00
1FD0BFC007FD00
3F81FF8007FE00
7F43FF0007FE00
7F0BFE0007FE00
7F0FFD0007FE00
3F1FFC0007FD00
1B2FF8000BFD00
003FF4000BFC00
007FF0000FFC00
00BFE0001FF800
00BFE0002FF400
00FFD0003FF000
00FFD0007FE000
00FFD000FFC000
00FFD001FF8000
00FFD003FF0000
00BFE00BFD0000
00BFF06FF40000
003FFFFFD00000
001FFFFE000000
0002BFA4000000
ENDCHAR
STARTCHAR uni01D2
ENCODING 466
SWIDTH 433 0
DWIDTH 16 0
BBX 21 27 -1 0
BITMAP
0001C002D000
0000E01F4000
0000B5FD0000
00007FF40000
00007FD00000
00003F000000
00002C000000
000000000000
000000000000
0006FE400000
002FFFE00000
00BFD6F40000
02FF41F80000
07FE02F802C0
0FFD07F96E00
1FFC07FFE400
2FF402F90000
3FF402F40000
7FF002F40000
BFE003F00000
BFE007E00000
BFE00BD00000
BFE01FC00000
7FF47F400000
3FFFFD000000
1FFFF4000000
02FE80000000
ENDCHAR
STARTCHAR uni01D3
ENCODING 467
SWIDTH 716 0
DWIDTH 26 0
BBX 27 36 0 0
BITMAP
00000000500014
000000003402E0
000000002D2F80
000000001FFE00
000000000FF400
000000000BD000
00000000074000
00000000000000
00000000000000
00006BF8000FFC
000BFFFC001FFC
007FAFF8001FF8
02F82FF4002FF4
0BE03FF0002FF4
2F807FE0003FF0
7F00BFD0007FF0
BE00BFD0007FE0
FD00FFC000BFD0
FD01FF8000FFD0
FD02FF4000FFC0
BD02FF0001FF80
2D03FF0002FF80
0007FE0002FF40
000BFD0003FF00
000BFC0007FE00
000FFC000BFE00
001FF8000BFD00
001FF8000FFC00
001FF4001FF800
002FF4002FF400
002FF4007FE000
002FF800BFD000
001FFD06FF4000
000FFFFFFE0000
0003FFFFF40000
00006FFE400000
ENDCHAR
STARTCHAR uni01D4
ENCODING 468
SWIDTH 505 0
DWIDTH 18 0
BBX 21 27 -1 0
BITMAP
0000A001B400
0000741BC000
00003DBE0000
00002FF80000
00001FE00000
00000F800000
000009000000
000000000000
000000000000
02FF80BFD000
03FF40FFD000
03FF01FFC000
07FF01FF8000
0BFE02FF8000
0BFD03FF4000
0FFD03FF0000
0FFC07FF0000
1FF807FE0000
2FF80BFD0000
2FF40FFD0000
3FF40FFC0240
7FF02FFC0740
7FF07FFC0E00
7FFAFFFEBD00
3FFFDFFFF800
2FFF47FFE000
07F901FE4000
ENDCHAR
STARTCHAR uni01D5
ENCODING 469
SWIDTH 716 0
DWIDTH 26 0
BBX 27 36 0 0
BITMAP
00000007FFFFF0
0000000BFFFFF0
00000001555540
00000000000000
0000000BD01B80
0000001FF02FD0
0000001FF02FD0
0000000BD01B80
00000000000000
00006BF8000FFC
000BFFFC001FFC
007FAFF8001FF8
02F82FF4002FF4
0BE03FF0002FF4
2F807FE0003FF0
7F00BFD0007FF0
BE00BFD0007FE0
FD00FFC000BFD0
FD01FF8000FFD0
FD02FF4000FFC0
BD02FF0001FF80
2D03FF0002FF80
0007FE0002FF40
000BFD0003FF00
000BFC0007FE00
000FFC000BFE00
001FF8000BFD00
001FF8000FFC00
001FF4001FF800
002FF4002FF400
002FF4007FE000
002FF800BFD000
001FFD06FF4000
000FFFFFFE0000
0003FFFFF40000
00006FFE400000
ENDCHAR
STARTCHAR uni01D6
ENCODING 470
SWIDTH 505 0
DWIDTH 18 0
BBX 21 31 -1 0
BITMAP
000155555000
0007FFFFF400
000BFFFFF000
000000000000
000000000000
000000000000
0007D02E0000
000FF0BF8000
000FF0BF8000
0007D02E0000
000000000000
000000000000
000000000000
02FF80BFD000
03FF40FFD000
03FF01FFC000
07FF01FF8000
0BFE02FF8000
0BFD03FF4000
0FFD03FF0000
0FFC07FF0000
1FF807FE0000
2FF80BFD0000
2FF40FFD0000
3FF40FFC0240
7FF02FFC0740
7FF07FFC0E00
7FFAFFFEBD00
3FFFDFFFF800
2FFF47FFE000
07F901FE4000
ENDCHAR
STARTCHAR uni01D7
ENCODING 471
SWIDTH 716 0
DWIDTH 26 0
BBX 27 36 0 0
BITMAP
0000000000A900
0000000002FC00
0000007D07F5F4
000000FF0BD3FC
000000FF1F83FC
0000007D3F01F4
00000000290000
00000000000000
00000000000000
00006BF8000FFC
000BFFFC001FFC
007FAFF8001FF8
02F82FF4002FF4
0BE03FF0002FF4
2F807FE0003FF0
7F00BFD0007FF0
BE00BFD0007FE0
FD00FFC000BFD0
FD01FF8000FFD0
FD02FF4000FFC0
BD02FF0001FF80
2D03FF0002FF80
0007FE0002FF40
000BFD0003FF00
000BFC0007FE00
000FFC000BFE00
001FF8000BFD00
001FF8000FFC00
001FF4001FF800
002FF4002FF400
002FF4007FE000
002FF800BFD000
001FFD06FF4000
000FFFFFFE0000
0003FFFFF40000
00006FFE400000
ENDCHAR
STARTCHAR uni01D8
ENCODING 472
SWIDTH 505 0
DWIDTH 18 0
BBX 21 34 -1 0
BITMAP
0000001A8000
0000003F8000
0000007F0000
000000BE0000
000001FC0000
000002F40000
000007E00000
000006800000
000000000000
0007D02E0000
000FF0BF8000
000FF0BF8000
0007D02E0000
000000000000
000000000000
000000000000
02FF80BFD000
03FF40FFD000
03FF01FFC000
07FF01FF8000
0BFE02FF8000
0BFD03FF4000
0FFD03FF0000
0FFC07FF0000
1FF807FE0000
2FF80BFD0000
2FF40FFD0000
3FF40FFC0240
7FF02FFC0740
7FF07FFC0E00
7FFAFFFEBD00
3FFFDFFFF800
2FFF47FFE000
07F901FE4000
ENDCHAR
STARTCHAR uni01D9
ENCODING 473
SWIDTH 716 0
DWIDTH 26 0
BBX 27 36 0 0
BITMAP
00000000400140
00000000B01F40
0000007D7EF9F4
000000FF3FD3FC
000000FF1F43FC
0000007D0801F4
00000000000000
00000000000000
00000000000000
00006BF8000FFC
000BFFFC001FFC
007FAFF8001FF8
02F82FF4002FF4
0BE03FF0002FF4
2F807FE0003FF0
7F00BFD0007FF0
BE00BFD0007FE0
FD00FFC000BFD0
FD01FF8000FFD0
FD02FF4000FFC0
BD02FF0001FF80
2D03FF0002FF80
0007FE0002FF40
000BFD0003FF00
000BFC0007FE00
000FFC000BFE00
001FF8000BFD00
001FF8000FFC00
001FF4001FF800
002FF4002FF400
002FF4007FE000
002FF800BFD000
001FFD06FF4000
000FFFFFFE0000
0003FFFFF40000
00006FFE400000
ENDCHAR
STARTCHAR uni01DA
ENCODING 474
SWIDTH 505 0
DWIDTH 18 0
BBX 21 33 -1 0
BITMAP
000034006C00
00002D06E000
00001F6F8000
00000FFE0000
00000BF80000
000007E00000
000003400000
000000000000
0007D02E0000
000FF0BF8000
000FF0BF8000
0007D02E0000
000000000000
000000000000
000000000000
02FF80BFD000
03FF40FFD000
03FF01FFC000
07FF01FF8000
0BFE02FF8000
0BFD03FF4000
0FFD03FF0000
0FFC07FF0000
1FF807FE0000
2FF80BFD0000
2FF40FFD0000
3FF40FFC0240
7FF02FFC0740
7FF07FFC0E00
7FFAFFFEBD00
3FFFDFFFF800
2FFF47FFE000
07F901FE4000
ENDCHAR
STARTCHAR uni01DB
ENCODING 475
SWIDTH 716 0
DWIDTH 26 0
BBX 27 36 0 0
BITMAP
000000003F8000
000000002FC000
0000007D1FC1F4
000000FF0FC3FC
000000FF0BD3FC
0000007D07D1F4
0000000007E000
00000000000000
00000000000000
00006BF8000FFC
000BFFFC001FFC
007FAFF8001FF8
02F82FF4002FF4
0BE03FF0002FF4
2F807FE0003FF0
7F00BFD0007FF0
BE00BFD0007FE0
FD00FFC000BFD0
FD01FF8000FFD0
FD02FF4000FFC0
BD02FF0001FF80
2D03FF0002FF80
0007FE0002FF40
000BFD0003FF00
000BFC0007FE00
000FFC000BFE00
001FF8000BFD00
001FF8000FFC00
001FF4001FF800
002FF4002FF400
002FF4007FE000
002FF800BFD000
001FFD06FF4000
000FFFFFFE0000
0003FFFFF40000
00006FFE400000
ENDCHAR
STARTCHAR uni01DC
ENCODING 476
SWIDTH 505 0
DWIDTH 18 0
BBX 21 33 -1 0
BITMAP
0000FE000000
0000BF000000
00007F000000
00003F000000
00002F400000
00001F400000
00001F800000
000000000000
0007D02E0000
000FF0BF8000
000FF0BF8000
0007D02E0000
000000000000
000000000000
000000000000
02FF80BFD000
03FF40FFD000
03FF01FFC000
07FF01FF8000
0BFE02FF8000
0BFD03FF4000
0FFD03FF0000
0FFC07FF0000
1FF807FE0000
2FF80BFD0000
2FF40FFD0000
3FF40FFC0240
7FF02FFC0740
7FF07FFC0E00
7FFAFFFEBD00
3FFFDFFFF800
2FFF47FFE000
07F901FE4000
ENDCHAR
STARTCHAR uni01E4
ENCODING 484
SWIDTH 601 0
DWIDTH 22 0
BBX 21 34 0 -7
BITMAP
00001AFF9000
0001FFFFF800
000BFF95FE00
003FFD007F40
00FFF0003F40
02FFD0007F40
07FF8000BF40
0FFF0001FE00
1FFD00006400
2FFC00000000
3FF800000000
3FF800000000
7FF40002A900
7FF40003FD00
7FF406ABFE80
7FF407FFFFC0
3FF4000FF800
3FF8002FF400
2FFC007FF400
0FFE46FFF000
07FFFFBFE000
01FFFE7FE000
006FE47FD000
000000BFC000
000540FFC000
007FE0FF8000
01FFF5FF4000
03FEB6FF0000
07F003FE0000
07E007FC0000
07E00BF80000
03F96FE00000
01FFFF800000
002BF9000000
ENDCHAR
STARTCHAR uni01E5
ENCODING 485
SWIDTH 507 0
DWIDTH 18 0
BBX 21 27 -1 -9
BITMAP
0006FE3FF400
002FFFBFF000
00BFE5FFE000
02FF80BFE000
07FF00FFD000
0BFD00FFC000
1FFC01FFC000
2FF801FF8000
3FF402FF4000
3FF003FF4000
7FF003FF0000
7FF007FE0000
7FF00BFE0380
7FF00FFD0700
7FF47FFD0E00
3FFFFFFC7C00
1FFFEFFEF000
02FE2FFF8000
0000BFF80000
000BFFF40000
007E7FF00000
0FFFFFFF0000
1BFAFFFA0000
02D1FFC00000
02E6FF400000
01FFFE000000
006FE4000000
ENDCHAR
STARTCHAR Gcaron
ENCODING 486
SWIDTH 578 0
DWIDTH 21 0
BBX 23 43 0 -7
BITMAP
000000100014
0000003801F4
0000002D1FD0
0000001FBF00
0000000FF800
0000000BE000
000000078000
000000010000
000000000000
00001AFF9000
0001FFFFF800
000BFF95FE00
003FFD007F40
00FFF0003F40
02FFD0007F40
07FF8000BF40
0FFF0001FE00
1FFD00006400
2FFC00000000
3FF800000000
3FF800000000
7FF40001A900
7FF40003FD00
7FF40007FC00
7FF4000BFC00
3FF4000FF800
3FF8002FF400
2FFC007FF400
0FFE42FFF000
07FFFFBFE000
01FFFE7FE000
006FE47FD000
000000BFC000
000540FFC000
007FE0FF8000
01FFF5FF4000
03FEB6FF0000
07F003FE0000
07E007FC0000
07E00BF80000
03F96FE00000
01FFFF800000
002BF9000000
ENDCHAR
STARTCHAR gcaron
ENCODING 487
SWIDTH 507 0
DWIDTH 18 0
BBX 21 36 -1 -9
BITMAP
00001C002D00
00000E01F400
00000B5FD000
000007FF4000
000003FD0000
000003F00000
000002800000
000000000000
000000000000
0006FE3FF400
002FFFBFF000
00BFE5FFE000
02FF80BFE000
07FF00FFD000
0BFD00FFC000
1FFC01FFC000
2FF801FF8000
3FF402FF4000
3FF003FF4000
7FF003FF0000
7FF007FE0000
7FF00BFE0380
7FF00FFD0700
7FF47FFD0E00
3FFFFFFC7C00
1FFFEFFEF000
02FE2FFF8000
00007FF80000
000BFFF00000
007E7FF00000
00F47FE00000
02E0BFD00000
02D0FFC00000
02E6FF400000
00FFFE000000
002FE4000000
ENDCHAR
STARTCHAR uni01E8
ENCODING 488
SWIDTH 601 0
DWIDTH 22 0
BBX 25 37 0 -1
BITMAP
00000001400140
00000002C01B40
00000001E1BD00
00000000FFF400
00000000BF8000
000000007E0000
00000000380000
00000000000000
00000000000000
00006BF401FD00
0007FFF003F800
006FFFE00BE000
01FDBFE01FC000
07F0BFD03F4000
1FC0FFD0BD0000
3F41FFC2F40000
7F01FF87E00000
BE02FF8F800000
BE03FF6F000000
BE03FFBD000000
7E07FFF4000000
1E07FFFFE00000
000BFEAFFC0000
000FFD0BFD0000
000FFC07FE0000
001FFC07FE0000
002FF807FD0000
002FF40BFD0000
003FF40FFC0000
007FF00FF80000
007FE01FF40000
00BFE02FF40000
00FFD03FF00000
00FFC03FF00000
01FFC03FF00000
02FF802FF80000
00000005500000
ENDCHAR
STARTCHAR uni01E9
ENCODING 489
SWIDTH 518 0
DWIDTH 19 0
BBX 22 33 -2 0
BITMAP
000001400050
000001D00B80
000000F0BE00
000000BFF400
0000007FD000
0000003F4000
000000280000
000000000000
0006BC000000
001FFC000000
002FF8000000
002FF4000000
003FF4000000
007FF0000000
007FE0000000
00BFE007F400
00BFD01F8000
00FFC0BD0000
01FFC2F40000
01FF9F800000
02FFFFF90000
03FFFFFF0000
03FFFFFF8000
07FF82FFC000
0BFE01FFC000
0BFD01FF8000
0FFD02FF8010
1FFC02FF40B0
1FF803FF41D0
2FF803FF87C0
3FF402FFFF40
3FF001FFFD00
7FF0006FE000
ENDCHAR
STARTCHAR uni01EA
ENCODING 490
SWIDTH 665 0
DWIDTH 24 0
BBX 24 43 0 -7
BITMAP
000007F40000
000003F80000
000002F80000
000001F80000
000000FC0000
000000BC0000
000000BD0000
000000000000
000000000000
000006BFE800
0001BFFFFF80
001FF955BFE0
00BF80541FF4
02FD0BF80BF8
0BF42FE007FC
1FD0BFC007FD
3F81FF8007FE
7F43FF0007FE
7F0BFE0007FE
7F0FFD0007FE
3F1FFC0007FD
1B2FF8000BFD
003FF4000BFC
007FF0000FFC
00BFE0001FF8
00BFE0002FF4
00FFD0003FF0
00FFD0007FE0
00FFD000FFC0
00FFD001FF80
00FFD003FF00
00FFE00BFD00
00BFF06FF400
003FFFFFD000
001FFFFE4000
0002FFA40000
0000F0000000
0003D0000000
000BD0000000
000BD0000000
000BE0700000
0007FFE00000
0001FE400000
ENDCHAR
STARTCHAR uni01EB
ENCODING 491
SWIDTH 433 0
DWIDTH 16 0
BBX 21 25 -1 -7
BITMAP
0006FE400000
002FFFE00000
00BFD6F40000
02FF41F80000
07FE02F802C0
0FFD07F96E00
1FFC07FFE400
2FF402F90000
3FF402F40000
7FF002F40000
BFE003F00000
BFE007E00000
BFE00BD00000
BFE01FC00000
7FF47F400000
3FFFFD000000
1FFFF4000000
02FE80000000
02D000000000
0B8000000000
1F4000000000
2F4000000000
2FD1D0000000
1FFF80000000
07FD00000000
ENDCHAR
STARTCHAR uni01EE
ENCODING 494
SWIDTH 525 0
DWIDTH 19 0
BBX 21 37 0 -1
BITMAP
000005000140
000007406E00
000003C6F400
000002FFD000
000001FF4000
000000F80000
000000A00000
000000000000
000000000000
001BFFFFFF40
007FFFFFFE00
00FE556FF800
01FD007FF000
01FD00FFD000
00BC02FF8000
000007FF0000
00000FFD0000
00002FF40000
0000BFE00000
0001FFC00000
0002FFE40000
0003FFFE0000
00016FFF8000
000003FFD000
000001FFE000
000000FFF000
000000BFF000
000000BFF000
054000BFF000
1FD000FFE000
3F8001FFD000
7F4002FFC000
7F4007FF4000
3FC01FFD0000
1FFAFFF40000
07FFFF400000
005550000000
ENDCHAR
STARTCHAR uni01EF
ENCODING 495
SWIDTH 600 0
DWIDTH 22 0
BBX 18 36 0 -9
BITMAP
0001000140
0003801F40
0002D1F800
0001FFE000
0000FF8000
0000BD0000
0000740000
0000000000
0000000000
02FFFFF400
0FFFFFE000
2F95FFC000
3F81FF8000
2F43FF0000
050BFD0000
001FF80000
002FF40000
007FE00000
00FFC00000
02FF400000
02FF400000
02FFC001D0
007FE002C0
003FF00740
002FF40F00
001FF87C00
001FFEE000
001FFE4000
01BFF80000
1FFFF80000
7E2FF80000
B43FF40000
F07FE00000
F5FFD00000
7FFF400000
1BF8000000
ENDCHAR
STARTCHAR uni01F4
ENCODING 500
SWIDTH 578 0
DWIDTH 21 0
BBX 21 42 0 -7
BITMAP
00000000BF40
00000000FD00
00000002F800
00000003F000
0000000BD000
0000001F8000
000000050000
000000000000
00001AFF9000
0001FFFFF800
000BFF95FE00
003FFD007F00
00FFF0003F40
02FFD0003F40
07FF8000BF40
0FFF0001FF00
1FFD0000B900
2FFC00000000
3FF800000000
3FF800000000
7FF400015500
7FF40003FD00
7FF40007FD00
7FF4000BFC00
3FF4000FF800
3FF8002FF800
2FFC007FF400
0FFE42FFF000
07FFFFBFF000
01FFFE7FE000
006FE47FD000
000000BFC000
000540FFC000
007FE0FF8000
01FFF5FF4000
03FEB6FF0000
07F003FE0000
07E007FC0000
07E00BF80000
03F96FE00000
01FFFF800000
002BF9000000
ENDCHAR
STARTCHAR uni01F5
ENCODING 501
SWIDTH 507 0
DWIDTH 18 0
BBX 21 36 -1 -9
BITMAP
0000003F8000
000000BF0000
000000FD0000
000002F80000
000003F00000
00000BD00000
00000F800000
000000000000
000000000000
0006FE3FF400
002FFFBFF000
00BFE5FFE000
02FF80BFE000
07FF00FFD000
0BFD00FFC000
1FFC01FFC000
2FF801FF8000
3FF402FF4000
3FF003FF4000
7FF003FF0000
7FF007FE0000
7FF00BFE0380
7FF00FFD0700
7FF47FFD0E00
3FFFFFFC7C00
1FFFEFFEF000
02FE2FFF8000
00007FF80000
000BFFF00000
007E7FF00000
00F47FE00000
02E0BFD00000
02D0FFC00000
02E6FF400000
00FFFE000000
002FE4000000
ENDCHAR
STARTCHAR Aringacute
ENCODING 506
SWIDTH 668 0
DWIDTH 24 0
BBX 28 40 0 -4
BITMAP
0000000000006A
000000000000BE
000000000001F8
000000000002F0
00000000002FD0
0000000000BFC0
0000000000F6D0
0000000000E1D0
0000000000FBD0
00000000007F80
0000000006FF80
000000002FFF80
00000001F7FF40
00000007D3FF40
0000001F47FF00
0000007E0BFE00
000000FC0BFE00
000002F40FFD00
000007E00FFC00
00001FD01FFC00
01BFFFD42FF800
1FFFFFFFBFF400
3FD4FE16FFF400
BF41FD007FF000
BF43FC007FE000
7F4BF800BFE000
040FF000FFD000
001FE000FFC000
003FD001FFC000
007FC002FF8000
00BF8002FF4000
00FF4003FF4000
01FF4003FF0000
02FF0007FE0000
02FE000BFE0000
03FE000BFD0000
03FD0000000000
02FD0000000000
01FD0000000000
006E0000000000
ENDCHAR
STARTCHAR aringacute
ENCODING 507
SWIDTH 526 0
DWIDTH 19 0
BBX 21 29 -1 0
BITMAP
0000001F8000
0000003F0000
0000007D0000
000001F80000
00000BB80000
00001C1C0000
00002C1C0000
00001D280000
00000BE00000
000000000000
000000000000
0006FE3FF400
002FFFBFF000
00BFE5FFE000
02FF80BFE000
07FF00BFD000
0BFD00FFC000
1FFC01FFC000
2FF801FF8000
3FF402FF4000
3FF003FF4000
7FF003FF0000
7FF007FF0040
7FF00BFE01C0
7FF00FFE0380
7FF47FFF0B00
3FFFF7FFFD00
1FFFD2FFF400
02FE00BF8000
ENDCHAR
STARTCHAR AEacute
ENCODING 508
SWIDTH 764 0
DWIDTH 28 0
BBX 33 40 0 -4
BITMAP
000000000000069000
0000000000001FD000
0000000000002F4000
0000000000007E0000
000000000000BC0000
000000000001F40000
000000000002E00000
000000000001400000
000000000000000000
0000000001BF940640
000000001FFFFFFF40
00000000BFFFFFFE00
00000002F7FF5BF800
0000000BD3FF000000
0000002F47FF000000
0000007E0BFE000000
000001FC0BFD000000
000003F40FFD000000
00000BE01FFC000000
00001FC01FF8000000
01BFFFE42FF8000000
1FFFFFFFBFFFFF0000
7FD0FE06FFFFFE0000
BF42FD007FFAA90000
BF83FC007FE0000000
2E4BF400BFD0000000
000FF000FFD0000000
001FE000FFC0000000
003FD001FF80000000
007FC002FF80000000
00BF8002FF40000000
00FF4003FF00000000
01FF4007FFFFFF0000
02FF0007FFFFFE0000
02FE000BFFFFFE0000
03FE000BFFFFFD0000
03FD00000000000000
02FD00000000000000
01FD00000000000000
006E00000000000000
ENDCHAR
STARTCHAR aeacute
ENCODING 509
SWIDTH 650 0
DWIDTH 23 0
BBX 26 27 -1 0
BITMAP
000000000FE000
000000002FC000
000000003F4000
000000007E0000
00000000FC0000
00000001F80000
00000002E00000
00000000000000
00000000000000
0006FF906FE400
002FFFFAFFFD00
00B95BFFFD7E00
009003FFF03E00
000002FFD03E00
000002FFC07D00
000003FF80FC00
000007FF43F400
00BFFFFF6FE000
0BFFFFFFFF4000
1FFE4BFFE40000
3FF40FFD000000
7FF01FFD0001D0
7FF02FFE000740
7FF47FFF406E00
3FFFF7FFFFF400
1FFFD2FFFF9000
06FE006FE90000
ENDCHAR
STARTCHAR Oslashacute
ENCODING 510
SWIDTH 658 0
DWIDTH 24 0
BBX 23 39 0 -3
BITMAP
0000000001A4
0000000007F0
000000000FD0
000000002F80
000000003F00
00000000BD00
00000000F800
000000000000
000000000000
00000001E000
00000001D000
00001AFFE400
0002FFFFFE00
002FE403FF80
01FE06F7AFE0
07F42FDB5FF0
1FD0BF8B0FF4
2F82FF0F0FF8
7F47FE1E0FF8
7F0BFC1E0FF8
7E1FF82D0FF8
3E2FF43C0FF8
1A3FF03C1FF8
007FE0782FF4
00BFE0742FF0
00BFD0B43FF0
00FFC0F07FE0
00FFC0E0BFD0
01FFC1E1FFC0
01FFC2D2FF40
01FFC2C7FE00
00FFC3DFFD00
00BFD7FFF400
007FFBFFD000
001FFFFF4000
0006FFF80000
00000F400000
00001E000000
00001E000000
ENDCHAR
STARTCHAR oslashacute
ENCODING 511
SWIDTH 428 0
DWIDTH 15 0
BBX 20 29 -3 -2
BITMAP
00000007F4
0000000BE0
0000001FC0
0000002F40
0000007E00
000000BD00
000000F800
0000000000
0000000000
00001BF81E
0001FFFE78
000BFE6FF0
002FF80FC0
007FF00FC0
00FFD02FC0
01FFC07FC0
02FF81FFC0
03FF47DF80
07FF1F6F80
07FF3D3F40
07FFB47F00
07FFD0BE00
07FF81FC00
03FF47F400
02FFFFD000
01FFFF4000
07AFE40000
1F00000000
7C00000000
ENDCHAR
STARTCHAR uni0200
ENCODING 512
SWIDTH 668 0
DWIDTH 24 0
BBX 26 40 0 -4
BITMAP
0000003F87F400
0000001FC1FC00
0000000BE0BD00
00000002F03F00
00000000F81F40
000000007C0B80
000000002D02D0
00000000000000
00000000000000
0000000001BF80
000000001FFF80
00000000BFFF40
00000002F7FF40
0000000BD3FF00
0000002F47FF00
0000007E0BFE00
000000FC0BFD00
000002F40FFD00
00000BE00FFC00
00001FD01FF800
01BFFFD42FF800
1FFFFFFFBFF400
3FD4FE16FFF000
BF41FD007FF000
BF43FC007FE000
7F4BF800BFE000
040FF000FFD000
001FE000FFC000
003FD001FFC000
007FC002FF8000
00BF8002FF4000
00FF4003FF4000
01FF4003FF0000
02FF0007FE0000
02FE000BFE0000
03FE000BFD0000
03FD0000000000
02FD0000000000
01FD0000000000
006E0000000000
ENDCHAR
STARTCHAR uni0201
ENCODING 513
SWIDTH 526 0
DWIDTH 19 0
BBX 21 27 -1 0
BITMAP
00FE1FD00000
007F07F00000
002F82F40000
000FC0FC0000
0007E07D0000
0001F02E0000
0000B40B4000
000000000000
000000000000
0006FE3FF400
002FFFBFF000
00BFE5FFE000
02FF80BFE000
07FF00BFD000
0BFD00FFC000
1FFC01FFC000
2FF801FF8000
3FF402FF4000
3FF003FF4000
7FF003FF0000
7FF007FF0040
7FF00BFE01C0
7FF00FFE0380
7FF47FFF0B00
3FFFF7FFFD00
1FFFD2FFF400
02FE00BF8000
ENDCHAR
STARTCHAR uni0202
ENCODING 514
SWIDTH 668 0
DWIDTH 24 0
BBX 29 38 0 -4
BITMAP
00000000006FE400
000000000BFFFF00
000000002FD57F80
000000007E001FC0
00000000A9000A80
0000000000000000
0000000000000000
0000000001BF8000
000000001FFF8000
00000000BFFF4000
00000002F7FF4000
0000000BD3FF0000
0000002F47FF0000
0000007E0BFE0000
000000FC0BFD0000
000002F40FFD0000
00000BE00FFC0000
00001FD01FF80000
01BFFFD42FF80000
1FFFFFFFBFF40000
3FD4FE16FFF00000
BF41FD007FF00000
BF43FC007FE00000
7F4BF800BFE00000
040FF000FFD00000
001FE000FFC00000
003FD001FFC00000
007FC002FF800000
00BF8002FF400000
00FF4003FF400000
01FF4003FF000000
02FF0007FE000000
02FE000BFE000000
03FE000BFD000000
03FD000000000000
02FD000000000000
01FD000000000000
006E000000000000
ENDCHAR
STARTCHAR uni0203
ENCODING 515
SWIDTH 526 0
DWIDTH 19 0
BBX 21 25 -1 0
BITMAP
00001BFE0000
0001FFFFD000
0007F95FF000
000FD003F400
001F8002F400
000000000000
000000000000
0006FE3FF400
002FFFBFF000
00BFE5FFE000
02FF80BFE000
07FF00BFD000
0BFD00FFC000
1FFC01FFC000
2FF801FF8000
3FF402FF4000
3FF003FF4000
7FF003FF0000
7FF007FF0040
7FF00BFE01C0
7FF00FFE0380
7FF47FFF0B00
3FFFF7FFFD00
1FFFD2FFF400
02FE00BF8000
ENDCHAR
STARTCHAR uni0204
ENCODING 516
SWIDTH 459 0
DWIDTH 17 0
BBX 18 37 0 -1
BITMAP
00BE0FE000
003F47F000
001F82F800
000BD0BC00
0003E03E00
0001F41F00
0000780B40
0000000000
0000000000
00001BF900
0000BFFF80
0003FE5BD0
000BF807E0
001FF003E0
003FE007E0
003FD00BD0
007FD01F80
007FD00500
003FE00000
002FF40000
000FFD0000
000BFE4000
00BFF40000
02FFD00000
0BFF400000
1FFE000000
3FFD000000
7FFC000000
BFF8000000
BFF8000000
BFF8000090
BFF8000280
7FFD001E00
3FFFAAF800
1FFFFFE000
06FFFE0000
0055500000
ENDCHAR
STARTCHAR uni0205
ENCODING 517
SWIDTH 384 0
DWIDTH 14 0
BBX 16 27 -1 0
BITMAP
1FD1FD00
0BE0BE00
02F43F00
01F81F80
007D0BC0
002E02E0
000F00F0
00000000
00000000
0002BF80
002FFFE0
00BFE6F0
02FF82F4
07FF02F0
0BFD03F0
1FFC0BD0
2FF82F80
3FF5BF00
3FFFF800
7FFF9000
7FF00001
7FF0000E
7FF00078
7FF806E0
2FFFFF80
1FFFFD00
02BF9000
ENDCHAR
STARTCHAR uni0206
ENCODING 518
SWIDTH 459 0
DWIDTH 17 0
BBX 21 35 0 -1
BITMAP
000006FFE400
00002FFFFD00
0000BF41BF00
0001FC007F40
0001A4002A40
000000000000
000000000000
00001BF90000
0000BFFF8000
0003FE5BD000
000BF807E000
001FF003E000
003FE007E000
003FD00BD000
007FD01F8000
007FD0050000
003FE0000000
002FF4000000
000FFD000000
000BFE400000
00BFF4000000
02FFD0000000
0BFF40000000
1FFE00000000
3FFD00000000
7FFC00000000
BFF800000000
BFF800000000
BFF800009000
BFF800028000
7FFD001E0000
3FFFAAF80000
1FFFFFE00000
06FFFE000000
005550000000
ENDCHAR
STARTCHAR uni0207
ENCODING 519
SWIDTH 384 0
DWIDTH 14 0
BBX 16 25 -1 0
BITMAP
0006BF90
002FFFF8
00FE56FD
02F800BE
03F0007E
00000000
00000000
0002BF80
002FFFE0
00BFE6F0
02FF82F4
07FF02F0
0BFD03F0
1FFC0BD0
2FF82F80
3FF5BF00
3FFFF800
7FFF9000
7FF00001
7FF0000E
7FF00078
7FF806E0
2FFFFF80
1FFFFD00
02BF9000
ENDCHAR
STARTCHAR uni0208
ENCODING 520
SWIDTH 375 0
DWIDTH 14 0
BBX 15 35 0 0
BITMAP
07F4BF00
02F82F80
00FD0FC0
007E07D0
001F02F0
000B80F4
0003C07C
00000000
00006BF4
0007FFF0
007FFFE0
01FDBFE0
07F0BFD0
1FC0FFC0
3F41FFC0
7F01FF80
BE02FF80
BE03FF40
BE03FF00
7E07FF00
1A07FE00
000BFD00
000FFD00
000FFC00
001FF800
002FF800
002FF400
003FF000
007FF000
007FE000
00BFE000
00FFD000
00FFC000
01FFC000
02FF8000
ENDCHAR
STARTCHAR uni0209
ENCODING 521
SWIDTH 267 0
DWIDTH 10 0
BBX 15 27 -4 0
BITMAP
7F47F400
1FC2F800
0BD0FD00
03F07E00
01F41F00
00B80B80
002D03C0
00000000
00000000
000BFE00
000FFD00
000FFC00
001FFC00
002FF800
002FF400
003FF400
003FF000
007FE000
00BFE000
00BFD000
00FFD018
01FFC038
01FFC0B4
01FFEAE0
00FFFFC0
00BFFE00
001FE400
ENDCHAR
STARTCHAR uni020A
ENCODING 522
SWIDTH 375 0
DWIDTH 14 0
BBX 18 34 0 0
BITMAP
00006BF900
0002FFFF80
000FE56FD0
002F800BE0
002A0006A0
0000000000
0000000000
00006BF400
0007FFF000
007FFFE000
01F9BFE000
0BE0BFD000
1FC0FFC000
3F41FFC000
7F01FF8000
BE02FF8000
BE03FF4000
BE03FF0000
7E07FF0000
1A0BFE0000
000BFD0000
000FFD0000
000FFC0000
001FF80000
002FF80000
002FF40000
003FF00000
007FF00000
007FE00000
00BFE00000
00FFD00000
00FFC00000
01FFC00000
02FF800000
ENDCHAR
STARTCHAR uni020B
ENCODING 523
SWIDTH 267 0
DWIDTH 10 0
BBX 12 25 -1 0
BITMAP
006FE0
07FFF8
1FD5FD
2F007E
3D003E
000000
000000
02FF80
03FF40
03FF00
07FF00
0BFE00
0BFD00
0FFD00
0FFC00
1FF800
2FF800
2FF400
3FF406
7FF00E
7FF02D
7FFAB8
3FFFF0
2FFF80
07F900
ENDCHAR
STARTCHAR uni020C
ENCODING 524
SWIDTH 665 0
DWIDTH 24 0
BBX 24 36 0 0
BITMAP
0002F83F8000
0000FD1FC000
00007E0BE000
00002F42F000
00000F80F800
000007C07C00
000001E02D00
000000000000
000000000000
000006BFE800
0001BFFFFF80
001FF955BFE0
00BF80541FF4
02FD0BF80BF8
0BF42FE007FC
1FD0BFC007FD
3F81FF8007FE
7F43FF0007FE
7F0BFE0007FE
7F0FFD0007FE
3F1FFC0007FD
1B2FF8000BFD
003FF4000BFC
007FF0000FFC
00BFE0001FF8
00BFE0002FF4
00FFD0003FF0
00FFD0007FE0
00FFD000FFC0
00FFD001FF80
00FFD003FF00
00BFE00BFD00
00BFF06FF400
003FFFFFD000
001FFFFE0000
0002BFA40000
ENDCHAR
STARTCHAR uni020D
ENCODING 525
SWIDTH 433 0
DWIDTH 16 0
BBX 21 27 -1 0
BITMAP
1FC2FC000000
0BE0FD000000
03F07F000000
01F81F400000
00BC0BC00000
003E03D00000
001F01E00000
000000000000
000000000000
0006FE400000
002FFFE00000
00BFD6F40000
02FF41F80000
07FE02F802C0
0FFD07F96E00
1FFC07FFE400
2FF402F90000
3FF402F40000
7FF002F40000
BFE003F00000
BFE007E00000
BFE00BD00000
BFE01FC00000
7FF47F400000
3FFFFD000000
1FFFF4000000
02FE80000000
ENDCHAR
STARTCHAR uni020E
ENCODING 526
SWIDTH 665 0
DWIDTH 24 0
BBX 24 34 0 0
BITMAP
0000000AFF90
0000007FFFF4
000001FD06FC
000007F000FD
0000069000A9
000000000000
000000000000
000006BFE800
0001BFFFFF80
001FF955BFE0
00BF80541FF4
02FD0BF80BF8
0BF42FE007FC
1FD0BFC007FD
3F81FF8007FE
7F43FF0007FE
7F0BFE0007FE
7F0FFD0007FE
3F1FFC0007FD
1B2FF8000BFD
003FF4000BFC
007FF0000FFC
00BFE0001FF8
00BFE0002FF4
00FFD0003FF0
00FFD0007FE0
00FFD000FFC0
00FFD001FF80
00FFD003FF00
00BFE00BFD00
00BFF06FF400
003FFFFFD000
001FFFFE0000
0002BFA40000
ENDCHAR
STARTCHAR uni020F
ENCODING 527
SWIDTH 433 0
DWIDTH 16 0
BBX 21 25 -1 0
BITMAP
0001BFE40000
000BFFFD0000
003F95BF0000
00BE003F8000
01FC002F8000
000000000000
000000000000
0006FE400000
002FFFE00000
00BFD6F40000
02FF41F80000
07FE02F802C0
0FFD07F96E00
1FFC07FFE400
2FF402F90000
3FF402F40000
7FF002F40000
BFE003F00000
BFE007E00000
BFE00BD00000
BFE01FC00000
7FF47F400000
3FFFFD000000
1FFFF4000000
02FE80000000
ENDCHAR
STARTCHAR uni0210
ENCODING 528
SWIDTH 601 0
DWIDTH 22 0
BBX 21 37 0 -1
BITMAP
007F4BF00000
002F83F40000
000FC1FC0000
0007E07D0000
0002F02F0000
0000B80F4000
00003C078000
000000000000
000000000000
00006BFE4000
0006FFFFF800
006FE556FE00
01FE0000BF40
07F45AD03F80
1FD0FFD02FC0
3F80FFC02FC0
7F41FFC03F80
BF02FF807F40
BE02FF40FF00
BE03FF42FD00
7E07FF1BF400
2E07FFFFE000
010BFFFFFC00
000FFD0BFD00
000FFC07FE00
001FFC07FE00
002FF807FD00
002FF40BFD00
003FF40BFC00
007FF00FF800
007FE01FF400
00BFE02FF400
00FFD03FF000
00FFC03FF000
01FFC03FF000
02FF802FF800
000000055000
ENDCHAR
STARTCHAR uni0211
ENCODING 529
SWIDTH 376 0
DWIDTH 14 0
BBX 16 27 -2 0
BITMAP
3F83F800
1FD1FC00
07E0BE00
02F03F00
00F81F40
007C07C0
002E02D0
00000000
00000000
00BFE1F8
00FFDFFE
00FFFFFF
01FFD0FE
02FF80B8
02FF4000
03FF4000
03FF0000
07FE0000
0BFE0000
0BFD0000
0FFD0000
1FFC0000
1FF80000
2FF80000
3FF40000
3FF00000
7FF00000
ENDCHAR
STARTCHAR uni0212
ENCODING 530
SWIDTH 601 0
DWIDTH 22 0
BBX 21 35 0 -1
BITMAP
000002FFE400
00002FFFFD00
0000BF41BF00
0001FC003F40
0001A4002A40
000000000000
000000000000
00006BFE4000
0006FFFFF800
006FE556FE00
01FE0000BF40
07F45AD03F80
1FD0FFD02FC0
3F80FFC02FC0
7F41FFC03F80
BF02FF807F40
BE02FF40FF00
BE03FF42FD00
7E07FF1BF400
2E07FFFFE000
010BFFFFFC00
000FFD0BFD00
000FFC07FE00
001FFC07FE00
002FF807FD00
002FF40BFD00
003FF40BFC00
007FF00FF800
007FE01FF400
00BFE02FF400
00FFD03FF000
00FFC03FF000
01FFC03FF000
02FF802FF800
000000055000
ENDCHAR
STARTCHAR uni0213
ENCODING 531
SWIDTH 376 0
DWIDTH 14 0
BBX 17 25 -2 0
BITMAP
0000AFE400
000BFFFE00
002FD5BF40
00BE002FC0
00BC001FC0
0000000000
0000000000
00BFE1F800
00FFDFFE00
00FFFFFF00
01FFD0FE00
02FF80B800
02FF400000
03FF400000
03FF000000
07FE000000
0BFE000000
0BFD000000
0FFD000000
1FFC000000
1FF8000000
2FF8000000
3FF4000000
3FF0000000
7FF0000000
ENDCHAR
STARTCHAR uni0214
ENCODING 532
SWIDTH 716 0
DWIDTH 26 0
BBX 27 36 0 0
BITMAP
00000BE0FE0000
000003F47F0000
000001F82F8000
000000BD0BC000
0000003E03E000
0000001F41F000
0000000780B400
00000000000000
00000000000000
00006BF8000FFC
000BFFFC001FFC
007FAFF8001FF8
02F82FF4002FF4
0BE03FF0002FF4
2F807FE0003FF0
7F00BFD0007FF0
BE00BFD0007FE0
FD00FFC000BFD0
FD01FF8000FFD0
FD02FF4000FFC0
BD02FF0001FF80
2D03FF0002FF80
0007FE0002FF40
000BFD0003FF00
000BFC0007FE00
000FFC000BFE00
001FF8000BFD00
001FF8000FFC00
001FF4001FF800
002FF4002FF400
002FF4007FE000
002FF800BFD000
001FFD06FF4000
000FFFFFFE0000
0003FFFFF40000
00006FFE400000
ENDCHAR
STARTCHAR uni0215
ENCODING 533
SWIDTH 505 0
DWIDTH 18 0
BBX 21 27 -1 0
BITMAP
0FE0FE000000
07F47F000000
02F82F400000
00BC0FC00000
003E07D00000
001F01E00000
000B80B40000
000000000000
000000000000
02FF80BFD000
03FF40FFD000
03FF01FFC000
07FF01FF8000
0BFE02FF8000
0BFD03FF4000
0FFD03FF0000
0FFC07FF0000
1FF807FE0000
2FF80BFD0000
2FF40FFD0000
3FF40FFC0240
7FF02FFC0740
7FF07FFC0E00
7FFAFFFEBD00
3FFFDFFFF800
2FFF47FFE000
07F901FE4000
ENDCHAR
STARTCHAR uni0216
ENCODING 534
SWIDTH 716 0
DWIDTH 26 0
BBX 27 34 0 0
BITMAP
000000006FF900
00000007FFFF80
0000001FE02FD0
0000003F400FD0
00000069000690
00000000000000
00000000000000
00006BF8000FFC
000BFFFC001FFC
007FAFF8001FF8
02F82FF4002FF4
0BE03FF0002FF4
2F807FE0003FF0
7F00BFD0007FF0
BE00BFD0007FE0
FD00FFC000BFD0
FD01FF8000FFD0
FD02FF4000FFC0
BD02FF0001FF80
2D03FF0002FF80
0007FE0002FF40
000BFD0003FF00
000BFC0007FE00
000FFC000BFE00
001FF8000BFD00
001FF8000FFC00
001FF4001FF800
002FF4002FF400
002FF4007FE000
002FF800BFD000
001FFD06FF4000
000FFFFFFE0000
0003FFFFF40000
00006FFE400000
ENDCHAR
STARTCHAR uni0217
ENCODING 535
SWIDTH 505 0
DWIDTH 18 0
BBX 21 25 -1 0
BITMAP
00006FE80000
0007FFFF0000
002FE57F8000
007F001FC000
00BD000FD000
000000000000
000000000000
02FF80BFD000
03FF40FFD000
03FF01FFC000
07FF01FF8000
0BFE02FF8000
0BFD03FF4000
0FFD03FF0000
0FFC07FF0000
1FF807FE0000
2FF80BFD0000
2FF40FFD0000
3FF40FFC0240
7FF02FFC0740
7FF07FFC0E00
7FFAFFFEBD00
3FFFDFFFF800
2FFF47FFE000
07F901FE4000
ENDCHAR
STARTCHAR Scommaaccent
ENCODING 536
SWIDTH 570 0
DWIDTH 21 0
BBX 19 36 1 -9
BITMAP
00006BF900
0002FFFFD0
000BFE5BF0
002FF402F8
007FF002FC
007FE002FC
00BFE003F8
007FF00BF4
007FF80290
002FFD0000
001FFF4000
000BFFD000
0002FFF000
0000BFFC00
00003FFE00
00001FFF40
06FD07FFC0
1FFF02FFD0
3FF901FFD0
7FC000FFD0
BF8000FFD0
BF4000FFD0
BF4001FF80
7F8003FF40
2FE41FFD00
0FFFFFF400
02FFFF8000
0015540000
0000000000
002F400000
003F800000
002F800000
000F400000
000E000000
0028000000
0010000000
ENDCHAR
STARTCHAR scommaaccent
ENCODING 537
SWIDTH 382 0
DWIDTH 14 0
BBX 16 28 -1 -9
BITMAP
0005A900
000FFE00
001FFE00
002FFE00
003FFE00
00BBFE00
00E7FF00
01D7FF00
0287FF00
0743FF00
0F03FF40
2E03FF40
BF43FF45
FE03FF6D
F007FFF4
F41FFF80
BFFFFD00
2FFFF000
06FE4000
00000000
00000000
02F00000
07F80000
03F80000
01F40000
00E00000
02800000
01000000
ENDCHAR
STARTCHAR uni021A
ENCODING 538
SWIDTH 481 0
DWIDTH 17 0
BBX 26 36 0 -9
BITMAP
0001AFFA400010
002FFFFFF901A0
01FFFFFFFFFFE0
07FD47FFFFFFD0
1FE00BFFFFFF80
2F800BFE6BFE00
7F400FFE000000
7F001FFD000000
BE001FFC000000
BE002FF8000000
BE003FF8000000
BE003FF4000000
3E007FF0000000
06007FF0000000
0000BFE0000000
0000FFD0000000
0000FFD0000000
0001FFC0000000
0002FF80000000
0002FF80000000
0003FF40000000
0007FF00000000
0007FF00000000
000BFE00000000
000BFD00000000
000FFD00000000
001FFC00000000
00000000000000
00000000000000
000BD000000000
000FE000000000
000BE000000000
0003D000000000
00038000000000
000A0000000000
00040000000000
ENDCHAR
STARTCHAR uni021B
ENCODING 539
SWIDTH 267 0
DWIDTH 10 0
BBX 12 33 -1 -9
BITMAP
000150
00BFE0
00BFD0
00FFD0
01FFC0
01FF80
0FFFF8
03FF40
03FF00
07FF00
0BFE00
0BFD00
0FFD00
1FFC00
1FF800
2FF800
2FF400
3FF006
7FF00E
7FF02D
7FFAB8
3FFFF0
2FFF80
07F900
000000
000000
1F4000
3FC000
2F8000
0F8000
0F0000
2D0000
100000
ENDCHAR
STARTCHAR uni021E
ENCODING 542
SWIDTH 665 0
DWIDTH 24 0
BBX 25 36 0 0
BITMAP
00000001400140
00000002C01B40
00000001E1BD00
00000000FFF400
00000000BF8000
000000007E0000
00000000380000
00000000000000
00000000000000
00001BF401FFC0
0006FFF402FF80
002FFFF002FF40
01FD7FE003FF40
07F4BFE003FF00
0FD0BFD007FE00
2F80FFC00BFE00
7F41FFC00BFD00
7F01FF800FFD00
BF02FF801FFC00
7E03FF401FF800
3F03FFFFFFF800
1B07FFFFFFF400
000BFFAABFF000
000BFD007FF000
000FFD007FE000
000FFC00BFD000
001FF800FFD000
002FF800FFC000
002FF401FFC000
003FF402FF8000
007FF002FF4000
007FE003FF4000
00BFE007FF0000
00FFD007FE0000
00FFC00BFE0000
01FFC00BFD0000
ENDCHAR
STARTCHAR uni021F
ENCODING 543
SWIDTH 600 0
DWIDTH 22 0
BBX 23 33 -2 0
BITMAP
000000500054
000000B006D0
000000786F40
0000003FFD00
0000002FF000
0000001F8000
0000000E0000
000000000000
0005AC000000
001FFC000000
002FF8000000
002FF4000000
003FF4000000
003FF0000000
007FE0000000
00BFE2FE0000
00BFEFFF8000
00FFFFFFD000
01FFE0FFD000
01FFC0BFD000
02FF80BFD000
03FF40FFC000
03FF00FFC000
07FE01FF8000
0BFE01FF4000
0BFD02FF4000
0FFD03FF0040
1FFC03FE00D0
1FF807FE02C0
2FF807FF0B40
3FF403FFFE00
3FF001FFF800
7FF0006F9000
ENDCHAR
STARTCHAR uni0237
ENCODING 567
SWIDTH 240 0
DWIDTH 9 0
BBX 18 27 -8 -9
BITMAP
00000BFE00
00000FFD00
00000FFC00
00001FFC00
00001FF800
00002FF800
00003FF400
00003FF000
00007FF000
0000BFE000
0000BFE000
0000FFD000
0001FFC0B0
0001FFC0E0
0002FF81C0
0002FF4740
0003FF5D00
0007FFE400
001FFF4000
01FFFE0000
0BFFFD0000
2F4FFC0000
3D1FF80000
782FF40000
3D7FE00000
2FFFC00000
06F9000000
ENDCHAR
STARTCHAR uni0259
ENCODING 601
SWIDTH 404 0
DWIDTH 15 0
BBX 14 18 0 0
BITMAP
006FE400
07FFFF40
0FFFFFC0
0E41FFD0
0400BFE0
0000BFE0
0000BFF0
001BFFE0
01FFFFE0
0BF9FFD0
2F81FFC0
7F01FF80
BD03FF40
FC07FE00
FC0FF800
BD7FE000
7FFF8000
1BE80000
ENDCHAR
STARTCHAR uni0292
ENCODING 658
SWIDTH 442 0
DWIDTH 16 0
BBX 18 27 0 -9
BITMAP
02FFFFF400
0FFFFFE000
2F95FFC000
3F81FF8000
2F43FF0000
050BFD0000
001FF80000
002FF40000
007FE00000
00FFC00000
02FF400000
02FF400000
02FFC001D0
007FE002C0
003FF00740
002FF40F00
001FF87C00
001FFEE000
001FFE4000
01BFF80000
1FFFF80000
7E2FF80000
B43FF40000
F07FE00000
F5FFD00000
7FFF400000
1BF8000000
ENDCHAR
STARTCHAR uni02BB
ENCODING 699
SWIDTH 241 0
DWIDTH 9 0
BBX 6 9 4 18
BITMAP
0040
0180
0B00
1E00
3F40
7FC0
BFD0
7FC0
2F40
ENDCHAR
STARTCHAR uni02BC
ENCODING 700
SWIDTH 228 0
DWIDTH 8 0
BBX 5 8 5 19
BITMAP
2E00
BF80
7F80
2F80
1F00
1E00
7800
1000
ENDCHAR
STARTCHAR circumflex
ENCODING 710
SWIDTH 293 0
DWIDTH 11 0
BBX 11 7 0 20
BITMAP
000140
000B80
002FC0
00BFD0
07FAE0
1F80B0
780034
ENDCHAR
STARTCHAR caron
ENCODING 711
SWIDTH 294 0
DWIDTH 11 0
BBX 10 7 4 20
BITMAP
400050
E007C0
B4BE00
7FF800
3FD000
2F4000
1D0000
ENDCHAR
STARTCHAR uni02C9
ENCODING 713
SWIDTH 421 0
DWIDTH 15 0
BBX 13 3 4 21
BITMAP
15555500
7FFFFF40
7FFFFF00
ENDCHAR
STARTCHAR uni02CA
ENCODING 714
SWIDTH 256 0
DWIDTH 9 0
BBX 7 7 4 20
BITMAP
01A4
03F4
0BE0
0FC0
2F00
3D00
B800
ENDCHAR
STARTCHAR uni02CB
ENCODING 715
SWIDTH 274 0
DWIDTH 10 0
BBX 6 7 5 20
BITMAP
7F40
2F80
1F80
0FC0
0BC0
03D0
02D0
ENDCHAR
STARTCHAR breve
ENCODING 728
SWIDTH 431 0
DWIDTH 16 0
BBX 14 5 2 20
BITMAP
BE000BD0
7F001FC0
3F95BF40
1FFFFD00
06FF9000
ENDCHAR
STARTCHAR dotaccent
ENCODING 729
SWIDTH 250 0
DWIDTH 9 0
BBX 6 6 2 21
BITMAP
2F40
BFD0
FFE0
FFE0
BFD0
2F40
ENDCHAR
STARTCHAR ring
ENCODING 730
SWIDTH 156 0
DWIDTH 6 0
BBX 6 6 0 20
BITMAP
1F80
7FD0
F5E0
F5E0
BFD0
2F40
ENDCHAR
STARTCHAR ogonek
ENCODING 731
SWIDTH 291 0
DWIDTH 10 0
BBX 9 8 1 -8
BITMAP
02D000
0B4000
2E0000
7E0000
7E0040
7F9780
2FFE00
0BE400
ENDCHAR
STARTCHAR tilde
ENCODING 732
SWIDTH 403 0
DWIDTH 15 0
BBX 15 4 1 20
BITMAP
01BF9414
0FFFFFF4
2ABFFFD0
4006F900
ENDCHAR
STARTCHAR hungarumlaut
ENCODING 733
SWIDTH 436 0
DWIDTH 16 0
BBX 13 7 3 20
BITMAP
02F83F80
07F07F00
0BD0FD00
1F81F800
2F02E000
3D07C000
B80B4000
ENDCHAR
STARTCHAR gravecomb
ENCODING 768
SWIDTH 0 0
DWIDTH 0 0
BBX 6 7 -7 20
BITMAP
7F40
2F80
1F80
0FC0
0BC0
03D0
02D0
ENDCHAR
STARTCHAR acutecomb
ENCODING 769
SWIDTH 0 0
DWIDTH 0 0
BBX 7 7 -7 20
BITMAP
01A4
07F4
0BD0
1F80
2E00
7C00
B400
ENDCHAR
STARTCHAR uni0302
ENCODING 770
SWIDTH 0 0
DWIDTH 0 0
BBX 11 7 -10 20
BITMAP
000140
000B80
002FC0
00BFD0
03FAE0
1F80B0
780034
ENDCHAR
STARTCHAR tildecomb
ENCODING 771
SWIDTH 0 0
DWIDTH 0 0
BBX 14 4 -13 20
BITMAP
06FF9010
2FFFFFE0
6AFFFF80
401BF900
ENDCHAR
STARTCHAR uni0304
ENCODING 772
SWIDTH 0 0
DWIDTH 0 0
BBX 12 3 -11 21
BITMAP
155555
7FFFFF
BFFFFF
ENDCHAR
STARTCHAR uni0306
ENCODING 774
SWIDTH 0 0
DWIDTH 0 0
BBX 14 5 -12 20
BITMAP
7F000BE0
7F401FC0
3FD5BF40
1FFFFD00
02FF9000
ENDCHAR
STARTCHAR uni0307
ENCODING 775
SWIDTH 0 0
DWIDTH 0 0
BBX 7 6 -5 21
BITMAP
0B90
3FF0
7FF4
7FF4
3FF0
0B90
ENDCHAR
STARTCHAR uni0308
ENCODING 776
SWIDTH 0 0
DWIDTH 0 0
BBX 11 4 -10 20
BITMAP
2E01F4
BF47FC
BF47FC
2E02F4
ENDCHAR
STARTCHAR hookabovecomb
ENCODING 777
SWIDTH 0 0
DWIDTH 0 0
BBX 7 8 -8 20
BITMAP
6F90
FFF8
55FC
007C
00B8
2FE0
2E40
2C00
ENDCHAR
STARTCHAR uni030A
ENCODING 778
SWIDTH 0 0
DWIDTH 0 0
BBX 6 6 -5 20
BITMAP
1B80
3FE0
79F0
B9F0
7FE0
2F80
ENDCHAR
STARTCHAR uni030B
ENCODING 779
SWIDTH 0 0
DWIDTH 0 0
BBX 13 7 -11 20
BITMAP
02F83F80
07F07F00
0BD0FD00
1F81F800
2F02E000
3D07C000
B80B4000
ENDCHAR
STARTCHAR uni030C
ENCODING 780
SWIDTH 0 0
DWIDTH 0 0
BBX 11 7 -9 20
BITMAP
500014
7402E0
3D2F80
2FFD00
1FF400
0FD000
0B0000
ENDCHAR
STARTCHAR uni030F
ENCODING 783
SWIDTH 0 0
DWIDTH 0 0
BBX 13 7 -12 20
BITMAP
FE0FE000
7F47F000
1F82F800
0BC0FC00
03E07D00
01F01F00
00B80B40
ENDCHAR
STARTCHAR uni0311
ENCODING 785
SWIDTH 0 0
DWIDTH 0 0
BBX 14 5 -13 20
BITMAP
006FF900
07FFFF40
1FE42FC0
3F400FD0
7E000BE0
ENDCHAR
STARTCHAR uni031B
ENCODING 795
SWIDTH 0 0
DWIDTH 0 0
BBX 6 8 -5 16
BITMAP
02E0
07F0
07E0
07E0
0BC0
1F40
7E00
2400
ENDCHAR
STARTCHAR dotbelowcomb
ENCODING 803
SWIDTH 0 0
DWIDTH 0 0
BBX 6 6 -7 -8
BITMAP
1F80
7FE0
BFF0
BFF0
7FE0
1F80
ENDCHAR
STARTCHAR uni0324
ENCODING 804
SWIDTH 0 0
DWIDTH 0 0
BBX 11 4 -16 -7
BITMAP
2E01F4
BF83FC
BF83FC
2E01F4
ENDCHAR
STARTCHAR uni0326
ENCODING 806
SWIDTH 0 0
DWIDTH 0 0
BBX 5 7 -9 -9
BITMAP
2E00
BF40
7F40
2F00
1D00
7400
1000
ENDCHAR
STARTCHAR uni0327
ENCODING 807
SWIDTH 0 0
DWIDTH 0 0
BBX 9 9 -13 -8
BITMAP
02C000
038000
070000
0BB900
1FFF00
007F40
507F00
BFFD00
1FE400
ENDCHAR
STARTCHAR uni0328
ENCODING 808
SWIDTH 0 0
DWIDTH 0 0
BBX 8 8 -13 -8
BITMAP
0780
1E00
7D00
BC00
FD01
BF5B
7FFD
1BE0
ENDCHAR
STARTCHAR uni032E
ENCODING 814
SWIDTH 0 0
DWIDTH 0 0
BBX 12 4 -16 -7
BITMAP
7E007E
3F56FC
1FFFF4
06FE40
ENDCHAR
STARTCHAR uni0331
ENCODING 817
SWIDTH 0 0
DWIDTH 0 0
BBX 13 3 -17 -6
BITMAP
15555500
3FFFFF40
7FFFFF00
ENDCHAR
STARTCHAR uni0335
ENCODING 821
SWIDTH 0 0
DWIDTH 0 0
BBX 13 3 -14 8
BITMAP
15555500
BFFFFF40
BFFFFF00
ENDCHAR
STARTCHAR uni0394
ENCODING 916
SWIDTH 619 0
DWIDTH 22 0
BBX 22 27 0 0
BITMAP
0000000BF400
0000001FF400
0000003FF800
000000BFF800
000000FEFC00
000002FAFC00
000007F1FD00
00000FD1FD00
00001F80FE00
00003F40FE00
0000BE00FF00
0001FC00BF00
0002F800BF00
0007F0007F40
000FD0007F40
001F80003F80
003F40003F80
00BE00003FC0
01FC00002FC0
02F400002FD0
07F000001FD0
0FD000001FE0
2F8000000FE0
3F4000000FE0
7FFFFFFFFFF0
7FFFFFFFFFF0
7FFFFFFFFFF0
ENDCHAR
STARTCHAR uni03A9
ENCODING 937
SWIDTH 745 0
DWIDTH 27 0
BBX 25 27 1 0
BITMAP
0000006BF90000
000007FFFFD000
00007FFFFFF400
0001FF901BFC00
0007F80002FD00
001FD00000FE00
003F4000007F00
00BE0000007F00
00FC0000003F40
02F80000003F40
03F40000003F00
07F00000003F00
0BE00000007F00
0BE00000007E00
0BD0000000BD00
0BD0000000FC00
0BD0000001F400
0BE0000003F000
07E000000BD000
03F000000F8000
02F400003F0000
00FC0000BC0000
007E0002F00000
001F400B800000
7FFFC03FFFF400
BFFF807FFFF400
FFFF807FFFF000
ENDCHAR
STARTCHAR uni03BC
ENCODING 956
SWIDTH 505 0
DWIDTH 18 0
BBX 23 24 -3 -6
BITMAP
002FF80BFD00
003FF40FFD00
003FF01FFC00
007FF01FF800
00BFE02FF800
00BFD02FF400
00FFD03FF400
00FFC07FF000
01FFC07FE000
02FF80BFE000
02FF40FFD000
03FF40FFC014
07FF01FFC074
07FF03FF80B0
0BFF4BFFC2D0
0FFFFEFFFF80
0FFFF8BFFE00
1FFF902FE400
1FF800000000
2FF400000000
3FF400000000
3FF000000000
7FE000000000
650000000000
ENDCHAR
STARTCHAR pi
ENCODING 960
SWIDTH 530 0
DWIDTH 19 0
BBX 20 18 -1 0
BITMAP
3FFFFFFFFF
7FFFFFFFFE
7FFFFFFFFD
00F8003E00
01F8007E00
02F400BD00
02F000BC00
03F000FC00
03E000F800
07E001F800
0BD002F400
0BC002F000
0FC003F000
1F8007E000
1F4007D000
2F400BD000
3F0007FC00
3E0002F400
ENDCHAR
STARTCHAR uni0400
ENCODING 1024
SWIDTH 459 0
DWIDTH 17 0
BBX 18 37 0 -1
BITMAP
00001FD000
00000FD000
00000BE000
000003E000
000002F000
000001F000
000000F400
0000000000
0000000000
00001BF900
0000BFFF80
0003FE5BD0
000BF807E0
001FF003E0
003FE007E0
003FD00BD0
007FD01F80
007FD00500
003FE00000
002FF40000
000FFD0000
000BFE4000
00BFF40000
02FFD00000
0BFF400000
1FFE000000
3FFD000000
7FFC000000
BFF8000000
BFF8000000
BFF8000090
BFF8000280
7FFD001E00
3FFFAAF800
1FFFFFE000
06FFFE0000
0055500000
ENDCHAR
STARTCHAR uni0401
ENCODING 1025
SWIDTH 459 0
DWIDTH 17 0
BBX 19 34 0 -1
BITMAP
00002E01F4
00007F83FC
00007F83FC
00002E01F4
0000000000
0000000000
00001BF900
0000BFFF80
0003FE5BD0
000BF807E0
001FF003E0
003FE007E0
003FD00BD0
007FD01F80
007FD00500
003FE00000
002FF40000
000FFD0000
000BFE4000
00BFF40000
02FFD00000
0BFF400000
1FFE000000
3FFD000000
7FFC000000
BFF8000000
BFF8000000
BFF8000090
BFF8000280
7FFD001E00
3FFFAAF800
1FFFFFE000
06FFFE0000
0055500000
ENDCHAR
STARTCHAR uni0402
ENCODING 1026
SWIDTH 725 0
DWIDTH 26 0
BBX 26 34 0 -7
BITMAP
0001AFFEA50060
002FFFFFFFFFF0
01FFFFFFFFFFE0
07FD43FFFFFFD0
1FE007FF1AFE40
2FC00BFE000000
3F400BFD000000
7F000FFD000000
BF001FFC000000
BE001FF8000000
7E002FF8000000
3F002FF5BF9000
06003FFFFFF400
00007FF95FFC00
00007FE00BFD00
0000BFD00BFE00
0000FFD00BFE00
0000FFC00BFD00
0001FFC00BFD00
0002FF800FFC00
0002FF400FFC00
0003FF401FF800
0007FF002FF400
0007FE003FF400
000BFE003FF000
000BFD007FD000
000FFC00FFC000
00000001FF8000
00000002FF0000
00000007FE0000
0000042FFC0000
00001FFFF00000
00000FFFD00000
000006F9000000
ENDCHAR
STARTCHAR uni0403
ENCODING 1027
SWIDTH 400 0
DWIDTH 14 0
BBX 23 36 0 0
BITMAP
000000000690
000000000FE0
000000002F80
000000003F00
00000000BD00
00000000F400
00000002E000
000000000000
000000000000
0001AFFFFFF8
002FFFFFFFF4
01FFBFFFFFF0
07F47FF6BF90
1FD0BFE00000
2F80BFD00000
7F40FFD00000
7F41FFC00000
BF41FF800000
BF02FF800000
7F03FF400000
2F43FF000000
0647FF000000
0007FE000000
000BFD000000
000FFD000000
000FFC000000
001FFC000000
002FF8000000
002FF4000000
003FF4000000
007FF0000000
007FE0000000
00BFE0000000
00BFD0000000
00FFC0000000
01FFC0000000
ENDCHAR
STARTCHAR uni0404
ENCODING 1028
SWIDTH 497 0
DWIDTH 18 0
BBX 20 28 0 -1
BITMAP
00001BFE40
0001BFFFE0
0007FF96F8
001FFE00BC
003FF800BD
00BFF000FD
01FFD001FC
03FFC003F8
07FF800050
0BFF400000
0FFF000000
1FFFFFF400
2FFFFFF400
2FFD555000
3FFC000000
3FF8000000
7FF8000000
7FF8000000
7FF8000000
7FF8000000
7FF8000000
3FFC000028
3FFD0000B0
2FFF4007D0
0FFFEABF40
07FFFFF900
01BFFF9000
0005540000
ENDCHAR
STARTCHAR uni0405
ENCODING 1029
SWIDTH 570 0
DWIDTH 21 0
BBX 19 28 1 -1
BITMAP
00006BF900
0002FFFFD0
000BFE5BF0
002FF402F8
007FF002FC
007FE002FC
00BFE003F8
007FF00BF4
007FF80290
002FFD0000
001FFF4000
000BFFD000
0002FFF000
0000BFFC00
00003FFE00
00001FFF40
06FD07FFC0
1FFF02FFD0
3FF901FFD0
7FC000FFD0
BF8000FFD0
BF4000FFD0
BF4001FF80
7F8003FF40
2FE41FFD00
0FFFFFF400
02FFFF8000
0015540000
ENDCHAR
STARTCHAR uni0406
ENCODING 1030
SWIDTH 374 0
DWIDTH 13 0
BBX 15 27 0 0
BITMAP
00005BF4
0006FFF4
002FFFF0
01FD7FE0
07F0BFE0
1FD0BFD0
2F80FFC0
7F41FFC0
7F01FF80
BF02FF80
7E03FF40
3F03FF00
0A07FF00
000BFE00
000BFD00
000FFD00
000FFC00
001FF800
002FF800
002FF400
003FF000
007FF000
007FE000
00BFE000
00FFD000
00FFC000
01FFC000
ENDCHAR
STARTCHAR uni0407
ENCODING 1031
SWIDTH 375 0
DWIDTH 14 0
BBX 18 33 0 0
BITMAP
0001F40B80
0003FC2FE0
0003FC2FE0
0001F40B80
0000000000
0000000000
00006BF400
0007FFF000
007FFFE000
01F9BFE000
0BE0BFD000
1FC0FFC000
3F41FFC000
7F01FF8000
BE02FF8000
BE03FF4000
BE03FF0000
7E07FF0000
1A0BFE0000
000BFD0000
000FFD0000
000FFC0000
001FF80000
002FF80000
002FF40000
003FF00000
007FF00000
007FE00000
00BFE00000
00FFD00000
00FFC00000
01FFC00000
02FF800000
ENDCHAR
STARTCHAR uni0408
ENCODING 1032
SWIDTH 536 0
DWIDTH 19 0
BBX 21 34 0 -7
BITMAP
00000001BF80
0000002FFF40
000002FFFF40
00000BE3FF00
00003F47FF00
0000BE0BFE00
0001FC0BFD00
0003F80FFD00
0007F41FFC00
0007F01FF800
0003F02FF800
0002F03FF400
0000643FF000
0000007FF000
000000BFE000
000000BFD000
000000FFD000
000001FFC000
000001FFC000
000002FF8000
000003FF4000
000003FF4000
000007FF0000
00000BFE0000
00540BFE0000
0BFF0FFD0000
2FFF5FFC0000
3FEA6FF80000
7F002FF40000
7E003FF00000
7E00BFD00000
3F96FF800000
1FFFFD000000
02FF90000000
ENDCHAR
STARTCHAR uni0409
ENCODING 1033
SWIDTH 817 0
DWIDTH 29 0
BBX 29 31 -1 -4
BITMAP
00000000AF900000
00000007FFE00000
0000002FFFD00000
000000FDFFD00000
000003F1FFC00000
00000BD1FF800000
00002F42FF800000
00007E03FF400000
0001FD03FF400000
0002F807FF000000
000BF007FE000000
000FE00BFE000000
002FC00FFEBFE400
007F800FFFFFFD00
00BF001FFD07FF40
01FE002FF801FF80
02FD002FF400FFC0
07FC003FF400FFC0
0BF8007FF000FFC0
0FF4007FE000FFC0
2FF000BFE000FFC0
3FE000FFD001FF80
7FD000FFC002FF40
7FC001FFC407FE00
BFC001FF9EAFFC00
FF8002FF4FFFF400
FF4003FF47FF9000
FF40000000550000
FF40000000000000
7F40000000000000
1B80000000000000
ENDCHAR
STARTCHAR uni040A
ENCODING 1034
SWIDTH 931 0
DWIDTH 34 0
BBX 33 28 0 -1
BITMAP
00001BF401FFC00000
0006FFF401FF800000
002FFFF002FF400000
01FE7FF003FF400000
07F4BFE003FF000000
0FD0BFD007FF000000
2F80FFD007FE000000
3F41FFC00BFD000000
7F01FFC00FFD000000
BF02FF800FFC000000
BE03FF401FFC000000
7E03FF556FF8000000
2F07FFFFFFFAFF9000
0107FFFFFFFFFFF800
000BFE003FF41FFD00
000FFD007FE007FE00
000FFC00BFE003FF00
001FFC00BFD002FF40
002FF800FFC002FF40
002FF401FFC003FF00
003FF401FF8003FF00
007FF002FF4007FE00
007FE003FF400BFD00
00BFE003FF101FF800
00FFD007FE3ABFF400
00FFC00BFE3FFFD000
01FFC00BFD1FFF4000
000000000001540000
ENDCHAR
STARTCHAR uni040B
ENCODING 1035
SWIDTH 745 0
DWIDTH 27 0
BBX 26 28 0 -1
BITMAP
0001AFFEA50060
002FFFFFFFFFF0
01FFFFFFFFFFE0
07FD43FFFFFFD0
1FE007FF1AFE40
2FC00BFE000000
3F400BFD000000
7F000FFD000000
BF001FFC000000
BE001FF8000000
7E002FF8000000
3F002FF5BF9000
06003FFFFFF400
00007FF95FFC00
00007FE00BFD00
0000BFD00BFE00
0000FFD00BFE00
0000FFC00BFD00
0001FFC00FFD00
0002FF800FFC00
0002FF401FFC00
0003FF401FF800
0007FF002FF400
0007FE003FF400
000BFE003FF000
000BFD003FF400
000FFC002FF800
00000000055400
ENDCHAR
STARTCHAR uni040C
ENCODING 1036
SWIDTH 635 0
DWIDTH 23 0
BBX 25 37 0 -1
BITMAP
00000000069000
000000000FE000
000000001F8000
000000003F0000
000000007D0000
00000000F40000
00000001E00000
00000000000000
00000000000000
00001BF401BD00
0006FFF40BFF40
002FFFF02FFF40
01FD7FE0BFFF40
07F0BFE1F87E00
0FD0BFD3E00000
2F80FFDBC00000
3F41FFDF400000
7F01FFAE000000
BF02FFBC000000
7E03FFF8000000
7E03FFF0000000
1F07FFFFE40000
000BFFAFFD0000
000BFD07FE0000
000FFD03FE0000
000FFC03FE0000
001FFC07FE0000
002FF807FD0000
002FF40BFD0000
003FF40FFC0000
007FF01FF80000
007FE01FF40000
00BFE02FF40000
00FFD02FF00000
00FFC02FF40000
01FFC01FF80000
00000005540000
ENDCHAR
STARTCHAR uni040D
ENCODING 1037
SWIDTH 705 0
DWIDTH 25 0
BBX 27 36 0 0
BITMAP
0000000BF00000
00000003F40000
00000002F40000
00000001F80000
00000000F80000
00000000BC0000
000000003C0000
00000000000000
00000000000000
00005BF4003FF4
0006FFF400BFF0
002FFFF001FFF0
01FD7FE002FFE0
07F0BFE007FFD0
1FD0BFD00FFFD0
2F80FFC01FFFC0
7F41FFC03FFFC0
7F01FF80BFFF80
BF02FF80FEFF40
7E03FF42F7FF40
3F03FF07E7FF00
0A07FF0BC7FE00
000BFE1F8BFE00
000BFD3F0FFD00
000FFD7D0FFC00
000FFCF81FFC00
001FFAF41FF800
002FFBE02FF800
002FFFC03FF400
003FFF803FF000
007FFF007FF000
007FFD00BFE000
00BFF800BFD000
00FFF400FFD000
00FFE001FFC000
01FFC001FF8000
ENDCHAR
STARTCHAR uni040E
ENCODING 1038
SWIDTH 644 0
DWIDTH 23 0
BBX 26 34 0 0
BITMAP
000000054001C0
0000001FD00380
0000003FE01F00
0000003FD5BD00
0000001FFFF400
00000006FE8000
00000000000000
00005BF80003D0
0006FFFC0007C0
002FBFFC000B80
01FD2FFD000F40
07F01FFE002E00
1FD00FFE003D00
2F800BFF007C00
7F4007FF40B800
7F0007FF41F000
BF0003FF82E000
7E0002FFC3D000
3F0001FFC7C000
0A0000FFDF4000
000000FFFF0000
000000BFFE0000
0000007FFC0000
0000003FF80000
0000002FF40000
0000002FF00000
0000001FD00000
0000000FC00000
0000000B800000
0000BD1F000000
0001FF7E000000
0002FFF8000000
0001FFF0000000
00007F80000000
ENDCHAR
STARTCHAR uni040F
ENCODING 1039
SWIDTH 665 0
DWIDTH 24 0
BBX 25 39 0 -12
BITMAP
00005BF401FFC0
0006FFF402FF80
002FFFF002FF40
01FD7FE003FF40
07F0BFE003FF00
1FD0BFD007FE00
2F80FFC00BFE00
7F41FFC00BFD00
7F01FF800FFD00
BF02FF801FFC00
7E03FF401FF800
3F03FF002FF800
0A07FF003FF400
000BFE003FF000
000BFD007FF000
000FFD00BFE000
000FFC00BFD000
001FF800FFD000
002FF800FFC000
002FF401FFC000
003FF002FF8000
007FF002FF4000
007FE003FF4000
00BFE007FF0000
00FFEAABFE0000
00FFFFFFFE0000
01FFFFFFFD0000
00000400000000
00007D00000000
0000FD00000000
0001FE00000000
0001FF80000000
0000FFD0000000
0000BFE0000000
00003FE0000000
00001FE0000000
00000FC0000000
00000F40000000
00000800000000
ENDCHAR
STARTCHAR uni0410
ENCODING 1040
SWIDTH 668 0
DWIDTH 24 0
BBX 25 31 0 -4
BITMAP
0000000001BF80
000000001FFF80
00000000BFFF40
00000002F7FF40
0000000BD3FF00
0000002F47FF00
0000007E0BFE00
000000FC0BFD00
000002F40FFD00
00000BE00FFC00
00001FD01FF800
01BFFFD42FF800
1FFFFFFFBFF400
3FD4FE16FFF000
BF41FD007FF000
BF43FC007FE000
7F4BF800BFE000
040FF000FFD000
001FE000FFC000
003FD001FFC000
007FC002FF8000
00BF8002FF4000
00FF4003FF4000
01FF4003FF0000
02FF0007FE0000
02FE000BFE0000
03FE000BFD0000
03FD0000000000
02FD0000000000
01FD0000000000
006E0000000000
ENDCHAR
STARTCHAR uni0411
ENCODING 1041
SWIDTH 638 0
DWIDTH 23 0
BBX 23 28 0 -1
BITMAP
0001AFFFFFF8
002FFFFFFFF4
01FEFFFFFFF0
07E0FFD6BF90
1F80FFC00000
2F41FFC00000
7F02FF800000
BE02FF400000
BE03FF400000
BE07FF000000
BE07FF000000
7E0BFE000000
2E0FFEBFE400
050FFFFFFE00
001FFD07FF40
001FFC01FF80
002FF800FFC0
003FF400BFD0
003FF000BFD0
007FF000FFC0
00BFE000FFC0
00BFD001FF80
00FFD002FF40
01FFC407FE00
01FF8EAFFD00
02FF8FFFF400
03FF47FF9000
000000550000
ENDCHAR
STARTCHAR uni0412
ENCODING 1042
SWIDTH 641 0
DWIDTH 23 0
BBX 22 28 0 -1
BITMAP
00005BFE9000
0006FFFFF900
006FE556FF00
01FE00007F80
07F46BE02FC0
1FD0BFD02FC0
2F80FFC02FC0
7F41FFC03F80
7F01FF80BF40
BF02FF41FD00
7E02FF5BF400
3F03FFFFF900
0607FFFFFF40
0007FE06FFC0
000BFD00FFD0
000FFD007FE0
000FFC007FE0
001FF8007FE0
002FF8007FE0
002FF4007FE0
003FF000BFD0
007FF000BFC0
007FE000FF80
00BFE502FF00
00FFDBAFFD00
00FFCBFFF800
01FFC7FFD000
000000550000
ENDCHAR
STARTCHAR uni0413
ENCODING 1043
SWIDTH 400 0
DWIDTH 14 0
BBX 23 27 0 0
BITMAP
0001AFFFFFF8
002FFFFFFFF4
01FFBFFFFFF0
07F47FF6BF90
1FD0BFE00000
2F80BFD00000
7F40FFD00000
7F41FFC00000
BF41FF800000
BF02FF800000
7F03FF400000
2F43FF000000
0647FF000000
0007FE000000
000BFD000000
000FFD000000
000FFC000000
001FFC000000
002FF8000000
002FF4000000
003FF4000000
007FF0000000
007FE0000000
00BFE0000000
00BFD0000000
00FFC0000000
01FFC0000000
ENDCHAR
STARTCHAR uni0414
ENCODING 1044
SWIDTH 669 0
DWIDTH 24 0
BBX 25 28 -1 -1
BITMAP
000006BFE40000
0001BFFFFF4000
001BF955BFE000
007F80001FF400
01FD1AB807FC00
07F82FF403FE00
0BE03FF402FF00
1FD07FF002FF00
1FC07FF002FF40
2FC0BFE002FF40
1F80FFD002FF40
0FC0FFD002FF40
0181FFC002FF40
0002FF8003FF40
0002FF8003FF00
0003FF4007FF00
0007FF0007FE00
0007FF000BFD00
000BFE000FFC00
06FFFD001FF800
2E6FFD003FF400
781FFC007FE000
B42FF800FFD000
F03FF803FF8000
BEFFFEAFFE0000
7FFFDBFFF80000
1FFE42FFE00000
01500015000000
ENDCHAR
STARTCHAR uni0415
ENCODING 1045
SWIDTH 459 0
DWIDTH 17 0
BBX 18 28 0 -1
BITMAP
00001BF900
0000BFFF80
0003FE5BD0
000BF807E0
001FF003E0
003FE007E0
003FD00BD0
007FD01F80
007FD00500
003FE00000
002FF40000
000FFD0000
000BFE4000
00BFF40000
02FFD00000
0BFF400000
1FFE000000
3FFD000000
7FFC000000
BFF8000000
BFF8000000
BFF8000090
BFF8000280
7FFD001E00
3FFFAAF800
1FFFFFE000
06FFFE0000
0055500000
ENDCHAR
STARTCHAR uni0416
ENCODING 1046
SWIDTH 777 0
DWIDTH 28 0
BBX 31 28 -1 -1
BITMAP
001BE00016801BE0
007FF802FF80BFF8
00BFFD03FF42FFF8
00BFFE03FF07FFF8
002E2F07FF0FD2E0
00000F4BFE2F4000
00000F4BFD3E0000
00000B8FFD7C0000
00000B8FFCF80000
00000B9FF9F00000
00000B6FFAE00000
00000B6FF6D00000
0006FFFFFFFE4000
002FFFFFFFFFD000
007FF5BFE5BFF000
00FFC0BFE03FF000
02FF40FFD02FF000
03FF00FFC03FF000
03FE01FFC03FE000
07FE01FF807FE000
07FD02FF40BFD000
0BFD03FF40FFC000
0FFC03FF00FF8000
0FFC07FF01FF4000
1FF80BFE02FF4000
3FF40BFD02FF8000
FFE00FFD01FFD000
5540000000154000
ENDCHAR
STARTCHAR uni0417
ENCODING 1047
SWIDTH 525 0
DWIDTH 19 0
BBX 19 28 -1 -1
BITMAP
00002BFA00
0002FFFFD0
000B95BFF0
002D003FF4
0034002FF8
0060002FF8
0040002FF8
0000003FF4
000000BFF0
000001FFD0
00001BFF40
0003FFF800
0007FFF800
00015BFF40
000002FFC0
000000FFE0
000000FFF0
000000BFF0
000000FFF0
064000FFF0
2FD000FFE0
3F8001FFD0
7F4003FFC0
7F4007FF40
3F801FFD00
1FFAFFF400
07FFFE4000
0055500000
ENDCHAR
STARTCHAR uni0418
ENCODING 1048
SWIDTH 705 0
DWIDTH 25 0
BBX 27 27 0 0
BITMAP
00005BF4003FF4
0006FFF400BFF0
002FFFF001FFF0
01FD7FE002FFE0
07F0BFE007FFD0
1FD0BFD00FFFD0
2F80FFC01FFFC0
7F41FFC03FFFC0
7F01FF80BFFF80
BF02FF80FEFF40
7E03FF42F7FF40
3F03FF07E7FF00
0A07FF0BC7FE00
000BFE1F8BFE00
000BFD3F0FFD00
000FFD7D0FFC00
000FFCF81FFC00
001FFAF41FF800
002FFBE02FF800
002FFFC03FF400
003FFF803FF000
007FFF007FF000
007FFD00BFE000
00BFF800BFD000
00FFF400FFD000
00FFE001FFC000
01FFC001FF8000
ENDCHAR
STARTCHAR uni0419
ENCODING 1049
SWIDTH 705 0
DWIDTH 25 0
BBX 27 34 0 0
BITMAP
00000005000380
0000003FC00B40
0000007FC02E00
0000007F95FC00
0000003FFFE000
0000000BFE4000
00000000000000
00005BF4003FF4
0006FFF400BFF0
002FFFF001FFF0
01FD7FE002FFE0
07F0BFE007FFD0
1FD0BFD00FFFD0
2F80FFC01FFFC0
7F41FFC03FFFC0
7F01FF80BFFF80
BF02FF80FEFF40
7E03FF42F7FF40
3F03FF07E7FF00
0A07FF0BC7FE00
000BFE1F8BFE00
000BFD3F0FFD00
000FFD7D0FFC00
000FFCF81FFC00
001FFAF41FF800
002FFBE02FF800
002FFFC03FF400
003FFF803FF000
007FFF007FF000
007FFD00BFE000
00BFF800BFD000
00FFF400FFD000
00FFE001FFC000
01FFC001FF8000
ENDCHAR
STARTCHAR uni041A
ENCODING 1050
SWIDTH 635 0
DWIDTH 23 0
BBX 25 28 0 -1
BITMAP
00001BF401BD00
0006FFF40BFF40
002FFFF02FFF40
01FD7FE0BFFF40
07F0BFE1F87E00
0FD0BFD3E00000
2F80FFDBC00000
3F41FFDF400000
7F01FFAE000000
BF02FFBC000000
7E03FFF8000000
7E03FFF0000000
1F07FFFFE40000
000BFFAFFD0000
000BFD07FE0000
000FFD03FE0000
000FFC03FE0000
001FFC07FE0000
002FF807FD0000
002FF40BFD0000
003FF40FFC0000
007FF01FF80000
007FE01FF40000
00BFE02FF40000
00FFD02FF00000
00FFC02FF40000
01FFC01FF80000
00000005540000
ENDCHAR
STARTCHAR uni041B
ENCODING 1051
SWIDTH 549 0
DWIDTH 20 0
BBX 22 31 -1 -4
BITMAP
00000000AFD0
00000007FFE0
0000002FFFD0
000000F9FFD0
000003E1FFC0
00000BC1FF80
00002F42FF80
00007E03FF40
0001FC03FF00
0002F807FF00
000BF00BFE00
000FE00BFD00
002FC00FFD00
007F800FFC00
00BF001FF800
01FE002FF800
02FD002FF400
07FC003FF400
0BF8007FF000
0FF4007FE000
2FF000BFE000
3FE000FFD000
7FD000FFC000
7FC001FFC000
BF8002FF8000
FF8002FF4000
FF4003FF4000
FF4000000000
FF4000000000
7F4000000000
1B8000000000
ENDCHAR
STARTCHAR uni041C
ENCODING 1052
SWIDTH 787 0
DWIDTH 28 0
BBX 27 27 2 0
BITMAP
00006FE0000000
0007FFF8001FFC
002FFFF8003FF8
01FE2FF8007FF8
07F43FF800BFF4
0FD0BFF400FFF4
2F80FFF402FFF0
3F41FFF403FFF0
7F02FFF407FFF0
7F03FFF40FFFE0
7F07FFF41FFFE0
3F0BFFF42FFFD0
1B0FAFF03EFFD0
002F6FF0BDFFC0
003F3FF0FDFFC0
007E3FF1F5FF80
00BD3FF2F1FF80
00FC3FF7E2FF80
01F83FFBC2FF40
02F03FFF83FF40
03E03FFF43FF00
0BD07FFF07FF00
0FC07FFD07FE00
1F807FFC0BFE00
2F407FF80BFE00
3F007FF00BFD00
7D007FE00FFD00
ENDCHAR
STARTCHAR uni041D
ENCODING 1053
SWIDTH 665 0
DWIDTH 24 0
BBX 25 27 0 0
BITMAP
00001BF401FFC0
0006FFF402FF80
002FFFF002FF40
01FD7FE003FF40
07F4BFE003FF00
0FD0BFD007FE00
2F80FFC00BFE00
7F41FFC00BFD00
7F01FF800FFD00
BF02FF801FFC00
7E03FF401FF800
3F03FFFFFFF800
1B07FFFFFFF400
000BFFAABFF000
000BFD007FF000
000FFD007FE000
000FFC00BFD000
001FF800FFD000
002FF800FFC000
002FF401FFC000
003FF402FF8000
007FF002FF4000
007FE003FF4000
00BFE007FF0000
00FFD007FE0000
00FFC00BFE0000
01FFC00BFD0000
ENDCHAR
STARTCHAR uni041E
ENCODING 1054
SWIDTH 665 0
DWIDTH 24 0
BBX 24 27 0 0
BITMAP
000006BFE800
0001BFFFFF80
001FF955BFE0
00BF80541FF4
02FD0BF80BF8
0BF42FE007FC
1FD0BFC007FD
3F81FF8007FE
7F43FF0007FE
7F0BFE0007FE
7F0FFD0007FE
3F1FFC0007FD
1B2FF8000BFD
003FF4000BFC
007FF0000FFC
00BFE0001FF8
00BFE0002FF4
00FFD0003FF0
00FFD0007FE0
00FFD000FFC0
00FFD001FF80
00FFD003FF00
00BFE00BFD00
00BFF06FF400
003FFFFFD000
001FFFFE0000
0002BFA40000
ENDCHAR
STARTCHAR uni041F
ENCODING 1055
SWIDTH 688 0
DWIDTH 25 0
BBX 29 27 0 0
BITMAP
0001AFFEA5400640
002FFFFFFFFFFF40
01FFFFFFFFFFFF00
07FFBFFFFFFFFD00
0FF4BFE05BFFE400
2FD0BFD007FF0000
3F80FFD007FE0000
7F41FFC00BFE0000
7F01FF800FFD0000
BF02FF800FFC0000
7E03FF401FFC0000
3E03FF002FF80000
1B07FF002FF40000
0007FE003FF40000
000BFD007FF00000
000FFD007FE00000
000FFC00BFE00000
001FFC00FFD00000
002FF800FFC00000
002FF401FFC00000
003FF402FF800000
007FF002FF400000
007FE003FF400000
00BFE003FF000000
00FFD007FE000000
00FFC00BFE000000
01FFC00BFD000000
ENDCHAR
STARTCHAR uni0420
ENCODING 1056
SWIDTH 573 0
DWIDTH 21 0
BBX 22 27 0 0
BITMAP
00006BFE4000
0007FFFFF400
006FE557FE00
01FD0000BF40
07F05AD07F80
1FD0FFD02FC0
3F80FFC02FD0
7F01FFC02FD0
BE02FF802FD0
BE02FF403FC0
BE03FF407F80
7E07FF00BF40
1E07FE01FE00
000BFE07F800
000FFD1FE000
000FFEBF4000
001FFFA40000
002FF8000000
002FF4000000
003FF4000000
007FF0000000
007FE0000000
00BFE0000000
00FFD0000000
00FFC0000000
01FFC0000000
02FF80000000
ENDCHAR
STARTCHAR uni0421
ENCODING 1057
SWIDTH 497 0
DWIDTH 18 0
BBX 20 28 0 -1
BITMAP
00001BFE40
0001BFFFE0
0007FF96F8
001FFE00FC
003FF800BD
00BFF000FD
01FFE001FC
03FFC003F8
07FF800190
0BFF400000
0FFF000000
1FFE000000
2FFD000000
2FFD000000
3FFC000000
3FFC000000
7FF8000000
7FF8000000
7FF8000000
7FF8000000
7FF8000000
3FFC000028
3FFD0000B0
2FFF0006D0
0FFFEABF40
07FFFFFD00
01BFFF9000
0005540000
ENDCHAR
STARTCHAR uni0422
ENCODING 1058
SWIDTH 481 0
DWIDTH 17 0
BBX 26 27 0 0
BITMAP
0001AFFA400010
002FFFFFF901A0
01FFFFFFFFFFE0
07FD47FFFFFFD0
1FE00BFFFFFF80
2F800BFE6BFE00
7F400FFE000000
7F001FFD000000
BE001FFC000000
BE002FF8000000
BE003FF8000000
BE003FF4000000
3E007FF0000000
06007FF0000000
0000BFE0000000
0000FFD0000000
0000FFD0000000
0001FFC0000000
0002FF80000000
0002FF80000000
0003FF40000000
0007FF00000000
0007FF00000000
000BFE00000000
000BFD00000000
000FFD00000000
001FFC00000000
ENDCHAR
STARTCHAR uni0423
ENCODING 1059
SWIDTH 644 0
DWIDTH 23 0
BBX 26 27 0 0
BITMAP
00005BF80003D0
0006FFFC0007C0
002FBFFC000B80
01FD2FFD000F40
07F01FFE002E00
1FD00FFE003D00
2F800BFF007C00
7F4007FF40B800
7F0007FF41F000
BF0003FF82E000
7E0002FFC3D000
3F0001FFC7C000
0A0000FFDF4000
000000FFFF0000
000000BFFE0000
0000007FFC0000
0000003FF80000
0000002FF40000
0000002FF00000
0000001FD00000
0000000FC00000
0000000B800000
0000BD1F000000
0001FF7E000000
0002FFF8000000
0001FFF0000000
00007F80000000
ENDCHAR
STARTCHAR uni0424
ENCODING 1060
SWIDTH 786 0
DWIDTH 28 0
BBX 28 29 0 0
BITMAP
00006BFFE90000
0007FFFFFE0000
002FF95BFD0000
007F800FFD0000
00BF000FFC0000
007E001FF80000
002E001FF80000
0000006FF94000
00006FFFFFF800
000BF97FF6FF40
007F807FE07FD0
02FE00BFE01FF4
07FC00FFD00FF8
0FF800FFC00BFC
2FF001FFC00BFC
3FF002FF800BFD
3FE002FF400BFC
7FE003FF400FFC
7FE003FF001FF8
7FE007FF002FF4
3FF00BFE007FF0
2FF40BFD00FFD0
1FFC0FFD03FF40
0BFF5FFC6FFD00
02FFFFFFFFE000
002FFFFFFA4000
00002FF8000000
00003FF0000000
00007FF0000000
ENDCHAR
STARTCHAR uni0425
ENCODING 1061
SWIDTH 620 0
DWIDTH 22 0
BBX 23 27 0 0
BITMAP
00006BF401F4
0007FFF802E0
007FBFF807C0
01F93FFC0F80
0BE02FFD1F00
1FC01FFD3D00
3F401FFEB800
7F000FFFF400
BE000BFFE000
BE000BFFC000
BE0007FF8000
7E0003FF8000
1A0003FFC000
000002FFC000
000002FFD000
000002FFD000
000007FFE000
00000BFFF000
00001FBFF000
00003D7FF400
0000787FF800
0000F43FF800
0002E02FFC00
0007C02FFC00
000B401FFD00
001F001FFE00
003D000FFE00
ENDCHAR
STARTCHAR uni0426
ENCODING 1062
SWIDTH 692 0
DWIDTH 25 0
BBX 26 33 0 -6
BITMAP
00001BF401FFC0
0006FFF402FF80
006FFFF002FF40
01FD7FE003FF40
07F0BFE003FF00
1FD0BFD007FE00
3F80FFC00BFE00
7F41FFC00BFD00
7F01FF800FFC00
BF02FF801FFC00
7E03FF401FF800
3F03FF002FF800
0A07FF003FF400
000BFE003FF000
000BFD007FF000
000FFD00BFE000
000FFC00BFD000
001FF800FFD000
002FF800FFC000
002FF401FF8000
003FF402FF8000
007FF002FF4000
007FE003FF0000
00BFE007FF0000
00FFE907FE0000
00FFFFFBFD0000
01FFFFFFFD0000
00001BFFFE4010
0000007FFFFFE0
0000000BFFFFD0
00000001FFFFC0
000000007FFF40
0000000006F900
ENDCHAR
STARTCHAR uni0427
ENCODING 1063
SWIDTH 695 0
DWIDTH 25 0
BBX 26 27 0 0
BITMAP
00001BF4007FF0
0006FFF4007FE0
002FFFF000BFE0
01FD7FE000FFD0
07F4BFE000FFC0
0FD0FFD001FFC0
2F80FFC001FF80
3F41FFC002FF40
7F01FF8003FF40
BF02FF8003FF00
7E02FF4007FF00
7E02FF4007FE00
1F02FF800BFD00
0001FFD06FFD00
0000BFFFFFFC00
00001BFA5FF800
000000002FF800
000000003FF400
000000003FF000
000000007FF000
00000000BFE000
00000000BFE000
00000000FFD000
00000000FFC000
00000001FFC000
00000002FF8000
00000002FF4000
ENDCHAR
STARTCHAR uni0428
ENCODING 1064
SWIDTH 906 0
DWIDTH 33 0
BBX 34 27 0 0
BITMAP
00005BF407FE00BFE0
0006FFF40BFE00FFD0
002FFFF00BFD00FFC0
01FD7FE00FFC01FFC0
07F0BFE01FFC01FF80
1FD0BFD01FF802FF40
2F80FFC02FF803FF40
7F41FFC03FF403FF00
7F01FF803FF007FF00
BF02FF807FF00BFE00
7E03FF40BFE00BFD00
3F03FF00BFD00FFD00
0A07FF00FFD01FFC00
000BFE00FFC01FF800
000BFD01FF802FF800
000FFD02FF802FF400
000FFC02FF403FF000
001FF803FF407FF000
002FF807FF007FE000
002FF407FE00BFE000
003FF00BFE00FFD000
007FF00FFD00FFC000
007FE00FFC01FFC000
00BFE01FFC02FF8000
00FFEAAFFEABFF4000
00FFFFFFFFFFFF4000
01FFFFFFFFFFFF0000
ENDCHAR
STARTCHAR uni0429
ENCODING 1065
SWIDTH 934 0
DWIDTH 34 0
BBX 35 33 0 -6
BITMAP
00006BF407FE00BFE0
0006FFF40BFE00FFD0
002FBFF00BFD00FFC0
01FD7FE00FFC01FFC0
07F0BFE01FFC01FF80
1FD0BFD01FF802FF40
2F80FFC02FF803FF40
7F41FFC03FF403FF00
7F01FF803FF007FE00
BF02FF807FF00BFE00
7E03FF40BFE00BFD00
3F03FF00BFD00FFD00
0A07FF00FFD01FFC00
000BFE00FFC01FF800
000BFD01FF802FF800
000FFD02FF802FF400
000FFC02FF403FF000
001FF803FF407FF000
002FF807FF007FE000
002FF407FE00BFD000
003FF00BFE00FFD000
007FF00FFD00FFC000
007FE00FFC01FF8000
00BFE01FFC02FF8000
00FFEA6FF802FF4000
00FFFFFFF803FF4000
01FFFFFFFF97FF0000
000016FFFFFFFF4010
00000006FFFFFFFFF4
000000001BFFFFFFF0
00000000006FFFFFE0
000000000001BFFFD0
00000000000006FE40
ENDCHAR
STARTCHAR uni042A
ENCODING 1066
SWIDTH 714 0
DWIDTH 26 0
BBX 25 28 0 -1
BITMAP
00006BFF800000
001BFFFFC00000
00BFFFFF800000
02F902FF800000
0BD003FF400000
1F8007FF000000
3F0007FF000000
7F000BFE000000
7F000BFD000000
BF000FFD000000
BF001FFC000000
7F401FFC000000
2F802FFEFFD000
06803FFFFFF800
00003FF41FFE00
00007FF007FF00
0000BFE002FF40
0000BFE002FF40
0000FFD002FF40
0001FFC002FF40
0001FFC002FF00
0002FF8003FE00
0002FF4007FD00
0003FF500FFC00
0007FF3EBFF400
0007FE2FFFD000
000BFE1FFF4000
00000001540000
ENDCHAR
STARTCHAR uni042B
ENCODING 1067
SWIDTH 909 0
DWIDTH 33 0
BBX 34 28 0 -1
BITMAP
00001BF4000000BFE0
0006FFF4000000BFD0
002FFFF0000000FFD0
01FD7FF0000000FFC0
07F4BFE0000001FF80
0FD0BFD0000002FF80
2F80FFD0000002FF40
3F41FFC0000003FF40
7F01FF80000007FF00
BF02FF80000007FE00
BE03FF4000000BFE00
7E03FF4000000FFD00
2F07FFAFF8000FFC00
010BFFFFFF001FFC00
000BFE06FF801FF800
000FFD00BFD02FF400
000FFC007FE03FF400
001FFC007FE03FF000
002FF8007FE07FF000
002FF4007FE0BFE000
003FF4007FD0BFD000
007FF000BFD0FFD000
007FE000FF81FFC000
00BFE402FF41FF8000
00FFDBABFE02FF8000
00FFC7FFF802FF4000
01FFC2FFE003FF0000
000000550000000000
ENDCHAR
STARTCHAR uni042C
ENCODING 1068
SWIDTH 640 0
DWIDTH 23 0
BBX 22 28 0 -1
BITMAP
00001BF40000
0006FFF40000
002FFFF00000
01FD7FF00000
07F4BFE00000
0FD0BFD00000
2F80FFD00000
3F41FFC00000
7F01FF800000
BF02FF800000
BE03FF400000
7E03FF400000
2F07FFAFF800
010BFFFFFF00
000BFE06FF80
000FFD00BFD0
000FFC007FE0
001FFC007FE0
002FF8007FE0
002FF4007FE0
003FF4007FD0
007FF000BFD0
007FE000FF80
00BFE402FF40
00FFDBABFE00
00FFC7FFF800
01FFC2FFE000
000000550000
ENDCHAR
STARTCHAR uni042D
ENCODING 1069
SWIDTH 544 0
DWIDTH 20 0
BBX 21 28 -1 -1
BITMAP
00001BFA4000
0002FFFFE000
000BFFFFF800
002E41BFFD00
00B4002FFE00
01D0001FFF00
0240000FFF00
0000000BFF40
0000000BFF40
0000000BFF40
0000000BFF40
0007FFFFFF00
000BFFFFFF00
0001555FFE00
0000001FFE00
0000002FFD00
0000003FFC00
0000007FF800
000000BFF400
0A4000FFF000
3FC001FFD000
7F4003FF8000
7F0007FF0000
7F001FFD0000
3F003FF40000
1F95FFD00000
07FFFD000000
005550000000
ENDCHAR
ENDFONT
